<svg viewBox="0 0 1112.5999755859375 400" xmlns="http://www.w3.org/2000/svg"><g><g><g><g><g><line x1="41.171875" y1="363.59570355553836" x2="36.171875" y2="363.59570355553836" style="visibility: inherit;" fill="rgb(0, 0, 0)" stroke="rgb(204, 204, 204)" stroke-width="1px"></line><line x1="41.171875" y1="310.39170009024986" x2="36.171875" y2="310.39170009024986" style="visibility: inherit;" fill="rgb(0, 0, 0)" stroke="rgb(204, 204, 204)" stroke-width="1px"></line><line x1="41.171875" y1="266.9208640193323" x2="36.171875" y2="266.9208640193323" style="visibility: inherit;" fill="rgb(0, 0, 0)" stroke="rgb(204, 204, 204)" stroke-width="1px"></line><line x1="41.171875" y1="230.166795817928" x2="36.171875" y2="230.166795817928" style="visibility: inherit;" fill="rgb(0, 0, 0)" stroke="rgb(204, 204, 204)" stroke-width="1px"></line><line x1="41.171875" y1="198.32897377880417" x2="36.171875" y2="198.32897377880417" style="visibility: inherit;" fill="rgb(0, 0, 0)" stroke="rgb(204, 204, 204)" stroke-width="1px"></line><line x1="41.171875" y1="170.24602448312638" x2="36.171875" y2="170.24602448312638" style="visibility: inherit;" fill="rgb(0, 0, 0)" stroke="rgb(204, 204, 204)" stroke-width="1px"></line><line x1="41.171875" y1="145.12497031351563" x2="36.171875" y2="145.12497031351563" style="visibility: inherit;" fill="rgb(0, 0, 0)" stroke="rgb(204, 204, 204)" stroke-width="1px"></line></g><g transform="translate(31.171875, 0)"><text x="0" y="363.59570355553836" dx="0em" dy="0.3em" style="text-anchor: end; visibility: inherit; font-family: Roboto, sans-serif; font-size: 12px; font-weight: 200;" fill="rgb(33, 33, 33)" stroke="none" stroke-width="1px">0.4</text><text x="0" y="310.39170009024986" dx="0em" dy="0.3em" style="text-anchor: end; visibility: inherit; font-family: Roboto, sans-serif; font-size: 12px; font-weight: 200;" fill="rgb(33, 33, 33)" stroke="none" stroke-width="1px">0.5</text><text x="0" y="266.9208640193323" dx="0em" dy="0.3em" style="text-anchor: end; visibility: inherit; font-family: Roboto, sans-serif; font-size: 12px; font-weight: 200;" fill="rgb(33, 33, 33)" stroke="none" stroke-width="1px">0.6</text><text x="0" y="230.166795817928" dx="0em" dy="0.3em" style="text-anchor: end; visibility: inherit; font-family: Roboto, sans-serif; font-size: 12px; font-weight: 200;" fill="rgb(33, 33, 33)" stroke="none" stroke-width="1px">0.7</text><text x="0" y="198.32897377880417" dx="0em" dy="0.3em" style="text-anchor: end; visibility: inherit; font-family: Roboto, sans-serif; font-size: 12px; font-weight: 200;" fill="rgb(33, 33, 33)" stroke="none" stroke-width="1px">0.8</text><text x="0" y="170.24602448312638" dx="0em" dy="0.3em" style="text-anchor: end; visibility: inherit; font-family: Roboto, sans-serif; font-size: 12px; font-weight: 200;" fill="rgb(33, 33, 33)" stroke="none" stroke-width="1px">0.9</text><text x="0" y="145.12497031351563" dx="0em" dy="0.3em" style="text-anchor: end; visibility: inherit; font-family: Roboto, sans-serif; font-size: 12px; font-weight: 200;" fill="rgb(33, 33, 33)" stroke="none" stroke-width="1px">1</text></g><line x1="41.171875" y1="0" x2="41.171875" y2="377" fill="rgb(0, 0, 0)" stroke="rgb(204, 204, 204)" stroke-width="1px"></line></g></g><g transform="translate(41, 0)" clip-path="url(#clip_0)"><clipPath id="clip_0"><rect width="1071" height="377"></rect></clipPath><g><g><g><line x1="0" y1="0" x2="0" y2="377" fill="rgb(0, 0, 0)" stroke="rgb(66, 66, 66)" stroke-width="1px" opacity="0.25"></line><line x1="153.0611607142857" y1="0" x2="153.0611607142857" y2="377" fill="rgb(0, 0, 0)" stroke="rgb(66, 66, 66)" stroke-width="1px" opacity="0.25"></line><line x1="306.1223214285714" y1="0" x2="306.1223214285714" y2="377" fill="rgb(0, 0, 0)" stroke="rgb(66, 66, 66)" stroke-width="1px" opacity="0.25"></line><line x1="459.1834821428571" y1="0" x2="459.1834821428571" y2="377" fill="rgb(0, 0, 0)" stroke="rgb(66, 66, 66)" stroke-width="1px" opacity="0.25"></line><line x1="612.2446428571428" y1="0" x2="612.2446428571428" y2="377" fill="rgb(0, 0, 0)" stroke="rgb(66, 66, 66)" stroke-width="1px" opacity="0.25"></line><line x1="765.3058035714286" y1="0" x2="765.3058035714286" y2="377" fill="rgb(0, 0, 0)" stroke="rgb(66, 66, 66)" stroke-width="1px" opacity="0.25"></line><line x1="918.3669642857142" y1="0" x2="918.3669642857142" y2="377" fill="rgb(0, 0, 0)" stroke="rgb(66, 66, 66)" stroke-width="1px" opacity="0.25"></line><line x1="1071.428125" y1="0" x2="1071.428125" y2="377" fill="rgb(0, 0, 0)" stroke="rgb(66, 66, 66)" stroke-width="1px" opacity="0.25"></line></g><g><line x1="0" y1="363.59570355553836" x2="1071.428125" y2="363.59570355553836" fill="rgb(0, 0, 0)" stroke="rgb(66, 66, 66)" stroke-width="1px" opacity="0.25"></line><line x1="0" y1="310.39170009024986" x2="1071.428125" y2="310.39170009024986" fill="rgb(0, 0, 0)" stroke="rgb(66, 66, 66)" stroke-width="1px" opacity="0.25"></line><line x1="0" y1="266.9208640193323" x2="1071.428125" y2="266.9208640193323" fill="rgb(0, 0, 0)" stroke="rgb(66, 66, 66)" stroke-width="1px" opacity="0.25"></line><line x1="0" y1="230.166795817928" x2="1071.428125" y2="230.166795817928" fill="rgb(0, 0, 0)" stroke="rgb(66, 66, 66)" stroke-width="1px" opacity="0.25"></line><line x1="0" y1="198.32897377880417" x2="1071.428125" y2="198.32897377880417" fill="rgb(0, 0, 0)" stroke="rgb(66, 66, 66)" stroke-width="1px" opacity="0.25"></line><line x1="0" y1="170.24602448312638" x2="1071.428125" y2="170.24602448312638" fill="rgb(0, 0, 0)" stroke="rgb(66, 66, 66)" stroke-width="1px" opacity="0.25"></line><line x1="0" y1="145.12497031351563" x2="1071.428125" y2="145.12497031351563" fill="rgb(0, 0, 0)" stroke="rgb(66, 66, 66)" stroke-width="1px" opacity="0.25"></line></g></g></g><g><g><line x1="153.0611607142857" y1="0" x2="153.0611607142857" y2="377" fill="rgb(0, 0, 0)" stroke="rgb(153, 153, 153)" stroke-width="1.5px"></line></g></g><g><g><g><g><g><path stroke="rgb(255, 112, 67)" stroke-width="2px" d="M183.67339285714283,-2.489530665458803L186.73461607142858,0.9329829432094734L189.79583928571427,4.289305989149165L189.79583928571427,7.721869045691256L189.79583928571427,10.869516587123137L189.79583928571427,13.82246575142559L192.85706249999998,16.451035281619152L192.85706249999998,19.27257077874848L192.85706249999998,21.91491505957704L192.85706249999998,24.396905322934277L192.85706249999998,26.741451682943623L192.85706249999998,28.96906545478252L195.9182857142857,31.22140577901386L198.97950892857142,33.168507423097715L198.97950892857142,35.28758229017653L198.97950892857142,37.483343054533655L198.97950892857142,39.56651605200637L202.04073214285714,40.44418864641534L202.04073214285714,42.01293722521294L202.04073214285714,43.659559354627156L202.04073214285714,45.391496515642864L202.04073214285714,47.094623510086926L202.04073214285714,48.79376896175358L202.04073214285714,50.47420622066184L202.04073214285714,52.14120791851405L205.10195535714283,53.857142857142875L208.16317857142855,55.57028251766856L211.22440178571426,57.39730571147806L211.22440178571426,59.148102003924436L211.22440178571426,60.75391952726978L214.28562499999998,62.31515612354723L214.28562499999998,63.820555331113276L214.28562499999998,65.45681277815066L214.28562499999998,67.05378133224298L214.28562499999998,68.5418078621979L214.28562499999998,69.8823340512648L214.28562499999998,71.20792704312133L214.28562499999998,72.48749072551146L217.34684821428567,73.65819758395314L217.34684821428567,74.81369315467022L220.40807142857142,75.71227491350295L220.40807142857142,76.87890572233957L220.40807142857142,78.08619637663276L220.40807142857142,79.32348015695248L220.40807142857142,80.52254551485281L220.40807142857142,81.71963770288792L223.46929464285714,82.77444331498577L223.46929464285714,83.79431155987818L223.46929464285714,84.78956330252792L226.53051785714285,85.82120964872028L226.53051785714285,86.76080315540739L226.53051785714285,87.64690441143502L229.59174107142854,88.68474051944041L229.59174107142854,89.75215882395415L232.65296428571426,90.75191797349508L232.65296428571426,91.74582213305906L232.65296428571426,92.6988042841116L232.65296428571426,93.6481685299809L235.71418749999998,94.62811363250657L235.71418749999998,95.59730102160795L238.7754107142857,96.73814734330516L238.7754107142857,97.75365920597038L238.7754107142857,98.64523553470856L238.7754107142857,99.5572838754415L241.8366339285714,100.48430533221394L241.8366339285714,101.37658151614437L241.8366339285714,102.23842011118369L244.8978571428571,103.2669914497048L244.8978571428571,104.24228281960451L244.8978571428571,105.17426220792424L244.8978571428571,106.10187051575862L247.95908035714282,106.98667280276054L247.95908035714282,107.88767217777627L247.95908035714282,108.77457282707364L251.02030357142857,109.44334235296427L251.02030357142857,110.13052084091535L251.02030357142857,110.87082542076197L254.0815267857143,111.7736422321361L254.0815267857143,112.5978865980517L254.0815267857143,113.40557381606754L254.0815267857143,114.13655954400583L257.14275,114.80231991993892L257.14275,115.48633210107057L257.14275,116.18937233181855L257.14275,116.86135873495348L257.14275,117.55930163038063L257.14275,118.24394977029351L260.20397321428567,118.71072036441915L260.20397321428567,119.36366218145515L260.20397321428567,119.95739055746483L260.20397321428567,120.64064968373287L263.2651964285714,121.38203410524515L263.2651964285714,122.05664105021303L266.3264196428571,122.76730562798923L266.3264196428571,123.53928610660331L266.3264196428571,124.28424721753231L266.3264196428571,125.01319383301569L266.3264196428571,125.70811926107434L269.38764285714285,126.40542303180914L269.38764285714285,127.08221329558184L272.44886607142854,127.69757932755375L272.44886607142854,128.34250688308327L272.44886607142854,128.91481236584272L272.44886607142854,129.47769696955646L275.51008928571423,130.15127074527535L275.51008928571423,130.82668441096635L275.51008928571423,131.40677528644878L275.51008928571423,131.98282750830344L278.5713125,132.61040859666414L278.5713125,133.26349564573826L278.5713125,133.91333166096305L278.5713125,134.55164636496235L278.5713125,135.16580973296618L278.5713125,135.77018443904274L281.63253571428567,136.3391933168368L284.6937589285714,136.81417520858886L284.6937589285714,137.3677136910054L284.6937589285714,137.94528415398645L284.6937589285714,138.47547424839297L284.6937589285714,139.04214202248917L284.6937589285714,139.61163008942543L287.7549821428571,140.1319748895018L287.7549821428571,140.6753792871399L287.7549821428571,141.2193486049869L287.7549821428571,141.7474866784672L287.7549821428571,142.26541406548816L287.7549821428571,142.77636390697614L287.7549821428571,143.27518020193435L290.8162053571428,143.7407730933262L290.8162053571428,144.22309836400893L290.8162053571428,144.7555983005943L290.8162053571428,145.22608129814876L293.87742857142854,145.68598459810696L293.87742857142854,146.12587108597714L293.87742857142854,146.5737911079852L293.87742857142854,147.03287443225906L296.9386517857142,147.4397726115608L296.9386517857142,147.89788805923436L296.9386517857142,148.34459472764817L296.9386517857142,148.79005500730983L299.99987500000003,149.26725844525927L299.99987500000003,149.74316502957018L303.0610982142857,150.26815967960988L303.0610982142857,150.81601990242368L303.0610982142857,151.34244819741502L303.0610982142857,151.8160645413339L303.0610982142857,152.2872623916118L303.0610982142857,152.76252864855428L303.0610982142857,153.2395351111494L306.1223214285714,153.84088797869111L306.1223214285714,154.31284335235978L306.1223214285714,154.80517228573058L306.1223214285714,155.27663690870952L306.1223214285714,155.72959967772934L309.18354464285716,156.1240587684827L309.18354464285716,156.49567606127104L312.24476785714285,156.85535911870335L312.24476785714285,157.27582413121314L312.24476785714285,157.7101507042856L315.30599107142854,158.25096969338932L315.30599107142854,158.72240360150707L315.30599107142854,159.19300533565172L315.30599107142854,159.66619726886515L318.3672142857143,160.0874144942737L318.3672142857143,160.5185953984071L321.4284375,160.9431458443132L321.4284375,161.36748164702297L327.5508839285714,161.84641748793265L327.5508839285714,162.31748586472793L327.5508839285714,162.7874797279971L327.5508839285714,163.2470753273119L330.6121071428571,163.6176400158905L333.67333035714285,163.89726894801697L333.67333035714285,164.2217721200193L336.73455357142853,164.45966074542767L336.73455357142853,164.86306410309984L336.73455357142853,165.26171571271368L336.73455357142853,165.64670678240392L336.73455357142853,166.02257484231853L339.7957767857142,166.45792620273784L339.7957767857142,166.8170557816942L339.7957767857142,167.2575417044288L342.85699999999997,167.70433238474328L342.85699999999997,168.1607134970647L342.85699999999997,168.58550825235486L345.91822321428566,168.950085726881L345.91822321428566,169.30048123406857L345.91822321428566,169.65109810585594L348.9794464285714,170.07869755446336L348.9794464285714,170.49607348096012L348.9794464285714,170.90486512604005L348.9794464285714,171.30554908286663L348.9794464285714,171.6979576034529L348.9794464285714,172.0898622396642L352.0406696428571,172.5204642272067L352.0406696428571,172.89730336698523L355.1018928571428,173.28301526482863L358.16311607142853,173.60949967422178L358.16311607142853,173.93660764114975L358.16311607142853,174.26284319616616L361.2243392857142,174.57864861317037L361.2243392857142,174.9332411275634L361.2243392857142,175.30936293711417L364.28556249999997,175.76658653220463L364.28556249999997,176.1624790764921L364.28556249999997,176.5483812623446L367.34678571428566,176.90642573572742L367.34678571428566,177.2673336389088L370.4080089285714,177.64469193563056L370.4080089285714,178.01744213493572L370.4080089285714,178.39200075044323L370.4080089285714,178.7669181134931L373.46923214285715,179.1922997028327L373.46923214285715,179.53067197178913L373.46923214285715,179.8859914336186L373.46923214285715,180.2449191903901L379.59167857142853,180.5439584027818L379.59167857142853,180.9027824303149L379.59167857142853,181.2738513621085L379.59167857142853,181.6319528543415L382.6529017857143,182.01411709959706L382.6529017857143,182.39875558296222L382.6529017857143,182.7866214329647L382.6529017857143,183.1551633682485L382.6529017857143,183.51524293625948L382.6529017857143,183.8711577059808L385.71412499999997,184.18501682240523L385.71412499999997,184.53882341958857L385.71412499999997,184.90827555577533L388.7753482142857,185.32673553758323L391.8365714285714,185.78202594699243L391.8365714285714,186.1455185810162L391.8365714285714,186.45608035868915L394.8977946428571,186.76689478782154L394.8977946428571,187.1295805273093L394.8977946428571,187.49596580168614L397.95901785714284,187.7927026120729L397.95901785714284,188.08489473290228L401.02024107142853,188.51810441795027L401.02024107142853,188.94331807053047L401.02024107142853,189.37077202855565L401.02024107142853,189.7988186861011L407.14268749999997,189.96826499850323L407.14268749999997,190.30257384857975L407.14268749999997,190.63886633400233L407.14268749999997,190.97210950159044L407.14268749999997,191.30544992384662L407.14268749999997,191.6353884381429L407.14268749999997,191.97363115141593L407.14268749999997,192.31117872997532L410.20391071428566,192.66665148480112L410.20391071428566,193.00428006538917L410.20391071428566,193.35991648673624L410.20391071428566,193.7153490478715L410.20391071428566,194.07069249715258L410.20391071428566,194.42571379682695L413.2651339285714,194.76377062675678L413.2651339285714,195.1081727396439L413.2651339285714,195.45212636280905L413.2651339285714,195.78112682846694L416.3263571428571,196.16058285846447L419.3875803571428,196.49837102583857L419.3875803571428,196.85171051590126L419.3875803571428,197.19755455363483L419.3875803571428,197.5394535723349L419.3875803571428,197.8801670480883L425.5100267857142,198.2361698162444L425.5100267857142,198.56311670164197L425.5100267857142,198.88584131781207L425.5100267857142,199.20606953917917L425.5100267857142,199.52154141974958L428.57124999999996,199.80404439370213L428.57124999999996,200.07919296473193L428.57124999999996,200.34904716424975L431.63247321428565,200.57601164391593L431.63247321428565,200.8423929267308L434.69369642857134,201.1784374425767L434.69369642857134,201.5046780236168L434.69369642857134,201.82087212387214L434.69369642857134,202.12033143669308L434.69369642857134,202.41558158428396L437.75491964285715,202.72191685384755L437.75491964285715,203.0132504655069L437.75491964285715,203.30724780124785L440.81614285714284,203.56112105480784L440.81614285714284,203.8047664688182L440.81614285714284,204.06084923809058L440.81614285714284,204.32986646181334L440.81614285714284,204.61130394576847L440.81614285714284,204.88998872798695L443.8773660714286,205.18239252343741L443.8773660714286,205.47498669526803L443.8773660714286,205.79088300735162L446.9385892857143,206.0361953055162L446.9385892857143,206.3190523398104L446.9385892857143,206.6025429329329L449.99981249999996,206.86997720182674L453.0610357142857,207.18035717422657L453.0610357142857,207.49388129964544L453.0610357142857,207.81275020179353L453.0610357142857,208.13418613384204L456.1222589285714,208.43545831186591L456.1222589285714,208.73005777317695L459.1834821428571,208.98161686293128L459.1834821428571,209.1689458811479L459.1834821428571,209.39838708580513L459.1834821428571,209.6647903613889L459.1834821428571,209.94515793022808L462.24470535714283,210.205355407334L462.24470535714283,210.51413381809238L462.24470535714283,210.8177357063333L465.3059285714285,211.10541103969192L465.3059285714285,211.36383368942194L465.3059285714285,211.61622959872443L468.36715178571427,211.83286827625284L468.36715178571427,212.10444051880378L471.42837499999996,212.36346904291412L471.42837499999996,212.63796348590196L474.48959821428565,212.90115018913468L474.48959821428565,213.16876725005815L474.48959821428565,213.45245092397838L477.5508214285714,213.6984341605921L477.5508214285714,213.95963808590412L480.6120446428571,214.21334486444857L480.6120446428571,214.45801847676884L480.6120446428571,214.70079996678174L483.6732678571428,214.97289936911642L483.6732678571428,215.25173899420008L483.6732678571428,215.5232101836528L486.7344910714285,215.79126528586997L486.7344910714285,216.06529767064L486.7344910714285,216.3106865515747L489.7957142857142,216.57463633612946L489.7957142857142,216.84113672281856L489.7957142857142,217.10620186003771L489.7957142857142,217.37317402769168L489.7957142857142,217.62352982551903L492.85693749999996,217.87222106238286L492.85693749999996,218.11966113016243L492.85693749999996,218.36313503245614L495.91816071428565,218.65387848707798L495.91816071428565,218.89568886386613L498.97938392857134,219.13044826544458L498.97938392857134,219.36468826330417L502.04060714285714,219.66621588097578L502.04060714285714,219.95114448657668L502.04060714285714,220.2283859380131L502.04060714285714,220.50699578351797L502.04060714285714,220.78371896930568L505.10183035714283,221.03155076807474L505.10183035714283,221.28272158872744L505.10183035714283,221.54020906220273L505.10183035714283,221.80124161221056L508.1630535714286,222.0630732908401L508.1630535714286,222.313395851989L508.1630535714286,222.554894887658L511.22427678571427,222.77312955028333L511.22427678571427,223.00639977717736L511.22427678571427,223.24202736976153L511.22427678571427,223.47919577383624L514.2855,223.71521997642878L514.2855,223.964289244907L514.2855,224.21359757568894L517.3467232142857,224.45134573194528L517.3467232142857,224.68872331476075L520.4079464285713,224.93692165665064L520.4079464285713,225.16858986391958L520.4079464285713,225.39383451938687L520.4079464285713,225.61579373456476L523.4691696428571,225.87539914311094L523.4691696428571,226.1281525800247L523.4691696428571,226.36317165873376L523.4691696428571,226.5934855499863L523.4691696428571,226.84575049083546L526.5303928571428,227.11081768310726L526.5303928571428,227.32555061363746L526.5303928571428,227.54351313170056L526.5303928571428,227.77364588120204L526.5303928571428,228.00307817852627L526.5303928571428,228.2284478794356L529.5916160714285,228.46071445180493L529.5916160714285,228.67481469970696L532.6528392857142,228.897079142016L532.6528392857142,229.13151496042786L532.6528392857142,229.36529274570464L532.6528392857142,229.59742920793977L535.7140625,229.792896512604L535.7140625,230.04826667834962L535.7140625,230.29681894831015L535.7140625,230.54417286033345L535.7140625,230.78898067249753L538.7752857142857,230.90228165358002L538.7752857142857,231.10290574707483L541.8365089285713,231.31772804436858L544.8977321428571,231.5566580927885L544.8977321428571,231.79423543401336L544.8977321428571,232.0270480918664L544.8977321428571,232.25468767117428L544.8977321428571,232.4838312366612L544.8977321428571,232.7119004586135L547.9589553571428,232.98523940005512L547.9589553571428,233.21793448520168L551.0201785714285,233.4407793651438L551.0201785714285,233.68497341285072L551.0201785714285,233.92890620981876L554.0814017857142,234.1571545934485L554.0814017857142,234.3820378256921L554.0814017857142,234.6110714348046L554.0814017857142,234.84110583011062L554.0814017857142,235.06825694606462L557.142625,235.35717281963275L557.142625,235.5540248923898L557.142625,235.7436395393158L557.142625,235.935864209515L557.142625,236.15157993455892L560.2038482142857,236.40488229935588L560.2038482142857,236.63980673797755L560.2038482142857,236.85310142454722L560.2038482142857,237.07204149814535L563.2650714285713,237.29414673358988L566.3262946428571,237.51520131787095L566.3262946428571,237.7417238660806L566.3262946428571,237.98107242476223L566.3262946428571,238.21700577493203L569.3875178571428,238.40712672205927L569.3875178571428,238.6107087162369L569.3875178571428,238.82543128541454L572.4487410714285,239.0621124117019L572.4487410714285,239.29491298919473L575.5099642857142,239.53800034176575L575.5099642857142,239.77093717217167L575.5099642857142,240.0054428135205L578.5711875,240.306670553968L578.5711875,240.53166065397025L581.6324107142856,240.7031447840232L581.6324107142856,240.94275057526045L581.6324107142856,241.19100480582168L581.6324107142856,241.4370473785718L581.6324107142856,241.66859547359297L584.6936339285713,241.84912489232454L584.6936339285713,242.04794693255002L587.7548571428571,242.29383853755812L587.7548571428571,242.53237832100967L587.7548571428571,242.77441536507877L587.7548571428571,242.98829230265764L587.7548571428571,243.19428372468477L590.8160803571427,243.42339286337437L593.8773035714285,243.67434506085803L593.8773035714285,243.90231425440888L593.8773035714285,244.11336821534329L593.8773035714285,244.32758735559747L593.8773035714285,244.5407015102928L596.9385267857142,244.7587549912413L596.9385267857142,244.97691679388498L596.9385267857142,245.189499501843L596.9385267857142,245.40299531686563L599.9997500000001,245.61105769918106L599.9997500000001,245.8370925577738L599.9997500000001,246.0497063946592L599.9997500000001,246.26279981494724L603.0609732142856,246.4006481478676L603.0609732142856,246.57439061058466L603.0609732142856,246.75793076126578L603.0609732142856,246.94955443597152L603.0609732142856,247.14385585264486L606.1221964285714,247.3004563495261L606.1221964285714,247.49235854663502L606.1221964285714,247.6843169590443L606.1221964285714,247.86948365638364L612.2446428571428,248.0545188916162L612.2446428571428,248.24804682722015L615.3058660714286,248.45998149183652L615.3058660714286,248.6729328874172L615.3058660714286,248.88373999782877L615.3058660714286,249.10245334485253L615.3058660714286,249.32218847392974L615.3058660714286,249.5295634584225L618.3670892857143,249.69289436311072L618.3670892857143,249.85831826913153L618.3670892857143,250.03155932144776L618.3670892857143,250.21722716400504L621.4283125,250.37168720994575L621.4283125,250.5340889704397L621.4283125,250.69114870774575L621.4283125,250.8584180363718L621.4283125,251.03793429448243L624.4895357142857,251.2114483071178L624.4895357142857,251.39520129887347L624.4895357142857,251.58325804824577L627.5507589285714,251.76971580129532L627.5507589285714,251.95805110344224L630.6119821428571,252.17051271389352L633.6732053571428,252.33960135983895L633.6732053571428,252.52098087819016L633.6732053571428,252.69897873827256L633.6732053571428,252.87682522680836L636.7344285714286,253.08136043540333L636.7344285714286,253.26408469727204L636.7344285714286,253.45173936809152L639.7956517857143,253.64546044133482L642.856875,253.86225764797862L642.856875,254.06113489848275L645.9180982142857,254.26289598454352L645.9180982142857,254.45236405301583L645.9180982142857,254.64603769558525L648.9793214285714,254.88245999764877L648.9793214285714,255.1094736900047L652.0405446428571,255.2578310243455L652.0405446428571,255.41193234799715L652.0405446428571,255.5871909466072L652.0405446428571,255.76778281910347L652.0405446428571,255.94939261913578L655.1017678571428,256.1633083129383L655.1017678571428,256.37565361643135L655.1017678571428,256.5954681416785L655.1017678571428,256.80315252680094L655.1017678571428,257.0100225491122L655.1017678571428,257.20437590992145L658.1629910714286,257.3765147138218L658.1629910714286,257.550302494334L658.1629910714286,257.7155883784283L661.2242142857142,257.91790774039185L664.2854375,258.14964257642555L664.2854375,258.3969118545517L664.2854375,258.6457730840033L664.2854375,258.85734093376607L664.2854375,259.06734027729243L664.2854375,259.27384699711L664.2854375,259.48100747177926L664.2854375,259.68590777865285L664.2854375,259.8918371791626L667.3466607142857,260.0637257669784L667.3466607142857,260.2566479850304L670.4078839285713,260.42206143309227L670.4078839285713,260.58917518759455L670.4078839285713,260.76512556370767L670.4078839285713,260.95140269442174L670.4078839285713,261.1410002769205L673.4691071428571,261.29364968112907L673.4691071428571,261.46369553248445L673.4691071428571,261.63526790625855L673.4691071428571,261.815874113908L676.5303303571428,262.00925346057016L676.5303303571428,262.1993355917533L676.5303303571428,262.3871882843297L676.5303303571428,262.5770051874044L679.5915535714284,262.76604892377867L682.6527767857142,262.9980549858413L682.6527767857142,263.19443151552196L682.6527767857142,263.3812186919537L682.6527767857142,263.56957846466406L682.6527767857142,263.7599995483949L685.7139999999999,263.99126788411604L685.7139999999999,264.1839109533386L685.7139999999999,264.371043275514L688.7752232142857,264.5095553639277L688.7752232142857,264.6805489569359L688.7752232142857,264.8677046493319L688.7752232142857,265.0554079234334L688.7752232142857,265.23691638651513L688.7752232142857,265.409682672891L688.7752232142857,265.5763189671829L688.7752232142857,265.75795086632104L688.7752232142857,265.95447997707527L688.7752232142857,266.14803291772563L691.8364464285713,266.3767618442632L691.8364464285713,266.5999151858092L691.8364464285713,266.8243660828466L691.8364464285713,267.0425437942289L694.8976696428571,267.27055350382585L694.8976696428571,267.4968664462507L694.8976696428571,267.7044464806536L694.8976696428571,267.91059662058046L697.9588928571428,268.14734909135063L697.9588928571428,268.3835762015265L697.9588928571428,268.5925262355182L701.0201160714284,268.785177981275L701.0201160714284,268.9948645117895L701.0201160714284,269.2012418115131L704.0813392857142,269.4156277150927L704.0813392857142,269.62906108053664L707.1425624999999,269.8238344546557L707.1425624999999,270.0207384894073L707.1425624999999,270.21385304143627L710.2037857142856,270.4363081661721L710.2037857142856,270.6451838687189L710.2037857142856,270.8634285287251L710.2037857142856,271.08089986647616L710.2037857142856,271.2944345115597L713.2650089285713,271.51503388193646L713.2650089285713,271.7372395973715L713.2650089285713,271.95949022717787L713.2650089285713,272.1812140871561L716.3262321428571,272.3927162982937L716.3262321428571,272.6042297423475L719.3874553571427,272.8161602212403L719.3874553571427,273.02451279178297L719.3874553571427,273.236403121047L719.3874553571427,273.4552294987154L722.4486785714284,273.5801067971585L725.5099017857142,273.8002721811536L725.5099017857142,274.02232228642123L725.5099017857142,274.2400711518456L725.5099017857142,274.4605875186814L725.5099017857142,274.67618534522813L725.5099017857142,274.89028845108L728.5711249999999,275.09726652511387L728.5711249999999,275.28889581122326L728.5711249999999,275.47744063662856L728.5711249999999,275.6673525625548L728.5711249999999,275.85684180955343L728.5711249999999,276.02895861152996L731.6323482142856,276.2324825510495L731.6323482142856,276.43713206544135L734.6935714285713,276.6752952379733L734.6935714285713,276.87701456478015L734.6935714285713,277.074097996864L737.7547946428572,277.25770318470484L737.7547946428572,277.4381926812059L737.7547946428572,277.61771495827577L740.8160178571428,277.7749631118678L743.8772410714286,277.9574873831757L743.8772410714286,278.1467098526689L746.9384642857143,278.31515097304833L746.9384642857143,278.48683847392135L746.9384642857143,278.6601614277301L749.9996874999999,278.8272969999773L753.0609107142857,279.0353295110948L753.0609107142857,279.2073332640629L756.1221339285714,279.3629873993715L756.1221339285714,279.5158660940847L756.1221339285714,279.67043140769835L756.1221339285714,279.8211134452262L756.1221339285714,279.98470989165315L756.1221339285714,280.15211103420603L759.1833571428571,280.33396995057143L759.1833571428571,280.51267043363686L759.1833571428571,280.6929428313845L759.1833571428571,280.8702796445267L762.2445803571428,281.05908353548114L762.2445803571428,281.2331690071163L762.2445803571428,281.39879222760646L765.3058035714286,281.55637878210194L765.3058035714286,281.72033085011685L768.3670267857143,281.86923157473746L768.3670267857143,282.01116728766726L768.3670267857143,282.16817944858036L768.3670267857143,282.3304338964674L768.3670267857143,282.49556789320155L768.3670267857143,282.6576281021303L771.4282499999999,282.8241401672844L774.4894732142857,283.00471177018136L777.5506964285714,283.1559672293016L777.5506964285714,283.32704944325866L777.5506964285714,283.5090040988507L777.5506964285714,283.69250975822814L777.5506964285714,283.86574540053493L777.5506964285714,284.0430728845515L777.5506964285714,284.22222635977135L777.5506964285714,284.3969883591517L780.6119196428571,284.565721747615L780.6119196428571,284.74326403873647L780.6119196428571,284.9200314461441L780.6119196428571,285.0938993370068L780.6119196428571,285.263883801489L780.6119196428571,285.4332883338492L783.6731428571428,285.60639857340675L783.6731428571428,285.77438467643447L783.6731428571428,285.9461379248766L786.7343660714286,286.12033689292923L786.7343660714286,286.2973644700157L786.7343660714286,286.453257228098L789.7955892857142,286.51307585238254L789.7955892857142,286.65140794642355L789.7955892857142,286.7927280331916L789.7955892857142,286.9387790381192L789.7955892857142,287.08682591076786L789.7955892857142,287.24449019985207L789.7955892857142,287.3959936726312L792.8568124999999,287.5418372970769L792.8568124999999,287.68151133977005L792.8568124999999,287.8196834501937L795.9180357142857,287.9894458678803L795.9180357142857,288.1325725676267L795.9180357142857,288.2800484670662L798.9792589285713,288.41228339988913L798.9792589285713,288.55186461553495L798.9792589285713,288.70214044285865L798.9792589285713,288.8550590110791L798.9792589285713,289.0143611134823L802.0404821428571,289.173953717533L802.0404821428571,289.3349282459537L802.0404821428571,289.48539946553205L802.0404821428571,289.63344968148743L802.0404821428571,289.78624839139076L802.0404821428571,289.9390773796476L805.1017053571428,290.08836981995074L805.1017053571428,290.2343884361221L805.1017053571428,290.3814111013817L808.1629285714286,290.47139504484244L808.1629285714286,290.60356495965755L808.1629285714286,290.74729006896507L808.1629285714286,290.89457980510105L808.1629285714286,291.04006936892705L811.2241517857142,291.1995100616917L811.2241517857142,291.35732850845625L811.2241517857142,291.5123741417169L814.2853749999999,291.686538036156L814.2853749999999,291.8570253091282L814.2853749999999,292.02371530266845L814.2853749999999,292.18229983665043L814.2853749999999,292.3443283218018L814.2853749999999,292.50555864469163L814.2853749999999,292.66820365705115L814.2853749999999,292.8296952333363L817.3465982142857,293.01181467322124L817.3465982142857,293.17176705855746L817.3465982142857,293.32850695006533L820.4078214285713,293.4609717727735L820.4078214285713,293.6116363872489L820.4078214285713,293.7667259432354L823.469044642857,293.9303843262293L823.469044642857,294.0832747495005L823.469044642857,294.2321429941762L823.469044642857,294.3822175538171L826.5302678571428,294.53967906291774L829.5914910714284,294.67240403225327L829.5914910714284,294.79187815088665L829.5914910714284,294.93034159753387L829.5914910714284,295.078386770452L832.6527142857142,295.2353728056487L832.6527142857142,295.3950880373809L835.7139374999999,295.5472361802249L835.7139374999999,295.71673354379374L835.7139374999999,295.867102173972L835.7139374999999,296.0197036206277L838.7751607142856,296.1966932145017L838.7751607142856,296.37636775783477L838.7751607142856,296.5377240069309L838.7751607142856,296.6987974201736L841.8363839285713,296.8564327043578L841.8363839285713,296.99719810816595L841.8363839285713,297.1487574162269L841.8363839285713,297.2996545660222L844.897607142857,297.4220780100177L844.897607142857,297.54706327448673L844.897607142857,297.6817807663042L844.897607142857,297.8195682418055L844.897607142857,297.9608990896868L844.897607142857,298.11154341447264L844.897607142857,298.26488007085516L847.9588303571428,298.39651033688864L847.9588303571428,298.5383188451404L847.9588303571428,298.6862368986426L851.0200535714284,298.8297393854565L851.0200535714284,298.9750210495694L851.0200535714284,299.1205538438618L851.0200535714284,299.26291059817015L854.0812767857142,299.430145197875L854.0812767857142,299.588429377293L854.0812767857142,299.75141181630676L854.0812767857142,299.91015101118387L854.0812767857142,300.0781084443938L857.1424999999999,300.21313921663284L857.1424999999999,300.3733193859971L857.1424999999999,300.5237840622071L860.2037232142856,300.6665736207938L860.2037232142856,300.80744709643994L860.2037232142856,300.9509819582792L863.2649464285713,301.1009528734445L863.2649464285713,301.25653926173874L863.2649464285713,301.4111390809064L866.326169642857,301.60700487065145L866.326169642857,301.7536298836164L866.326169642857,301.8980793073397L866.326169642857,302.0425202091929L869.3873928571427,302.17287473883016L869.3873928571427,302.31751709306025L869.3873928571427,302.4593139977269L869.3873928571427,302.60274313315244L869.3873928571427,302.7437058753457L869.3873928571427,302.8861602617481L872.4486160714285,303.04450674304667L872.4486160714285,303.1934565187358L872.4486160714285,303.34755546868047L872.4486160714285,303.4968268194224L872.4486160714285,303.64573706164794L875.5098392857143,303.7976202158473L875.5098392857143,303.9533970921916L878.5710624999999,303.76107112283074L878.5710624999999,303.8817795030003L881.6322857142857,304.03995864162755L881.6322857142857,304.17787377611893L881.6322857142857,304.3228271573248L881.6322857142857,304.4675119108885L881.6322857142857,304.61414722770996L884.6935089285714,304.7883267413806L884.6935089285714,304.96304195951143L884.6935089285714,305.12075644537515L884.6935089285714,305.27546353598245L887.7547321428572,305.4488601783523L887.7547321428572,305.59792324189135L887.7547321428572,305.74395896193937L890.8159553571428,305.90052014707504L890.8159553571428,306.06162453376396L890.8159553571428,306.2168169411504L890.8159553571428,306.3719315559646L893.8771785714285,306.4988241962825L896.9384017857143,306.63354184889744L896.9384017857143,306.7759560890075L896.9384017857143,306.9158973917266L899.9996249999999,307.09507591889854L899.9996249999999,307.2637290489284L899.9996249999999,307.4300942226237L899.9996249999999,307.58294110323726L903.0608482142857,307.7046422478981L906.1220714285714,307.83747649656976L906.1220714285714,307.9771345976335L906.1220714285714,308.11423765737806L906.1220714285714,308.26503978464683L909.183294642857,308.43853376073L909.183294642857,308.58308172923245L912.2445178571428,308.73878266197613L912.2445178571428,308.8890962900554L915.3057410714285,309.03417098683093L918.3669642857142,309.1729302351353L918.3669642857142,309.3151240338255L921.4281874999999,309.4622206398027L921.4281874999999,309.606941112308L921.4281874999999,309.75286279928775L924.4894107142857,309.8932432272736L924.4894107142857,310.0396687514587L924.4894107142857,310.1757337889204L924.4894107142857,310.3156161442707L927.5506339285714,310.48755065949535L927.5506339285714,310.64414720108414L927.5506339285714,310.80116340425417L930.611857142857,310.9418534716762L930.611857142857,311.09771821842503L933.6730803571428,311.2504014326376L933.6730803571428,311.40678232807477L936.7343035714285,311.57882982345717L936.7343035714285,311.7493572077807L936.7343035714285,311.8990484686482L936.7343035714285,312.04958324175755L936.7343035714285,312.20257164579056L936.7343035714285,312.3574823661234L939.7955267857142,312.49598559159557L939.7955267857142,312.6224895374175L939.7955267857142,312.75219589795995L939.7955267857142,312.8840104491266L942.8567499999999,312.9838121534347L942.8567499999999,313.09287676959997L942.8567499999999,313.21414124237793L942.8567499999999,313.3432975650395L942.8567499999999,313.47248387196805L945.9179732142857,313.6338730234367L945.9179732142857,313.7862586026895L945.9179732142857,313.933798690757L945.9179732142857,314.0692948991347L948.9791964285713,314.18584139228045L948.9791964285713,314.3210761093416L952.040419642857,314.43307618595225L952.040419642857,314.5671088183196L955.1016428571428,314.6944962280576L958.1628660714284,314.8485927053861L958.1628660714284,314.99995806440876L958.1628660714284,315.145120860819L961.2240892857142,315.29801268786053L961.2240892857142,315.45062169245034L961.2240892857142,315.60001751245386L964.2853124999999,315.66458438065905L964.2853124999999,315.80359012584296L967.3465357142856,315.9647939713645L967.3465357142856,316.11371910777063L970.4077589285713,316.2786101149272L970.4077589285713,316.4374650119368L970.4077589285713,316.600888215882L970.4077589285713,316.763132212306L973.468982142857,316.91683444598624L973.468982142857,317.0540325355176L973.468982142857,317.19338023083156L973.468982142857,317.3381160113961L973.468982142857,317.4810612568512L976.5302053571428,317.6226132389322L976.5302053571428,317.7601670814282L976.5302053571428,317.903406604483L976.5302053571428,318.0472353874722L979.5914285714284,318.20664223366896L979.5914285714284,318.35226556637787L982.6526517857142,318.4460365046315L982.6526517857142,318.58532774214217L985.7138749999999,318.7225101147717L985.7138749999999,318.86222954663435L985.7138749999999,319.00796731903904L985.7138749999999,319.15321713448355L985.7138749999999,319.29425783374415L988.7750982142855,319.42196743977274L988.7750982142855,319.5500737752434L988.7750982142855,319.6746013205657L988.7750982142855,319.7995217356843L991.8363214285713,319.94969085369684L991.8363214285713,320.0980557905992L991.8363214285713,320.24126044699153L991.8363214285713,320.37690538481917L991.8363214285713,320.51840692608744L991.8363214285713,320.6590266001282L994.897544642857,320.82223652268146L997.9587678571427,320.93938341549415L997.9587678571427,321.0853582869793L997.9587678571427,321.23369812427234L1001.0199910714284,321.33110401271784L1001.0199910714284,321.46613492447545L1004.0812142857143,321.6225791703021L1004.0812142857143,321.7673467199826L1007.1424374999998,321.91703294040104L1007.1424374999998,322.06719401444263L1007.1424374999998,322.20329073616097L1010.2036607142857,322.32127136063633L1010.2036607142857,322.4529126766311L1010.2036607142857,322.5880925315174L1010.2036607142857,322.7259949526159L1010.2036607142857,322.8639105845752L1013.2648839285714,323.0024055547667L1013.2648839285714,323.14285714285717L1013.2648839285714,323.28823196221407L1013.2648839285714,323.42798782177863L1013.2648839285714,323.56477978740713L1016.3261071428572,323.7148871919654L1016.3261071428572,323.85887192621993L1016.3261071428572,324.00241463142345L1019.3873303571428,324.1459505940602L1019.3873303571428,324.2875451917027L1019.3873303571428,324.425233169941L1022.4485535714285,324.5683076924526L1025.5097767857142,324.7387931499508L1025.5097767857142,324.89878571851955L1025.5097767857142,325.05105783839167L1025.5097767857142,325.2048745604253L1025.5097767857142,325.35630692415054L1028.571,325.4905894880863L1028.571,325.6286415150491L1028.571,325.76963920099524L1028.571,325.91121014114884L1031.6322232142857,326.0342513581932L1031.6322232142857,326.1596487300439L1031.6322232142857,326.2946457202431L1031.6322232142857,326.4357234099246L1031.6322232142857,326.5769246190002L1034.6934464285714,326.73253703445846L1034.6934464285714,326.8924813445305L1034.6934464285714,327.0411202754339L1034.6934464285714,327.1713819519108L1037.754669642857,327.32951252086696L1037.754669642857,327.48523520897675L1037.754669642857,327.6334445163161L1040.8158928571427,327.75888246375416L1040.8158928571427,327.86542133079627L1040.8158928571427,327.9645537770398L1040.8158928571427,328.0821272191986L1040.8158928571427,328.2103578396035L1040.8158928571427,328.3400235792797L1040.8158928571427,328.4666987304657L1040.8158928571427,328.5942866985543L1040.8158928571427,328.7215824176006L1043.8771160714284,328.89144096779347L1043.8771160714284,329.07418575113735L1043.8771160714284,329.25651677055333L1043.8771160714284,329.43851657197945L1046.9383392857142,329.61591410352787L1046.9383392857142,329.7715831859492L1046.9383392857142,329.94846777974294L1046.9383392857142,330.12560021803245L1046.9383392857142,330.30325964844565L1046.9383392857142,330.4822748462883" style="fill: none;" fill="none"></path></g></g></g></g><g opacity="0.2"><g><g><g><path stroke="rgb(255, 112, 67)" stroke-width="2px" d="M165.30605357142855,-4.715714585734282L168.36727678571427,19.751950333047578L168.36727678571427,18.886817014979467L171.42849999999999,45.72854916663528L171.42849999999999,50.39889092869054L171.42849999999999,48.022936889335234L171.42849999999999,47.42075237684459L174.4897232142857,42.34877615097618L174.4897232142857,54.95172151650559L174.4897232142857,66.62640446064145L174.4897232142857,64.63963428773943L177.5509464285714,63.419593966627424L180.6121696428571,89.75256308114004L180.6121696428571,89.42201447302011L180.6121696428571,87.70300389893283L183.67339285714283,91.05846922277023L183.67339285714283,98.31183160866517L186.73461607142858,111.42661883628524L189.79583928571427,117.28800058132555L189.79583928571427,129.5910925922883L189.79583928571427,124.71551104580135L189.79583928571427,123.27532808545817L192.85706249999998,114.87529968713444L192.85706249999998,131.22519997853686L192.85706249999998,128.90626790081856L192.85706249999998,126.96953466196449L192.85706249999998,125.70687056832959L192.85706249999998,125.07471862952849L195.9182857142857,131.955077443742L198.97950892857142,120.12219372569531L198.97950892857142,134.82406466425698L198.97950892857142,144.85570070566445L198.97950892857142,143.13524337485558L202.04073214285714,79.64391884787517L202.04073214285714,119.57537836647451L202.04073214285714,128.07461847773078L202.04073214285714,137.5662482046133L202.04073214285714,139.79413206834602L202.04073214285714,143.63704516397598L202.04073214285714,146.4255668014352L202.04073214285714,149.53107897600003L205.10195535714283,157.33221965844444L208.16317857142855,161.3663759585642L211.22440178571426,175.08457834756052L211.22440178571426,173.2210283065971L211.22440178571426,165.3271827534085L214.28562499999998,165.5348865244315L214.28562499999998,164.61976166314489L214.28562499999998,179.9516031523521L214.28562499999998,180.45431317119355L214.28562499999998,174.39077327000697L214.28562499999998,164.7181145977687L214.28562499999998,166.60480291457566L214.28562499999998,165.61021649083048L217.34684821428567,158.82757467017808L217.34684821428567,160.20278563642276L220.40807142857142,140.36371124308036L220.40807142857142,166.43005542535366L220.40807142857142,173.14594063295044L220.40807142857142,179.0647599414322L220.40807142857142,178.1428752858774L220.40807142857142,180.83066411805754L223.46929464285714,169.08847584205967L223.46929464285714,168.03100354859097L223.46929464285714,167.90505129695464L226.53051785714285,173.99484656078374L226.53051785714285,166.80056456971445L226.53051785714285,163.45052226129664L229.59174107142854,181.73523066857612L229.59174107142854,187.56326022862257L232.65296428571426,182.35876591809082L232.65296428571426,184.04824817944092L232.65296428571426,181.67129525602323L232.65296428571426,183.48469097443146L235.71418749999998,189.35329921915692L235.71418749999998,190.37155307893747L238.7754107142857,214.84172607899092L238.7754107142857,201.03254203320034L238.7754107142857,187.80837524116941L238.7754107142857,192.45315824986233L241.8366339285714,196.52376561474443L241.8366339285714,194.2189080132077L241.8366339285714,192.38047913266536L244.8978571428571,217.16553656030172L244.8978571428571,212.07576787298206L244.8978571428571,208.32306664086516L244.8978571428571,209.94782646628224L247.95908035714282,206.10809229477985L247.95908035714282,210.53057652213133L247.95908035714282,210.64665789144973L251.02030357142857,182.72697226689255L251.02030357142857,186.64770371264905L251.02030357142857,195.4318455930535L254.0815267857143,221.0611890856857L254.0815267857143,211.2185382170242L254.0815267857143,210.67490598709406L254.0815267857143,201.19536029746882L257.14275,193.48474847945937L257.14275,197.60880728804966L257.14275,201.96277899918684L257.14275,198.96165241693905L257.14275,204.38076335478277L257.14275,203.95317107416184L260.20397321428567,174.1671388445175L260.20397321428567,201.98395560610223L260.20397321428567,194.5002973463177L260.20397321428567,209.6632440298075L263.2651964285714,220.78267147764646L263.2651964285714,211.45775423722793L266.3264196428571,218.99161420585784L266.3264196428571,231.31058070529906L266.3264196428571,228.34806300907616L266.3264196428571,227.27554940645675L266.3264196428571,223.00007675737442L269.38764285714285,225.0415394211644L269.38764285714285,223.0397578487232L272.44886607142854,213.93314403785735L272.44886607142854,220.46523690606347L272.44886607142854,209.39148651412717L272.44886607142854,209.0732598776287L275.51008928571423,230.0203851286662L275.51008928571423,231.94117537643314L275.51008928571423,216.08425496357563L275.51008928571423,216.67254746491435L278.5713125,227.40347000871958L278.5713125,233.71154485146744L278.5713125,234.60517907833605L278.5713125,233.8741010504669L278.5713125,230.664620398052L278.5713125,230.1838339911392L281.63253571428567,224.77832255865493L284.6937589285714,208.72743579132387L284.6937589285714,224.29264911394796L284.6937589285714,230.21108298076632L284.6937589285714,222.31688060242436L284.6937589285714,230.62706725349457L284.6937589285714,232.4805381023486L287.7549821428571,224.02693317187936L287.7549821428571,229.75500173880693L287.7549821428571,231.09507288761742L287.7549821428571,229.12000781605215L287.7549821428571,228.2432969307818L287.7549821428571,227.9900221599238L287.7549821428571,226.6739637392783L290.8162053571428,221.126759601402L290.8162053571428,225.50204308442244L290.8162053571428,237.0116594138543L290.8162053571428,225.26166588064316L293.87742857142854,224.1364937360912L293.87742857142854,221.07758490983394L293.87742857142854,223.66867980700619L293.87742857142854,226.95608790128105L296.9386517857142,217.26231432198614L296.9386517857142,228.71340211619858L296.9386517857142,227.30248808180667L296.9386517857142,228.01364144213312L299.99987500000003,235.87166450958946L299.99987500000003,236.6438844783225L303.0610982142857,248.92087950159237L303.0610982142857,255.57566178576775L303.0610982142857,251.68205012070305L303.0610982142857,240.52524591765402L303.0610982142857,241.0237971026256L303.0610982142857,243.01411495376323L303.0610982142857,244.4816606328043L306.1223214285714,276.86523525944824L306.1223214285714,245.54015211029866L306.1223214285714,251.50318468497727L306.1223214285714,247.55036996175406L306.1223214285714,244.16720186703415L309.18354464285716,231.56056817967198L309.18354464285716,227.26209123821678L312.24476785714285,225.38851027155917L312.24476785714285,240.12714148262586L312.24476785714285,244.37318194998565L315.30599107142854,272.7821740042052L315.30599107142854,255.6704028978567L315.30599107142854,256.51722049790476L315.30599107142854,258.24676731431987L318.3672142857143,246.11120988031269L318.3672142857143,249.52597330181536L321.4284375,248.80300839185495L321.4284375,249.68117210309268L327.5508839285714,264.95006996857586L327.5508839285714,263.90401752275443L327.5508839285714,264.67829463167743L327.5508839285714,262.9133500164627L330.6121071428571,240.84918133675825L333.67333035714285,220.0143696769715L333.67333035714285,231.07454975490094L336.73455357142853,211.78547804058653L336.73455357142853,252.22691332919152L336.73455357142853,251.8535786423422L336.73455357142853,249.13100934403795L336.73455357142853,247.57969972709967L339.7957767857142,264.4736581392199L339.7957767857142,244.89073682780173L339.7957767857142,267.8006995494177L342.85699999999997,270.6051065703371L342.85699999999997,274.4209642010803L342.85699999999997,266.26608298100916L345.91822321428566,250.5069686980607L345.91822321428566,247.49543276862266L345.91822321428566,248.29895923888589L348.9794464285714,270.6616177121008L348.9794464285714,268.6117521449138L348.9794464285714,267.0281755544098L348.9794464285714,265.5696236836488L348.9794464285714,264.0492546587596L348.9794464285714,264.7609730140713L352.0406696428571,277.1927625714251L352.0406696428571,262.129219762671L355.1018928571428,265.534062833951L358.16311607142853,249.5111987794438L358.16311607142853,250.3697485197897L358.16311607142853,250.81505118079767L361.2243392857142,248.60420003215694L361.2243392857142,260.278626482429L361.2243392857142,267.4141246747933L364.28556249999997,294.0594272193928L364.28556249999997,275.2096170137089L364.28556249999997,272.9736861234795L367.34678571428566,265.3089750428762L367.34678571428566,266.94470737994317L370.4080089285714,272.78625229397L370.4080089285714,272.1720666631898L370.4080089285714,273.54909846962164L370.4080089285714,274.4783871404743L373.46923214285715,291.8609649307931L373.46923214285715,264.7845872618306L373.46923214285715,270.7423539642714L373.46923214285715,272.6437477319156L379.59167857142853,255.12893892422045L379.59167857142853,274.10132070073166L379.59167857142853,278.83718211366613L379.59167857142853,275.4319056444558L382.6529017857143,284.1298591410582L382.6529017857143,285.8057947475808L382.6529017857143,287.75366901108424L382.6529017857143,282.0715051505541L382.6529017857143,280.05174046848873L382.6529017857143,279.44788176416745L385.71412499999997,266.5952308845694L385.71412499999997,280.2407682105106L385.71412499999997,286.318211422097L388.7753482142857,304.67180521900013L391.8365714285714,319.79725633285085L391.8365714285714,286.8101295019311L391.8365714285714,269.8757547526877L394.8977946428571,270.60914779096834L394.8977946428571,288.80109877441816L394.8977946428571,290.9010637292852L397.95901785714284,268.0840566843068L397.95901785714284,267.2310328171664L401.02024107142853,318.5307385514704L401.02024107142853,316.34019871288723L401.02024107142853,318.2200919120416L401.02024107142853,319.4502782048811L407.14268749999997,233.39026287604514L407.14268749999997,285.67248779988495L407.14268749999997,287.0910853431266L407.14268749999997,286.7280898017966L407.14268749999997,287.4762692427946L407.14268749999997,286.9743451646613L407.14268749999997,290.67267434669026L407.14268749999997,291.1472906370031L410.20391071428566,298.5226320951796L410.20391071428566,292.64758742230543L410.20391071428566,300.1204673895414L410.20391071428566,300.8203486297471L410.20391071428566,301.5636180624489L410.20391071428566,302.21702131972546L413.2651339285714,296.5166798100357L413.2651339285714,299.659592550737L413.2651339285714,300.2347018748126L413.2651339285714,295.2826336947119L416.3263571428571,315.8810576361441L419.3875803571428,300.1067738177205L419.3875803571428,306.93578761129055L419.3875803571428,304.7369693845884L419.3875803571428,303.93271268778494L419.3875803571428,304.20668211274045L425.5100267857142,311.0841512031196L425.5100267857142,300.2804109980466L425.5100267857142,299.33616620776735L425.5100267857142,299.05407305013046L425.5100267857142,297.8882966181874L428.57124999999996,286.0683461155692L428.57124999999996,283.94202316061046L428.57124999999996,282.5674520585813L431.63247321428565,267.8964542853867L431.63247321428565,282.35536908860394L434.69369642857134,309.97719833975094L434.69369642857134,306.6868171151781L434.69369642857134,303.32086531389695L434.69369642857134,297.34141509283296L434.69369642857134,296.31880485915644L437.75491964285715,301.3293581025797L437.75491964285715,296.02676907075374L437.75491964285715,297.6847802058466L440.81614285714284,282.89017281302347L440.81614285714284,279.6154711058767L440.81614285714284,284.7371577911881L440.81614285714284,290.19025259463655L440.81614285714284,295.59614322778174L440.81614285714284,295.0902580287296L443.8773660714286,301.1641703752973L443.8773660714286,301.8532774282254L443.8773660714286,312.18665910636355L446.9385892857143,284.44188025174986L446.9385892857143,299.68695633436346L446.9385892857143,300.5319133889381L449.99981249999996,294.6434652605926L453.0610357142857,312.9952133778325L453.0610357142857,315.01892506546466L453.0610357142857,318.0329060299144L453.0610357142857,319.8567814265586L456.1222589285714,311.7114735074904L456.1222589285714,309.4826483080907L459.1834821428571,292.33350174392615L459.1834821428571,268.4797068278777L459.1834821428571,284.58304544977653L459.1834821428571,299.81922718972055L459.1834821428571,306.2177783203987L462.24470535714283,298.35937684991035L462.24470535714283,319.82701702211324L462.24470535714283,318.1560408021776L465.3059285714285,311.7450439918595L465.3059285714285,299.8602607440729L465.3059285714285,297.88379252107694L468.36715178571427,284.01458497384755L468.36715178571427,306.98279974572523L471.42837499999996,302.1847795558248L471.42837499999996,309.35914261436466L474.48959821428565,305.0305398904631L474.48959821428565,307.4816204782823L474.48959821428565,315.1259142677811L477.5508214285714,299.33160754179244L477.5508214285714,306.33027804051005L480.6120446428571,303.62659273888534L480.6120446428571,300.28496059766604L480.6120446428571,299.97437059933975L483.6732678571428,313.25568099970883L483.6732678571428,316.86879083676735L483.6732678571428,314.10176433386505L486.7344910714285,313.1205887281299L486.7344910714285,316.38420575384026L486.7344910714285,304.17882238968195L489.7957142857142,312.8988123281589L489.7957142857142,314.5963076672738L489.7957142857142,314.48955579564733L489.7957142857142,315.9054611863433L489.7957142857142,308.9322205488897L492.85693749999996,308.6953527025206L492.85693749999996,308.6385495746461L492.85693749999996,307.3685763281966L495.91816071428565,329.9201298719523L495.91816071428565,307.6512732112719L498.97938392857134,305.0025559536244L498.97938392857134,305.2404546341596L502.04060714285714,337.6202178946537L502.04060714285714,329.9563647440074L502.04060714285714,326.78884951650906L502.04060714285714,328.03334923436347L502.04060714285714,327.68957250185326L505.10183035714283,314.4992572220469L505.10183035714283,316.5554150194591L505.10183035714283,320.0454052534908L505.10183035714283,322.265408641344L508.1630535714286,323.1843932093421L508.1630535714286,318.215172200268L508.1630535714286,314.5720377365493L511.22427678571427,304.41587246110254L511.22427678571427,311.68750973130585L511.22427678571427,313.2460300402709L511.22427678571427,314.43619777796397L514.2855,314.37315500733064L514.2855,321.05555678380443L514.2855,321.6747193477417L517.3467232142857,316.6288259865331L517.3467232142857,316.9276038130484L520.4079464285713,322.62153717893557L520.4079464285713,315.1696977369078L520.4079464285713,312.6002179645174L520.4079464285713,311.5053808874432L523.4691696428571,330.2619654776326L523.4691696428571,327.341163799256L523.4691696428571,319.1186335827037L523.4691696428571,317.3151066809375L523.4691696428571,328.59369574662685L526.5303928571428,335.6717613744647L526.5303928571428,311.3042453175173L526.5303928571428,313.25084827968453L526.5303928571428,319.5394415440667L526.5303928571428,319.65344318379346L526.5303928571428,318.12648794157246L529.5916160714285,321.95485846527384L529.5916160714285,313.57925009846485L532.6528392857142,317.9393755026709L532.6528392857142,324.3949954792857L532.6528392857142,324.53157933833984L532.6528392857142,324.1725885771166L535.7140625,306.87469689399757L535.7140625,337.0702699116125L535.7140625,333.9916703913223L535.7140625,333.8653511252396L535.7140625,333.0301584154236L538.7752857142857,272.945141403407L538.7752857142857,311.7114735074904L541.8365089285713,319.0197251853776L544.8977321428571,331.70722821081137L544.8977321428571,331.4778981224592L544.8977321428571,329.4702828936097L544.8977321428571,327.25925473116115L544.8977321428571,328.4856422391452L544.8977321428571,328.38277161561984L547.9589553571428,353.55754208478L547.9589553571428,331.7489426472434L551.0201785714285,327.0750659556925L551.0201785714285,338.8206217848491L551.0201785714285,339.1700811422662L554.0814017857142,331.25919629360374L554.0814017857142,329.94083043144997L554.0814017857142,332.5744109248787L554.0814017857142,333.56034643737104L554.0814017857142,332.4802227049535L557.142625,368.3092393634044L557.142625,317.7868417560798L557.142625,314.5623333484012L557.142625,316.2179979146935L557.142625,328.6039883807848L560.2038482142857,349.66894705849563L560.2038482142857,339.83818577320585L560.2038482142857,328.6451787033911L560.2038482142857,332.05685111890307L563.2650714285713,334.1865431503205L566.3262946428571,334.05484728242493L566.3262946428571,337.4652461239383L566.3262946428571,345.0638507491601L566.3262946428571,343.6123326554186L569.3875178571428,319.5245860550283L569.3875178571428,326.86036380812385L569.3875178571428,333.198020200912L572.4487410714285,345.8206108539708L572.4487410714285,344.0842127452866L575.5099642857142,350.46303375185465L575.5099642857142,345.0969550416802L575.5099642857142,346.45770774973806L578.5711875,388.7498712524041L578.5711875,342.03340283051915L581.6324107142856,314.0049149383187L581.6324107142856,351.29374987277447L581.6324107142856,356.9186797947246L581.6324107142856,356.09126811129596L581.6324107142856,348.02719902269735L584.6936339285713,320.5126291134551L584.6936339285713,330.5316304796412L587.7548571428571,357.85950308318223L587.7548571428571,353.9292997896335L587.7548571428571,356.50750339633305L587.7548571428571,340.53521073052707L587.7548571428571,336.5269156736236L590.8160803571427,350.1642296971553L593.8773035714285,363.8760267866147L593.8773035714285,350.4179135934084L593.8773035714285,341.06068161375595L593.8773035714285,343.2781977491866L593.8773035714285,343.05934094031215L596.9385267857142,346.3301454997387L596.9385267857142,346.81855037663695L596.9385267857142,344.0018276814461L596.9385267857142,344.94255145891117L599.9997500000001,342.21862418420494L599.9997500000001,353.1863631198597L599.9997500000001,345.6768112118932L599.9997500000001,346.36896228760116L603.0609732142856,306.28808791699026L603.0609732142856,325.0381197136001L603.0609732142856,330.6821591096279L603.0609732142856,335.5180504729323L603.0609732142856,337.3904797261351L606.1221964285714,317.2807427655483L606.1221964285714,336.72918928666473L606.1221964285714,337.12361630782755L606.1221964285714,333.6602269048223L612.2446428571428,333.93376509995994L612.2446428571428,339.094778313486L615.3058660714286,350.26567086824434L615.3058660714286,351.2880981351726L615.3058660714286,350.4066348878102L615.3058660714286,355.62962364193896L615.3058660714286,356.68694342880417L615.3058660714286,349.5733705006284L618.3670892857143,324.8252431773331L618.3670892857143,326.26329868974136L618.3670892857143,330.87954801531777L618.3670892857143,338.23574758487007L621.4283125,321.255111979575L621.4283125,325.8355450747142L621.4283125,323.22464274508854L621.4283125,329.10894938016344L621.4283125,336.32479767118167L624.4895357142857,333.23999629902056L624.4895357142857,339.4338686212517L624.4895357142857,342.29493650904107L627.5507589285714,341.706916997957L627.5507589285714,343.1632655388808L630.6119821428571,358.25552651561503L633.6732053571428,332.7314636175246L633.6732053571428,340.12431766630596L633.6732053571428,338.4877580833313L633.6732053571428,338.7293116182625L636.7344285714286,355.1631269333915L636.7344285714286,342.28401932818866L636.7344285714286,345.56625128718355L639.7956517857143,349.59584974366686L642.856875,364.5273945252227L642.856875,353.53468622926135L645.9180982142857,355.7161268128155L645.9180982142857,348.48553003590536L645.9180982142857,351.42399627027226L648.9793214285714,379.8307158964188L648.9793214285714,373.8261235512173L652.0405446428571,325.9678594047701L652.0405446428571,329.45478021728303L652.0405446428571,342.0116253578035L652.0405446428571,345.5386151973972L652.0405446428571,346.49098961541944L655.1017678571428,367.3566327328901L655.1017678571428,366.7276833374072L655.1017678571428,372.14586954957014L655.1017678571428,364.4735421277836L655.1017678571428,364.3359884288811L655.1017678571428,356.63483290889934L658.1629910714286,343.2453450005748L658.1629910714286,344.5570121927556L658.1629910714286,339.7734418643046L661.2242142857142,363.19071425785535L664.2854375,383.72267538421346L664.2854375,397.27997478627316L664.2854375,371.0425061626371L664.2854375,370.3853652556648L664.2854375,368.4308674025017L664.2854375,369.26568544449685L664.2854375,368.1390715195731L664.2854375,369.2229565213542L667.3466607142857,347.6366436022332L667.3466607142857,361.31769426817334L670.4078839285713,344.30950133963023L670.4078839285713,345.6491623050039L670.4078839285713,351.4409784338034L670.4078839285713,358.35463089300146L670.4078839285713,360.86351310257334L673.4691071428571,338.1446451216165L673.4691071428571,349.02322319612784L673.4691071428571,350.28821547962383L673.4691071428571,356.34555063544565L676.5303303571428,365.0605828462712L676.5303303571428,363.22641594165356L676.5303303571428,362.1042405971873L676.5303303571428,363.7566996413229L679.5915535714284,363.59570000266217L682.6527767857142,394.4477893090881L682.6527767857142,369.2901002122684L682.6527767857142,363.1966730345985L682.6527767857142,364.59322866229405L682.6527767857142,366.32940430467954L685.7139999999999,396.0132715419288L685.7139999999999,368.58907122545895L685.7139999999999,365.21656540715L688.7752232142857,334.88307566949754L688.7752232142857,355.21491675695677L688.7752232142857,366.20886124736387L688.7752232142857,366.927072617924L688.7752232142857,363.1014745656887L688.7752232142857,357.6559243821589L688.7752232142857,353.9922713313048L688.7752232142857,364.16264870554517L688.7752232142857,374.74252553887044L688.7752232142857,373.0248107969721L691.8364464285713,399.3484850891859L719.3874553571427,405.5928509807333L722.4486785714284,339.96771026882067L725.5099017857142,407.43400530705173L728.5711249999999,387.34312442590533L728.5711249999999,374.96123572749144L731.6323482142856,398.8504059987842L737.7547946428572,383.0620347297225L740.8160178571428,367.4232528302658L743.8772410714286,385.9315379437185L743.8772410714286,391.34730746094993L746.9384642857143,376.2400164745971L746.9384642857143,378.89458607699686L746.9384642857143,380.39929059902676L749.9996874999999,376.20858644567494L753.0609107142857,408.0293492741604L753.0609107142857,380.39288601501335L756.1221339285714,368.9728667282107L756.1221339285714,367.30820000318306L756.1221339285714,368.7534793705924L756.1221339285714,366.31734725613944L756.1221339285714,375.7189034071448L756.1221339285714,378.77386393524114L762.2445803571428,379.6266272227121L765.3058035714286,374.07512175906163L765.3058035714286,378.97722366147764L768.3670267857143,368.4551968314737L768.3670267857143,363.86409316277366L768.3670267857143,374.7487615127309L768.3670267857143,378.8437522381247L774.4894732142857,393.9327568458127L777.5506964285714,372.2941953913871L777.5506964285714,387.21145866448524L786.7343660714286,381.1359542375582L789.7955892857142,318.58502090277545L789.7955892857142,368.7778417429671L789.7955892857142,371.1470718110658L789.7955892857142,374.81124194315817L789.7955892857142,376.5230170695901L789.7955892857142,383.956265608839L789.7955892857142,379.60113079201363L792.8568124999999,375.68126272918323L792.8568124999999,371.4487431929693L792.8568124999999,370.60626001732373L795.9180357142857,394.6921323830095L795.9180357142857,374.6988038432189L795.9180357142857,378.14578935420064L798.9792589285713,367.344523628096L798.9792589285713,372.8388537787613L798.9792589285713,380.9756253806858L805.1017053571428,381.37988450065063L808.1629285714286,341.99530167139574L808.1629285714286,370.83964690854066L808.1629285714286,379.5756370874816L817.3465982142857,393.9395154868214L820.4078214285713,375.51828400728573L820.4078214285713,389.6325017283872L829.5914910714284,377.63314134320075L829.5914910714284,368.1208574439878L829.5914910714284,382.40967833588365L841.8363839285713,396.0610821856596L844.897607142857,374.21843074474674L844.897607142857,376.32801636915787L844.897607142857,383.9368022990617L875.5098392857143,411.6475749466856L878.5710624999999,215.3757382054905L878.5710624999999,382.8874618345696L961.2240892857142,425.9205014337358L964.2853124999999,357.2841106673315L964.2853124999999,416.7326612376847" style="fill: none;" fill="none"></path></g></g></g></g></g></g><g transform="translate(41, 377)" clip-path="url(#clip_1)"><clipPath id="clip_1"><rect width="1071" height="23"></rect></clipPath><g><g><line x1="0" y1="0" x2="0" y2="5" style="visibility: inherit;" fill="rgb(0, 0, 0)" stroke="rgb(204, 204, 204)" stroke-width="1px"></line><line x1="153.0611607142857" y1="0" x2="153.0611607142857" y2="5" style="visibility: inherit;" fill="rgb(0, 0, 0)" stroke="rgb(204, 204, 204)" stroke-width="1px"></line><line x1="306.1223214285714" y1="0" x2="306.1223214285714" y2="5" style="visibility: inherit;" fill="rgb(0, 0, 0)" stroke="rgb(204, 204, 204)" stroke-width="1px"></line><line x1="459.1834821428571" y1="0" x2="459.1834821428571" y2="5" style="visibility: inherit;" fill="rgb(0, 0, 0)" stroke="rgb(204, 204, 204)" stroke-width="1px"></line><line x1="612.2446428571428" y1="0" x2="612.2446428571428" y2="5" style="visibility: inherit;" fill="rgb(0, 0, 0)" stroke="rgb(204, 204, 204)" stroke-width="1px"></line><line x1="765.3058035714286" y1="0" x2="765.3058035714286" y2="5" style="visibility: inherit;" fill="rgb(0, 0, 0)" stroke="rgb(204, 204, 204)" stroke-width="1px"></line><line x1="918.3669642857142" y1="0" x2="918.3669642857142" y2="5" style="visibility: inherit;" fill="rgb(0, 0, 0)" stroke="rgb(204, 204, 204)" stroke-width="1px"></line><line x1="1071.428125" y1="0" x2="1071.428125" y2="5" style="visibility: inherit;" fill="rgb(0, 0, 0)" stroke="rgb(204, 204, 204)" stroke-width="1px"></line></g><g transform="translate(0, 8)"><text x="0" y="0" dx="0em" dy="0.95em" style="text-anchor: middle; visibility: hidden; font-family: Roboto, sans-serif; font-size: 12px; font-weight: 200;" fill="rgb(33, 33, 33)" stroke="none" stroke-width="1px">-50</text><text x="153.0611607142857" y="0" dx="0em" dy="0.95em" style="text-anchor: middle; visibility: inherit; font-family: Roboto, sans-serif; font-size: 12px; font-weight: 200;" fill="rgb(33, 33, 33)" stroke="none" stroke-width="1px">0</text><text x="306.1223214285714" y="0" dx="0em" dy="0.95em" style="text-anchor: middle; visibility: inherit; font-family: Roboto, sans-serif; font-size: 12px; font-weight: 200;" fill="rgb(33, 33, 33)" stroke="none" stroke-width="1px">50</text><text x="459.1834821428571" y="0" dx="0em" dy="0.95em" style="text-anchor: middle; visibility: inherit; font-family: Roboto, sans-serif; font-size: 12px; font-weight: 200;" fill="rgb(33, 33, 33)" stroke="none" stroke-width="1px">100</text><text x="612.2446428571428" y="0" dx="0em" dy="0.95em" style="text-anchor: middle; visibility: inherit; font-family: Roboto, sans-serif; font-size: 12px; font-weight: 200;" fill="rgb(33, 33, 33)" stroke="none" stroke-width="1px">150</text><text x="765.3058035714286" y="0" dx="0em" dy="0.95em" style="text-anchor: middle; visibility: inherit; font-family: Roboto, sans-serif; font-size: 12px; font-weight: 200;" fill="rgb(33, 33, 33)" stroke="none" stroke-width="1px">200</text><text x="918.3669642857142" y="0" dx="0em" dy="0.95em" style="text-anchor: middle; visibility: inherit; font-family: Roboto, sans-serif; font-size: 12px; font-weight: 200;" fill="rgb(33, 33, 33)" stroke="none" stroke-width="1px">250</text><text x="1071.428125" y="0" dx="0em" dy="0.95em" style="text-anchor: middle; visibility: hidden; font-family: Roboto, sans-serif; font-size: 12px; font-weight: 200;" fill="rgb(33, 33, 33)" stroke="none" stroke-width="1px">300</text></g><line x1="0" y1="0" x2="1071.428125" y2="0" fill="rgb(0, 0, 0)" stroke="rgb(204, 204, 204)" stroke-width="1px"></line></g></g></g></g></svg>