<svg viewBox="0 0 1112.5999755859375 400" xmlns="http://www.w3.org/2000/svg"><g><g><g><g><g><line x1="41.171875" y1="360.9076520531763" x2="36.171875" y2="360.9076520531763" style="visibility: inherit;" fill="rgb(0, 0, 0)" stroke="rgb(204, 204, 204)" stroke-width="1px"></line><line x1="41.171875" y1="280.7600875066548" x2="36.171875" y2="280.7600875066548" style="visibility: inherit;" fill="rgb(0, 0, 0)" stroke="rgb(204, 204, 204)" stroke-width="1px"></line><line x1="41.171875" y1="215.27475909225822" x2="36.171875" y2="215.27475909225822" style="visibility: inherit;" fill="rgb(0, 0, 0)" stroke="rgb(204, 204, 204)" stroke-width="1px"></line><line x1="41.171875" y1="159.90770282475046" x2="36.171875" y2="159.90770282475046" style="visibility: inherit;" fill="rgb(0, 0, 0)" stroke="rgb(204, 204, 204)" stroke-width="1px"></line><line x1="41.171875" y1="111.94657714430909" x2="36.171875" y2="111.94657714430909" style="visibility: inherit;" fill="rgb(0, 0, 0)" stroke="rgb(204, 204, 204)" stroke-width="1px"></line><line x1="41.171875" y1="69.64186613134021" x2="36.171875" y2="69.64186613134021" style="visibility: inherit;" fill="rgb(0, 0, 0)" stroke="rgb(204, 204, 204)" stroke-width="1px"></line><line x1="41.171875" y1="31.79901259778755" x2="36.171875" y2="31.79901259778755" style="visibility: inherit;" fill="rgb(0, 0, 0)" stroke="rgb(204, 204, 204)" stroke-width="1px"></line></g><g transform="translate(31.171875, 0)"><text x="0" y="360.9076520531763" dx="0em" dy="0.3em" style="text-anchor: end; visibility: inherit; font-family: Roboto, sans-serif; font-size: 12px; font-weight: 200;" fill="rgb(33, 33, 33)" stroke="none" stroke-width="1px">0.4</text><text x="0" y="280.7600875066548" dx="0em" dy="0.3em" style="text-anchor: end; visibility: inherit; font-family: Roboto, sans-serif; font-size: 12px; font-weight: 200;" fill="rgb(33, 33, 33)" stroke="none" stroke-width="1px">0.5</text><text x="0" y="215.27475909225822" dx="0em" dy="0.3em" style="text-anchor: end; visibility: inherit; font-family: Roboto, sans-serif; font-size: 12px; font-weight: 200;" fill="rgb(33, 33, 33)" stroke="none" stroke-width="1px">0.6</text><text x="0" y="159.90770282475046" dx="0em" dy="0.3em" style="text-anchor: end; visibility: inherit; font-family: Roboto, sans-serif; font-size: 12px; font-weight: 200;" fill="rgb(33, 33, 33)" stroke="none" stroke-width="1px">0.7</text><text x="0" y="111.94657714430909" dx="0em" dy="0.3em" style="text-anchor: end; visibility: inherit; font-family: Roboto, sans-serif; font-size: 12px; font-weight: 200;" fill="rgb(33, 33, 33)" stroke="none" stroke-width="1px">0.8</text><text x="0" y="69.64186613134021" dx="0em" dy="0.3em" style="text-anchor: end; visibility: inherit; font-family: Roboto, sans-serif; font-size: 12px; font-weight: 200;" fill="rgb(33, 33, 33)" stroke="none" stroke-width="1px">0.9</text><text x="0" y="31.79901259778755" dx="0em" dy="0.3em" style="text-anchor: end; visibility: inherit; font-family: Roboto, sans-serif; font-size: 12px; font-weight: 200;" fill="rgb(33, 33, 33)" stroke="none" stroke-width="1px">1</text></g><line x1="41.171875" y1="0" x2="41.171875" y2="377" fill="rgb(0, 0, 0)" stroke="rgb(204, 204, 204)" stroke-width="1px"></line></g></g><g transform="translate(41, 0)" clip-path="url(#clip_0)"><clipPath id="clip_0"><rect width="1071" height="377"></rect></clipPath><g><g><g><line x1="0" y1="0" x2="0" y2="377" fill="rgb(0, 0, 0)" stroke="rgb(66, 66, 66)" stroke-width="1px" opacity="0.25"></line><line x1="153.0611607142857" y1="0" x2="153.0611607142857" y2="377" fill="rgb(0, 0, 0)" stroke="rgb(66, 66, 66)" stroke-width="1px" opacity="0.25"></line><line x1="306.1223214285714" y1="0" x2="306.1223214285714" y2="377" fill="rgb(0, 0, 0)" stroke="rgb(66, 66, 66)" stroke-width="1px" opacity="0.25"></line><line x1="459.1834821428571" y1="0" x2="459.1834821428571" y2="377" fill="rgb(0, 0, 0)" stroke="rgb(66, 66, 66)" stroke-width="1px" opacity="0.25"></line><line x1="612.2446428571428" y1="0" x2="612.2446428571428" y2="377" fill="rgb(0, 0, 0)" stroke="rgb(66, 66, 66)" stroke-width="1px" opacity="0.25"></line><line x1="765.3058035714286" y1="0" x2="765.3058035714286" y2="377" fill="rgb(0, 0, 0)" stroke="rgb(66, 66, 66)" stroke-width="1px" opacity="0.25"></line><line x1="918.3669642857142" y1="0" x2="918.3669642857142" y2="377" fill="rgb(0, 0, 0)" stroke="rgb(66, 66, 66)" stroke-width="1px" opacity="0.25"></line><line x1="1071.428125" y1="0" x2="1071.428125" y2="377" fill="rgb(0, 0, 0)" stroke="rgb(66, 66, 66)" stroke-width="1px" opacity="0.25"></line></g><g><line x1="0" y1="360.9076520531763" x2="1071.428125" y2="360.9076520531763" fill="rgb(0, 0, 0)" stroke="rgb(66, 66, 66)" stroke-width="1px" opacity="0.25"></line><line x1="0" y1="280.7600875066548" x2="1071.428125" y2="280.7600875066548" fill="rgb(0, 0, 0)" stroke="rgb(66, 66, 66)" stroke-width="1px" opacity="0.25"></line><line x1="0" y1="215.27475909225822" x2="1071.428125" y2="215.27475909225822" fill="rgb(0, 0, 0)" stroke="rgb(66, 66, 66)" stroke-width="1px" opacity="0.25"></line><line x1="0" y1="159.90770282475046" x2="1071.428125" y2="159.90770282475046" fill="rgb(0, 0, 0)" stroke="rgb(66, 66, 66)" stroke-width="1px" opacity="0.25"></line><line x1="0" y1="111.94657714430909" x2="1071.428125" y2="111.94657714430909" fill="rgb(0, 0, 0)" stroke="rgb(66, 66, 66)" stroke-width="1px" opacity="0.25"></line><line x1="0" y1="69.64186613134021" x2="1071.428125" y2="69.64186613134021" fill="rgb(0, 0, 0)" stroke="rgb(66, 66, 66)" stroke-width="1px" opacity="0.25"></line><line x1="0" y1="31.79901259778755" x2="1071.428125" y2="31.79901259778755" fill="rgb(0, 0, 0)" stroke="rgb(66, 66, 66)" stroke-width="1px" opacity="0.25"></line></g></g></g><g><g><line x1="153.0611607142857" y1="0" x2="153.0611607142857" y2="377" fill="rgb(0, 0, 0)" stroke="rgb(153, 153, 153)" stroke-width="1.5px"></line></g></g><g><g><g><g><g><path stroke="rgb(255, 112, 67)" stroke-width="2px" d="M174.4897232142857,-0.2989738814189682L174.4897232142857,0.9439780482859432L174.4897232142857,2.534854279027004L174.4897232142857,4.175595633001261L177.5509464285714,6.15295215917842L180.6121696428571,8.689796752510368L180.6121696428571,11.047422177614735L180.6121696428571,12.696208880225134L183.67339285714283,14.094796270606862L183.67339285714283,15.86294596943931L186.73461607142858,17.88394204436965L189.79583928571427,19.979087520150173L189.79583928571427,22.913550147012238L189.79583928571427,25.505712931216337L189.79583928571427,27.90044346470954L192.85706249999998,29.782193960865282L192.85706249999998,31.475483744645917L192.85706249999998,33.13059251712893L192.85706249999998,34.659621896071016L192.85706249999998,36.12048794455605L192.85706249999998,37.53588705418635L195.9182857142857,38.34736745818003L198.97950892857142,38.95430187394614L198.97950892857142,40.13095808568203L198.97950892857142,41.711655146235195L198.97950892857142,43.118969438861946L202.04073214285714,44.11898244151171L202.04073214285714,45.052167563251885L202.04073214285714,45.973554064453296L202.04073214285714,47.29619718395097L202.04073214285714,48.643248642289L202.04073214285714,49.91467003639542L202.04073214285714,51.21869718009417L202.04073214285714,52.4177966448424L205.10195535714283,53.857142857142875L208.16317857142855,55.10646628978155L211.22440178571426,56.83740052281569L211.22440178571426,58.49874361718188L211.22440178571426,60.05202041393902L214.28562499999998,61.09552121407678L214.28562499999998,61.89736898292608L214.28562499999998,63.07234485612297L214.28562499999998,64.16629520014962L214.28562499999998,65.20083119596855L214.28562499999998,66.32227271999201L214.28562499999998,67.41008048750082L214.28562499999998,68.47652072717813L217.34684821428567,69.49554342503009L217.34684821428567,70.5101112340157L220.40807142857142,71.13412199819963L220.40807142857142,72.09683882281234L220.40807142857142,73.04626116467054L220.40807142857142,74.12936617341023L220.40807142857142,75.12755134575599L220.40807142857142,76.13185700475888L223.46929464285714,76.94355536369504L223.46929464285714,77.75418418833378L223.46929464285714,78.55726621136934L226.53051785714285,79.55725801625802L226.53051785714285,80.5578764535829L226.53051785714285,81.48199546742497L229.59174107142854,82.20667034863595L229.59174107142854,83.13040891782204L232.65296428571426,83.76681845529542L232.65296428571426,84.46098013050722L232.65296428571426,85.27569021627711L232.65296428571426,86.0869610518629L235.71418749999998,86.77078026553752L235.71418749999998,87.36189033957325L238.7754107142857,88.12961542102424L238.7754107142857,88.92783952857502L238.7754107142857,89.67593093648777L238.7754107142857,90.3711403011395L241.8366339285714,91.39774042103086L241.8366339285714,92.28189492591416L241.8366339285714,93.06467756811865L244.8978571428571,93.8789735899941L244.8978571428571,94.74737712482666L244.8978571428571,95.59337285144494L244.8978571428571,96.4284549320983L247.95908035714282,97.1447149018477L247.95908035714282,97.92668831006519L247.95908035714282,98.70937348480832L251.02030357142857,99.37685789875306L251.02030357142857,99.88643518586865L251.02030357142857,100.5162448191234L254.0815267857143,101.10396874484213L254.0815267857143,101.84228682299317L254.0815267857143,102.59243824861693L254.0815267857143,103.21570574933781L257.14275,103.69583107277421L257.14275,104.20277279555879L257.14275,104.78807376334588L257.14275,105.37084286148072L257.14275,105.98199803517451L257.14275,106.58282518762469L260.20397321428567,106.94632129513882L260.20397321428567,107.47253108345495L260.20397321428567,108.08312897632167L260.20397321428567,108.6523289593788L263.2651964285714,109.21658110181475L263.2651964285714,109.81993678789557L266.3264196428571,110.51028939981609L266.3264196428571,111.25053927202232L266.3264196428571,112.00007506590111L266.3264196428571,112.75360077211505L266.3264196428571,113.48390447122154L269.38764285714285,114.11431152674645L269.38764285714285,114.74674769922278L272.44886607142854,115.18248115995648L272.44886607142854,115.62052739670138L272.44886607142854,116.13045603094206L272.44886607142854,116.63565566212255L275.51008928571423,117.28132149664397L275.51008928571423,117.91929288290706L275.51008928571423,118.46187758666044L275.51008928571423,118.9959913500067L278.5713125,119.75449380659138L278.5713125,120.50567757160194L278.5713125,121.23987684161303L278.5713125,121.97036310338497L278.5713125,122.62183187486369L278.5713125,123.26432111210039L281.63253571428567,123.55688400087395L284.6937589285714,124.2168210099568L284.6937589285714,124.91548361069559L284.6937589285714,125.58854963895438L284.6937589285714,126.13866676519662L284.6937589285714,126.70646584847935L284.6937589285714,127.25766656000049L287.7549821428571,127.63527939983136L287.7549821428571,128.00793090307303L287.7549821428571,128.4397199881196L287.7549821428571,128.9056299674467L287.7549821428571,129.3486751157857L287.7549821428571,129.78089781536636L287.7549821428571,130.21725589526363L290.8162053571428,130.64739668068054L290.8162053571428,131.0730094859305L290.8162053571428,131.53088739095853L290.8162053571428,131.93901670435307L293.87742857142854,132.33930483674703L293.87742857142854,132.81987218898186L293.87742857142854,133.278335059406L293.87742857142854,133.74628734120813L296.9386517857142,134.23273788818895L296.9386517857142,134.68762968500968L296.9386517857142,135.14566152441782L296.9386517857142,135.59920761585118L299.99987500000003,136.05784908863768L299.99987500000003,136.51240479328843L303.0610982142857,137.0502527005013L303.0610982142857,137.6072179007417L303.0610982142857,138.1236666600278L303.0610982142857,138.57021472036183L303.0610982142857,139.00527542668627L303.0610982142857,139.45365298027872L303.0610982142857,139.91141740333993L306.1223214285714,140.34278921042173L306.1223214285714,140.7162478783978L306.1223214285714,141.112710492406L306.1223214285714,141.47973844821004L306.1223214285714,141.86209928924563L309.18354464285716,141.9153921286468L309.18354464285716,142.2824569721484L312.24476785714285,142.60786582533595L312.24476785714285,143.02072205699028L312.24476785714285,143.41922740057873L315.30599107142854,143.81942278929895L315.30599107142854,144.27654938578056L315.30599107142854,144.68717553730608L315.30599107142854,145.1068917934545L318.3672142857143,145.58513120770976L318.3672142857143,145.9448386954702L321.4284375,146.33926842668734L321.4284375,146.69604447154035L327.5508839285714,147.17248856699345L327.5508839285714,147.63386356641837L327.5508839285714,148.08230832266028L327.5508839285714,148.50619679863442L330.6121071428571,148.88648227912205L333.67333035714285,149.3835717347266L333.67333035714285,149.86178970820478L336.73455357142853,150.07490106448145L336.73455357142853,150.40992307425083L336.73455357142853,150.70497136375909L336.73455357142853,151.0361493807949L336.73455357142853,151.36567327803323L339.7957767857142,151.73394745759938L339.7957767857142,152.0679264084929L339.7957767857142,152.50745836584076L342.85699999999997,152.94014569980084L342.85699999999997,153.34315786236013L342.85699999999997,153.72317536835308L345.91822321428566,154.02816764114667L345.91822321428566,154.36811802375212L345.91822321428566,154.7114795325174L348.9794464285714,155.1073664150085L348.9794464285714,155.5123480562023L348.9794464285714,155.90357279994203L348.9794464285714,156.28982866210816L348.9794464285714,156.66663148432605L348.9794464285714,157.04396574553712L352.0406696428571,157.51564969783888L352.0406696428571,157.8577189605298L355.1018928571428,158.19411835226953L358.16311607142853,158.4671246075861L358.16311607142853,158.70546209121645L358.16311607142853,158.96350932856072L361.2243392857142,159.2249884907884L361.2243392857142,159.53759672150863L361.2243392857142,159.89390213366832L364.28556249999997,160.30269224591214L364.28556249999997,160.69005951390034L364.28556249999997,161.08240415195L367.34678571428566,161.39227236754337L367.34678571428566,161.73430482062705L370.4080089285714,162.13600055445642L370.4080089285714,162.48687576273184L370.4080089285714,162.87239347588164L370.4080089285714,163.25767698785478L373.46923214285715,163.67136392182312L373.46923214285715,164.08651041379767L373.46923214285715,164.45074536920248L373.46923214285715,164.81815946033228L379.59167857142853,165.06010066167534L379.59167857142853,165.44935673565053L379.59167857142853,165.8350770932984L379.59167857142853,166.20106024265888L382.6529017857143,166.5070224845535L382.6529017857143,166.80009824820456L382.6529017857143,167.10947424350303L382.6529017857143,167.42671417955944L382.6529017857143,167.74137214634962L382.6529017857143,168.0617002165262L385.71412499999997,168.29039742617954L385.71412499999997,168.54073501576485L385.71412499999997,168.85768406174395L388.7753482142857,169.37469577800312L391.8365714285714,169.7145292323617L391.8365714285714,169.99161803661056L391.8365714285714,170.24421873641472L394.8977946428571,170.4450336556114L394.8977946428571,170.7516815793117L394.8977946428571,171.09111826267295L397.95901785714284,171.43350541410558L397.95901785714284,171.76520739927378L401.02024107142853,172.17523305609325L401.02024107142853,172.53902031293387L401.02024107142853,172.9034036641819L401.02024107142853,173.2603416009551L407.14268749999997,173.03499353707093L407.14268749999997,173.3070376965323L407.14268749999997,173.5886519260214L407.14268749999997,173.8909688007889L407.14268749999997,174.1805891243125L407.14268749999997,174.46906587580804L407.14268749999997,174.79673775747588L407.14268749999997,175.12542337213688L410.20391071428566,175.49149359723882L410.20391071428566,175.8560490437133L410.20391071428566,176.1816904769933L410.20391071428566,176.50679720300434L410.20391071428566,176.83179537751187L410.20391071428566,177.1762622472432L413.2651339285714,177.45351943898575L413.2651339285714,177.76748203168262L413.2651339285714,178.07754853993893L413.2651339285714,178.3974913516698L416.3263571428571,178.7660286262952L419.3875803571428,179.11897367690256L419.3875803571428,179.49219586368446L419.3875803571428,179.89225765371032L419.3875803571428,180.24345163439332L419.3875803571428,180.57884871085633L425.5100267857142,180.97765657210527L425.5100267857142,181.33709748855475L425.5100267857142,181.6972990109545L425.5100267857142,182.0353915021488L425.5100267857142,182.37392766140258L428.57124999999996,182.71875718945847L428.57124999999996,183.02036147667891L428.57124999999996,183.32149757410116L431.63247321428565,183.62339810889242L431.63247321428565,183.85570929421678L434.69369642857134,184.27103395206075L434.69369642857134,184.65085930571624L434.69369642857134,185.0302225117869L434.69369642857134,185.38774551243765L434.69369642857134,185.7333356744705L437.75491964285715,185.96877993514366L437.75491964285715,186.1986728411263L437.75491964285715,186.49273625289706L440.81614285714284,186.8342959380543L440.81614285714284,187.07094377753378L440.81614285714284,187.27876997570502L440.81614285714284,187.52199755039138L440.81614285714284,187.7810829308615L440.81614285714284,188.04294418936922L443.8773660714286,188.346021677906L443.8773660714286,188.62795495846862L443.8773660714286,188.92728303575635L446.9385892857143,189.13257420990584L446.9385892857143,189.3753536274674L446.9385892857143,189.66275025972834L449.99981249999996,189.9793032085288L453.0610357142857,190.33144633574082L453.0610357142857,190.66669770497006L453.0610357142857,191.00533820433054L453.0610357142857,191.34004646105979L456.1222589285714,191.63485173347553L456.1222589285714,191.91422813761167L459.1834821428571,192.01724039209302L459.1834821428571,192.06554583379548L459.1834821428571,192.1590962754783L459.1834821428571,192.33445348958617L459.1834821428571,192.57568324301667L462.24470535714283,192.81789244832692L462.24470535714283,193.10877991324563L462.24470535714283,193.39566758032623L465.3059285714285,193.61729699508538L465.3059285714285,193.88817558937635L465.3059285714285,194.18021116373373L468.36715178571427,194.37869709133247L468.36715178571427,194.66742421686408L471.42837499999996,194.9131947390951L471.42837499999996,195.21139078101635L474.48959821428565,195.50582480976823L474.48959821428565,195.79253915644057L474.48959821428565,196.09568803048805L477.5508214285714,196.3507397994633L477.5508214285714,196.66172680027108L480.6120446428571,196.92146280240993L480.6120446428571,197.19680271903053L480.6120446428571,197.47094034421474L483.6732678571428,197.7525467250528L483.6732678571428,198.02219460111013L483.6732678571428,198.28956611221267L486.7344910714285,198.62117818253049L486.7344910714285,198.94390029451847L486.7344910714285,199.20193678516227L489.7957142857142,199.491505866931L489.7957142857142,199.74802244217858L489.7957142857142,200.0089332196951L489.7957142857142,200.2701429659827L489.7957142857142,200.54840604421952L492.85693749999996,200.81022831493902L492.85693749999996,201.07815668523554L492.85693749999996,201.33109622757465L495.91816071428565,201.58072910177086L495.91816071428565,201.7962867882864L498.97938392857134,202.06867044566076L498.97938392857134,202.34990484725097L502.04060714285714,202.69055108998455L502.04060714285714,203.0301646259543L502.04060714285714,203.3720143799497L502.04060714285714,203.68419456170324L502.04060714285714,203.98871109273546L505.10183035714283,204.27252163855903L505.10183035714283,204.5307516872513L505.10183035714283,204.8150364882379L505.10183035714283,205.10388063275082L508.1630535714286,205.41077177637465L508.1630535714286,205.6666215755119L508.1630535714286,205.9243294185004L511.22427678571427,206.2090990003687L511.22427678571427,206.47276845757298L511.22427678571427,206.73899666193782L511.22427678571427,207.00343530348616L514.2855,207.26052199871037L514.2855,207.55622906196166L514.2855,207.84150339787473L517.3467232142857,208.03264496737793L517.3467232142857,208.2447526966736L520.4079464285713,208.47081772811197L520.4079464285713,208.70460652294705L520.4079464285713,208.9311542641447L520.4079464285713,209.15510754111764L523.4691696428571,209.46536861825356L523.4691696428571,209.70309514512874L523.4691696428571,209.91482776167936L523.4691696428571,210.134750787592L523.4691696428571,210.3795250330494L526.5303928571428,210.72378823289023L526.5303928571428,210.95838089267684L526.5303928571428,211.20615199266803L526.5303928571428,211.44958029809922L526.5303928571428,211.69357322520887L526.5303928571428,211.93360782586822L529.5916160714285,212.19544879683932L529.5916160714285,212.41077410674544L532.6528392857142,212.62170031602068L532.6528392857142,212.84243317357374L532.6528392857142,213.06208529120232L532.6528392857142,213.28260573992554L535.7140625,213.61386484583508L535.7140625,213.91518610150146L535.7140625,214.21218473277537L535.7140625,214.49712929127315L535.7140625,214.78155859901875L538.7752857142857,215.00449973729363L538.7752857142857,215.2245348106871L541.8365089285713,215.46604331980728L544.8977321428571,215.74122390645803L544.8977321428571,216.02221549599324L544.8977321428571,216.2977687352077L544.8977321428571,216.5351781684634L544.8977321428571,216.7697117666943L544.8977321428571,217.00581281792745L547.9589553571428,217.24064814332004L547.9589553571428,217.4795087879736L551.0201785714285,217.74367827233823L551.0201785714285,218.0275671947249L551.0201785714285,218.28815114974506L554.0814017857142,218.54429771796677L554.0814017857142,218.78846583771528L554.0814017857142,219.03633361794667L554.0814017857142,219.28659702002392L554.0814017857142,219.53792506678582L557.142625,219.87751939379746L557.142625,220.13780663203232L557.142625,220.3846667301399L557.142625,220.6382109541879L557.142625,220.90841838571842L560.2038482142857,221.13507664149796L560.2038482142857,221.33991522732117L560.2038482142857,221.52880494217652L560.2038482142857,221.72945186140856L563.2650714285713,221.9624066614921L566.3262946428571,222.2172873794898L566.3262946428571,222.4591975474671L566.3262946428571,222.71522881101887L566.3262946428571,222.9687272003526L569.3875178571428,223.11136968202592L569.3875178571428,223.31339809873728L569.3875178571428,223.53513862103188L572.4487410714285,223.81465546714549L572.4487410714285,224.09180860405814L575.5099642857142,224.38811642469943L575.5099642857142,224.6818020689346L575.5099642857142,224.96888841458446L578.5711875,225.24382664985868L578.5711875,225.4728458071538L581.6324107142856,225.71031956506874L581.6324107142856,225.95773298678787L581.6324107142856,226.22480140173406L581.6324107142856,226.48819453871766L581.6324107142856,226.72268311482975L584.6936339285713,226.7958162777788L584.6936339285713,226.94580334510016L587.7548571428571,227.2420416713492L587.7548571428571,227.53269483848314L587.7548571428571,227.80780398729038L587.7548571428571,228.0323909368644L587.7548571428571,228.2555021663936L590.8160803571427,228.44279421261626L593.8773035714285,228.6423792273867L593.8773035714285,228.87738537586142L593.8773035714285,229.11620751804972L593.8773035714285,229.3652730490276L593.8773035714285,229.61423435899587L596.9385267857142,229.89048362513915L596.9385267857142,230.1611802942861L596.9385267857142,230.41383697972674L596.9385267857142,230.66244277081282L599.9997500000001,230.91376365107888L599.9997500000001,231.18068986048874L599.9997500000001,231.42918439380108L599.9997500000001,231.68021165149614L603.0609732142856,231.76969092932075L603.0609732142856,231.9243298562865L603.0609732142856,232.0982167709295L603.0609732142856,232.3025117680873L603.0609732142856,232.5522149987064L606.1221964285714,232.76682039778086L606.1221964285714,232.99986597977295L606.1221964285714,233.24354097833552L606.1221964285714,233.50211953866543L612.2446428571428,233.73880887162485L612.2446428571428,233.96782840791386L615.3058660714286,234.21658770038204L615.3058660714286,234.4763108645562L615.3058660714286,234.739612550226L615.3058660714286,235.00599981700043L615.3058660714286,235.2613199599709L615.3058660714286,235.50177920069314L618.3670892857143,235.66183056068508L618.3670892857143,235.81707907937647L618.3670892857143,235.98465257683267L618.3670892857143,236.1740515277184L621.4283125,236.35356420110412L621.4283125,236.55222597615696L621.4283125,236.74871867140214L621.4283125,236.947665427479L621.4283125,237.1612335730411L624.4895357142857,237.3112389440427L624.4895357142857,237.51522891543405L624.4895357142857,237.7216611801883L627.5507589285714,237.91206441323772L627.5507589285714,238.1023833209428L630.6119821428571,238.3489965691432L633.6732053571428,238.55072645131423L633.6732053571428,238.75360457789898L633.6732053571428,238.93551187499867L633.6732053571428,239.11867078173512L636.7344285714286,239.34233251501422L636.7344285714286,239.5462359566916L636.7344285714286,239.7455477231149L639.7956517857143,239.97225177765245L642.856875,240.2246080112258L642.856875,240.45884587352737L645.9180982142857,240.69491145377972L645.9180982142857,240.93040598673613L645.9180982142857,241.17233604237558L648.9793214285714,241.41662005910302L648.9793214285714,241.66537441890821L652.0405446428571,241.83961817354538L652.0405446428571,242.0506738508655L652.0405446428571,242.264299315991L652.0405446428571,242.484406959708L652.0405446428571,242.69720301858695L655.1017678571428,242.9409387374077L655.1017678571428,243.1892215185806L655.1017678571428,243.4469553445425L655.1017678571428,243.69534089705982L655.1017678571428,243.93563194531367L655.1017678571428,244.16643122033776L658.1629910714286,244.3536847441478L658.1629910714286,244.51012532860096L658.1629910714286,244.71346731382917L661.2242142857142,244.97050814963947L664.2854375,245.19832721576867L664.2854375,245.46586330758697L664.2854375,245.72733493324256L664.2854375,245.9525124053126L664.2854375,246.17116732888832L664.2854375,246.38899030051812L664.2854375,246.61022173565974L664.2854375,246.8361861551382L664.2854375,247.06644035457586L667.3466607142857,247.24115863003064L667.3466607142857,247.45714399465544L670.4078839285713,247.6054112741966L670.4078839285713,247.85080978630273L670.4078839285713,248.09740163652333L670.4078839285713,248.3161594085859L670.4078839285713,248.535487468815L673.4691071428571,248.65245193932213L673.4691071428571,248.8174426046236L673.4691071428571,248.98653334525915L673.4691071428571,249.17286947193202L676.5303303571428,249.4260193350811L676.5303303571428,249.65568316564006L676.5303303571428,249.8766276683569L676.5303303571428,250.08428845066547L679.5915535714284,250.2380805481302L682.6527767857142,250.50872876457964L682.6527767857142,250.72380092338813L682.6527767857142,250.95651955332613L682.6527767857142,251.18531078262401L682.6527767857142,251.40653442938182L685.7139999999999,251.68272453242045L685.7139999999999,251.88850605048054L685.7139999999999,252.101162879779L688.7752232142857,252.27850805369263L688.7752232142857,252.5004718087965L688.7752232142857,252.7408225707132L688.7752232142857,252.98006643605905L688.7752232142857,253.2162102032347L688.7752232142857,253.42153072923767L688.7752232142857,253.62480901857958L688.7752232142857,253.83998898136076L688.7752232142857,254.0699867775768L688.7752232142857,254.30573551998293L691.8364464285713,254.60043620228154L691.8364464285713,254.85497697529476L691.8364464285713,255.1092623472338L691.8364464285713,255.3560638740372L694.8976696428571,255.61582657541297L694.8976696428571,255.8748940141885L694.8976696428571,256.13608796309876L694.8976696428571,256.39473799811407L697.9588928571428,256.64092806468096L697.9588928571428,256.9216474836546L697.9588928571428,257.17467893554993L701.0201160714284,257.4260550142802L701.0201160714284,257.67512655931034L701.0201160714284,257.9217220857998L704.0813392857142,258.1824423855286L704.0813392857142,258.44047486646514L707.1425624999999,258.6491246026554L707.1425624999999,258.89534787423867L707.1425624999999,259.14014984035055L710.2037857142856,259.40736085865757L710.2037857142856,259.67007663711917L710.2037857142856,259.9476876681844L710.2037857142856,260.2253332699224L710.2037857142856,260.4991092668356L713.2650089285713,260.74242624665885L713.2650089285713,260.99424005903717L713.2650089285713,261.25280293101054L713.2650089285713,261.5143643965976L716.3262321428571,261.7690895565451L716.3262321428571,262.0299915176884L719.3874553571427,262.31223025301836L719.3874553571427,262.56372838027016L719.3874553571427,262.82062368400847L719.3874553571427,263.0761452729147L722.4486785714284,263.080210241138L725.5099017857142,263.33918078137714L725.5099017857142,263.59832212287955L725.5099017857142,263.8315894822233L725.5099017857142,264.06914563508064L725.5099017857142,264.3103793308444L725.5099017857142,264.5514980465745L728.5711249999999,264.73342047047527L728.5711249999999,264.91013817887324L728.5711249999999,265.11050977178763L728.5711249999999,265.31420380783544L728.5711249999999,265.50983364050995L728.5711249999999,265.7049347900791L731.6323482142856,265.95923175737335L731.6323482142856,266.20311509997305L734.6935714285713,266.44622951784993L734.6935714285713,266.67601487787704L734.6935714285713,266.90775861132056L737.7547946428572,267.1268945328995L737.7547946428572,267.3440028605121L737.7547946428572,267.55435681770166L740.8160178571428,267.71434438756546L743.8772410714286,267.9256957034295L743.8772410714286,268.13241101414906L746.9384642857143,268.3739231502229L746.9384642857143,268.5866074243681L746.9384642857143,268.8043152106637L749.9996874999999,269.01298972346257L753.0609107142857,269.1992116508596L753.0609107142857,269.3965635802632L756.1221339285714,269.5700351808945L756.1221339285714,269.736485013851L756.1221339285714,269.89882684275074L756.1221339285714,270.06051382511276L756.1221339285714,270.2379188793628L756.1221339285714,270.41761250875845L759.1833571428571,270.65244603869684L759.1833571428571,270.886452105869L759.1833571428571,271.10738839020735L759.1833571428571,271.32064890247864L762.2445803571428,271.5325926859885L762.2445803571428,271.7318027912141L762.2445803571428,271.92290348067786L765.3058035714286,272.1155551299076L765.3058035714286,272.2932327772703L768.3670267857143,272.372122002399L768.3670267857143,272.4891575308338L768.3670267857143,272.6353954061696L768.3670267857143,272.79124999673456L768.3670267857143,272.9458610304188L768.3670267857143,273.09330349522986L771.4282499999999,273.2922523804443L774.4894732142857,273.49908514906514L777.5506964285714,273.6881997625151L777.5506964285714,273.91815877344874L777.5506964285714,274.1557500572774L777.5506964285714,274.3798750784219L777.5506964285714,274.5581701204873L777.5506964285714,274.7428459001393L777.5506964285714,274.9453964420121L777.5506964285714,275.1498414835298L780.6119196428571,275.371353509901L780.6119196428571,275.58194743932125L780.6119196428571,275.79278292024924L780.6119196428571,276.00139788461695L780.6119196428571,276.20481055863314L780.6119196428571,276.40468310632343L783.6731428571428,276.5966468231867L783.6731428571428,276.786361035911L783.6731428571428,276.981669803631L786.7343660714286,277.21116132500384L786.7343660714286,277.4458457278719L786.7343660714286,277.6628760230273L789.7955892857142,277.8107719332742L789.7955892857142,277.9892603518219L789.7955892857142,278.14967527358135L789.7955892857142,278.31400228946296L789.7955892857142,278.48961626250554L789.7955892857142,278.6765603773455L789.7955892857142,278.86197444143687L792.8568124999999,279.0423732313558L792.8568124999999,279.21220609465786L792.8568124999999,279.388124832791L795.9180357142857,279.5706792808121L795.9180357142857,279.74277892990796L795.9180357142857,279.909903854349L798.9792589285713,280.1352312143579L798.9792589285713,280.36905332970997L798.9792589285713,280.58104281454365L798.9792589285713,280.7798727665037L798.9792589285713,280.978809544708L802.0404821428571,281.1754489900224L802.0404821428571,281.37522210116424L802.0404821428571,281.56449440586925L802.0404821428571,281.7478262121539L802.0404821428571,281.92819357743736L802.0404821428571,282.11043045550724L805.1017053571428,282.2905780676997L805.1017053571428,282.4741930106276L805.1017053571428,282.64216914493466L808.1629285714286,282.81677081590186L808.1629285714286,283.0351952023531L808.1629285714286,283.2417321101437L808.1629285714286,283.44850866735464L808.1629285714286,283.65805645645156L811.2241517857142,283.8071251732982L811.2241517857142,283.9768574408269L811.2241517857142,284.1453055192066L814.2853749999999,284.32163045530564L814.2853749999999,284.48213520485336L814.2853749999999,284.6387965034888L814.2853749999999,284.79197266216505L814.2853749999999,284.94798415064656L814.2853749999999,285.1278256902046L814.2853749999999,285.3146405788558L814.2853749999999,285.50806619937026L817.3465982142857,285.6764559661051L817.3465982142857,285.8150998320168L817.3465982142857,285.978239113043L820.4078214285713,286.16060721644874L820.4078214285713,286.37078591952127L820.4078214285713,286.56839283787775L823.469044642857,286.7647637323456L823.469044642857,286.93571005178023L823.469044642857,287.1059271281579L823.469044642857,287.27669206678456L826.5302678571428,287.4604307403842L829.5914910714284,287.6730287513618L829.5914910714284,287.8063885967115L829.5914910714284,287.9524052331784L829.5914910714284,288.1171331586603L832.6527142857142,288.27733290894616L832.6527142857142,288.4509095799218L835.7139374999999,288.6541618024075L835.7139374999999,288.8547581452509L835.7139374999999,289.0443662626398L835.7139374999999,289.22727320068014L838.7751607142856,289.36669245386224L838.7751607142856,289.5193070641621L838.7751607142856,289.70072812617093L838.7751607142856,289.8824872648347L841.8363839285713,290.03877736992894L841.8363839285713,290.17568582758844L841.8363839285713,290.3333077571059L841.8363839285713,290.49458435090287L844.897607142857,290.6867959543955L844.897607142857,290.8855274673698L844.897607142857,291.08860973680214L844.897607142857,291.2787012313202L844.897607142857,291.4730596530037L844.897607142857,291.6685888092375L844.897607142857,291.8618700708428L847.9588303571428,292.06257939523607L847.9588303571428,292.23292242220134L847.9588303571428,292.4206660990088L851.0200535714284,292.59307885924255L851.0200535714284,292.7762610210963L851.0200535714284,292.9605094835743L851.0200535714284,293.13676007963824L854.0812767857142,293.32008266284845L854.0812767857142,293.4932537842453L854.0812767857142,293.68309835767604L854.0812767857142,293.8812721276386L854.0812767857142,294.0874184331443L857.1424999999999,294.26737620591945L857.1424999999999,294.47125913844457L857.1424999999999,294.66456870359934L860.2037232142856,294.8374413672585L860.2037232142856,295.0116851963233L860.2037232142856,295.1876251818055L863.2649464285713,295.36581749854736L863.2649464285713,295.56096881602L863.2649464285713,295.75648742492035L866.326169642857,295.9565700978926L866.326169642857,296.13461767066786L866.326169642857,296.3143681733176L866.326169642857,296.48671128806916L869.3873928571427,296.6392243232589L869.3873928571427,296.8176561059208L869.3873928571427,296.97453508609254L869.3873928571427,297.13376336594473L869.3873928571427,297.29363772555143L869.3873928571427,297.4513046118931L872.4486160714285,297.5438914907152L872.4486160714285,297.73633202795327L872.4486160714285,297.942500222579L872.4486160714285,298.1483996774128L872.4486160714285,298.3552791782818L875.5098392857143,298.48342412777686L875.5098392857143,298.648239589916L878.5710624999999,298.2987076753124L878.5710624999999,298.3974605815402L881.6322857142857,298.63674476669206L881.6322857142857,298.8335978436589L881.6322857142857,299.02605119214485L881.6322857142857,299.21782824200375L881.6322857142857,299.412280350324L884.6935089285714,299.6460946469813L884.6935089285714,299.8518612805737L884.6935089285714,300.05469372526034L884.6935089285714,300.2552451179099L887.7547321428572,300.4529800294706L887.7547321428572,300.6471886469314L887.7547321428572,300.83317066460313L890.8159553571428,301.0067614677759L890.8159553571428,301.168442929431L890.8159553571428,301.36011663113226L890.8159553571428,301.540466405801L893.8771785714285,301.7311019047139L896.9384017857143,301.89709196464327L896.9384017857143,302.08237666587445L896.9384017857143,302.2668572613099L899.9996249999999,302.43830625064345L899.9996249999999,302.62968650830857L899.9996249999999,302.8154952317534L899.9996249999999,302.98637242048204L903.0608482142857,303.14702285273995L906.1220714285714,303.31153278253953L906.1220714285714,303.4892971340114L906.1220714285714,303.66231236574845L906.1220714285714,303.83535301087403L909.183294642857,304.07066922268166L909.183294642857,304.2564043701729L912.2445178571428,304.4393563469601L912.2445178571428,304.6198924995233L915.3057410714285,304.7616651636865L918.3669642857142,304.9310885309768L918.3669642857142,305.12102287782625L921.4281874999999,305.3271872074356L921.4281874999999,305.5236467083499L921.4281874999999,305.70709542246084L924.4894107142857,305.86570540337755L924.4894107142857,306.0332961402173L924.4894107142857,306.21362567735014L924.4894107142857,306.3911516414057L927.5506339285714,306.56696269757845L927.5506339285714,306.7569233935499L927.5506339285714,306.94507254155576L930.611857142857,307.14971521481607L930.611857142857,307.34506909937573L933.6730803571428,307.54673162390725L933.6730803571428,307.7575532854192L936.7343035714285,307.9415155296651L936.7343035714285,308.12820705087165L936.7343035714285,308.31311007019974L936.7343035714285,308.4980036708408L936.7343035714285,308.68415630924716L936.7343035714285,308.87036524901606L939.7955267857142,309.0754187560365L939.7955267857142,309.2501785435517L939.7955267857142,309.4268793283853L939.7955267857142,309.6045847744894L942.8567499999999,309.77981388765284L942.8567499999999,309.96184828326284L942.8567499999999,310.1352584559842L942.8567499999999,310.3151411869998L942.8567499999999,310.49678404103264L945.9179732142857,310.7217132238503L945.9179732142857,310.92987245943004L945.9179732142857,311.1392754476747L945.9179732142857,311.3353280641634L948.9791964285713,311.5068552915337L948.9791964285713,311.6908819657015L952.040419642857,311.89693008119605L952.040419642857,312.09054781633535L955.1016428571428,312.2898724324138L958.1628660714284,312.4328898061616L958.1628660714284,312.6166140527877L958.1628660714284,312.7933597451701L961.2240892857142,313.00369222745616L961.2240892857142,313.2128358076787L961.2240892857142,313.40309100439316L964.2853124999999,313.44437033984957L964.2853124999999,313.63070910131313L967.3465357142856,313.8191451812594L967.3465357142856,314.00818908056476L970.4077589285713,314.17858175827814L970.4077589285713,314.3398942984816L970.4077589285713,314.51128529771296L970.4077589285713,314.68082789618876L973.468982142857,314.8556598363815L973.468982142857,315.0218516888536L973.468982142857,315.1904331061594L973.468982142857,315.3667149525588L973.468982142857,315.55091079910596L976.5302053571428,315.7224474690785L976.5302053571428,315.89637896821426L976.5302053571428,316.07700594375086L976.5302053571428,316.25605608977605L979.5914285714284,316.46845796711676L979.5914285714284,316.66544959689037L982.6526517857142,316.8150481329149L982.6526517857142,316.999492487021L985.7138749999999,317.18661839161047L985.7138749999999,317.3930257979702L985.7138749999999,317.579837263882L985.7138749999999,317.76459228995185L985.7138749999999,317.9430228132807L988.7750982142855,318.13298835851253L988.7750982142855,318.32389653346627L988.7750982142855,318.50223673282056L988.7750982142855,318.68277731448796L991.8363214285713,318.87530755938275L991.8363214285713,319.0611144953586L991.8363214285713,319.237459985188L991.8363214285713,319.4289932447834L991.8363214285713,319.60876304235006L991.8363214285713,319.78773390025276L994.897544642857,320.00269403819965L997.9587678571427,320.2274301716862L997.9587678571427,320.44014543285397L997.9587678571427,320.6483534128409L1001.0199910714284,320.821498828527L1001.0199910714284,320.9963510522406L1004.0812142857143,321.18126153450356L1004.0812142857143,321.36278372615703L1007.1424374999998,321.5947555107384L1007.1424374999998,321.7953274126012L1007.1424374999998,321.9663988827927L1010.2036607142857,322.13958964580377L1010.2036607142857,322.31563542678856L1010.2036607142857,322.4940050199811L1010.2036607142857,322.67886181399626L1010.2036607142857,322.84269782777386L1013.2648839285714,322.9996871447077L1013.2648839285714,323.1428571428571L1013.2648839285714,323.3058642941059L1013.2648839285714,323.4807749272893L1013.2648839285714,323.64917273363346L1016.3261071428572,323.84277800935524L1016.3261071428572,324.0228441690903L1016.3261071428572,324.20621608876615L1019.3873303571428,324.40074918401655L1019.3873303571428,324.5846565646653L1019.3873303571428,324.7669028926743L1022.4485535714285,324.935409508342L1025.5097767857142,325.13733046104426L1025.5097767857142,325.3291362960355L1025.5097767857142,325.51374770523915L1025.5097767857142,325.70233028633436L1025.5097767857142,325.8887493374072L1028.571,326.0913569902701L1028.571,326.2748190815986L1028.571,326.461385747833L1028.571,326.6455566895707L1031.6322232142857,326.7876553921882L1031.6322232142857,326.94717426096844L1031.6322232142857,327.12176114286956L1031.6322232142857,327.3031950821235L1031.6322232142857,327.48462117514015L1034.6934464285714,327.6181766917729L1034.6934464285714,327.8331789012593L1034.6934464285714,328.0246745970595L1034.6934464285714,328.2055386031381L1037.754669642857,328.3866991096202L1037.754669642857,328.57809757707935L1037.754669642857,328.77293257590395L1040.8158928571427,328.9700974064016L1040.8158928571427,329.16622824308223L1040.8158928571427,329.3532647780326L1040.8158928571427,329.5431919801176L1040.8158928571427,329.73233084844105L1040.8158928571427,329.8966213409691L1040.8158928571427,330.0567165634283L1040.8158928571427,330.2189478022543L1040.8158928571427,330.37801154419566L1043.8771160714284,330.5630106402447L1043.8771160714284,330.75740961971377L1043.8771160714284,330.94182236342084L1043.8771160714284,331.1250496274036L1046.9383392857142,331.357815839116L1046.9383392857142,331.54620412723955L1046.9383392857142,331.7399878691357L1046.9383392857142,331.93527895277737L1046.9383392857142,332.1301219034469L1046.9383392857142,332.326392945749" style="fill: none;" fill="none"></path></g></g></g></g><g opacity="0.2"><g><g><g><path stroke="rgb(255, 112, 67)" stroke-width="2px" d="M156.12238392857142,-41.37655048685411L159.18360714285714,22.49579740387766L159.18360714285714,26.543417210694L159.18360714285714,27.599760447996335L159.18360714285714,13.95339407998116L165.30605357142855,4.555855145098816L165.30605357142855,-0.15748173946206667L165.30605357142855,1.2186792426854676L168.36727678571427,14.743753885110348L168.36727678571427,18.258014212958102L171.42849999999999,11.942649308380046L171.42849999999999,15.384847184144155L171.42849999999999,21.251961966469818L171.42849999999999,26.582365336208863L174.4897232142857,27.081849429607693L174.4897232142857,22.55880344510345L174.4897232142857,32.15118363205946L174.4897232142857,36.52437198883148L177.5509464285714,47.709307702532456L180.6121696428571,65.89019374521894L180.6121696428571,66.57013196718103L180.6121696428571,52.36479832932335L183.67339285714283,48.94664260153501L183.67339285714283,62.5057827309884L186.73461607142858,74.04267177828413L189.79583928571427,80.79606464978858L189.79583928571427,115.11223982147267L189.79583928571427,108.77741916591741L189.79583928571427,106.975135255953L192.85706249999998,92.51610805426446L192.85706249999998,89.31916755742677L192.85706249999998,91.44165145843684L192.85706249999998,89.89294262925773L192.85706249999998,90.33658212940972L192.85706249999998,91.51799209504281L195.9182857142857,69.12342705843389L198.97950892857142,62.33759687142128L198.97950892857142,88.2752374815444L198.97950892857142,109.87385281464343L198.97950892857142,104.72834059292967L202.04073214285714,87.84254307868672L202.04073214285714,86.681522035026L202.04073214285714,88.03572763348747L202.04073214285714,110.8840892203354L202.04073214285714,115.06696783582824L202.04073214285714,113.70634537992575L202.04073214285714,118.30605745749725L202.04073214285714,114.96734637035048L205.10195535714283,132.09423563705906L208.16317857142855,123.40089363743985L211.22440178571426,157.6163119595146L211.22440178571426,156.6895782592344L211.22440178571426,152.8605035060447L214.28562499999998,121.85144861700918L214.28562499999998,108.48827463321484L214.28562499999998,134.98835162809658L214.28562499999998,131.8711229090635L214.28562499999998,130.04390873138L214.28562499999998,138.48556860538778L214.28562499999998,138.42757310463955L214.28562499999998,139.1726617293594L217.34684821428567,137.88664656741392L217.34684821428567,139.72521550794977L220.40807142857142,112.7376297361923L220.40807142857142,139.59912165089912L220.40807142857142,140.59453568197398L220.40807142857142,153.57565114037644L220.40807142857142,148.80306741452284L220.40807142857142,151.46448699230282L223.46929464285714,137.4284854717838L223.46929464285714,139.04676167168L223.46929464285714,140.11345890630045L226.53051785714285,159.14912074970616L226.53051785714285,161.36788797113178L226.53051785714285,156.47607209057315L229.59174107142854,140.40981983845754L229.59174107142854,160.2054409460637L232.65296428571426,135.70711900619645L232.65296428571426,142.26624612969286L232.65296428571426,155.06595955267431L232.65296428571426,156.46083516002207L235.71418749999998,145.86502179778276L235.71418749999998,138.47107605517058L238.7754107142857,156.90833702225748L238.7754107142857,161.63072303220002L238.7754107142857,158.17758058077482L238.7754107142857,154.33266436607875L241.8366339285714,191.67909830263537L241.8366339285714,177.866771815105L241.8366339285714,168.60673792481683L244.8978571428571,173.75311348012224L244.8978571428571,181.62996159532221L244.8978571428571,180.92201432381148L244.8978571428571,181.47735469984167L247.95908035714282,169.57530234623306L247.95908035714282,178.69302196452983L247.95908035714282,180.44903160818035L251.02030357142857,168.57521798560904L251.02030357142857,151.99111582234886L251.02030357142857,166.79769730990557L254.0815267857143,163.18079698046458L254.0815267857143,182.56875933929388L254.0815267857143,185.62586282689028L254.0815267857143,171.45141421288136L257.14275,155.56242433085976L257.14275,159.73330265613666L257.14275,170.36154771555312L257.14275,171.26073830652498L257.14275,176.0803751054178L257.14275,176.02669632256374L260.20397321428567,147.68545674168652L260.20397321428567,168.633027544376L260.20397321428567,180.77518562553703L260.20397321428567,176.53149137974734L263.2651964285714,177.05316428865254L263.2651964285714,183.53193336696435L266.3264196428571,197.010181045447L266.3264196428571,205.7522911569156L266.3264196428571,208.73189461408194L266.3264196428571,210.95483254256402L266.3264196428571,209.06121562503202L269.38764285714285,195.70397209406914L269.38764285714285,197.33462569330592L272.44886607142854,170.42496769157694L272.44886607142854,171.63163740368387L272.44886607142854,182.77648699604555L272.44886607142854,183.13758352693227L275.51008928571423,205.43761869227774L275.51008928571423,205.60075549722586L275.51008928571423,192.16711326053934L275.51008928571423,191.9987607885076L278.5713125,229.4260235483408L278.5713125,229.83098739036757L278.5713125,228.54910992503034L278.5713125,229.50697979777334L278.5713125,217.5748362566774L278.5713125,217.44834743736772L281.63253571428567,163.67822940664124L284.6937589285714,222.84883758688278L284.6937589285714,231.09243556771304L284.6937589285714,228.04012907715978L284.6937589285714,208.1445288773764L284.6937589285714,212.31186098532447L284.6937589285714,210.64740610797807L287.7549821428571,182.9843348609469L287.7549821428571,182.94604921366874L287.7549821428571,193.37599324119628L287.7549821428571,200.00387313591807L287.7549821428571,197.06705556878984L287.7549821428571,196.12938659779968L287.7549821428571,197.71634109981372L290.8162053571428,197.53399082115163L290.8162053571428,197.62515438825733L290.8162053571428,204.15268845021143L290.8162053571428,196.33377008853054L293.87742857142854,195.78902821341853L293.87742857142854,210.98441207262087L293.87742857142854,207.92747683478157L293.87742857142854,210.61193720715173L296.9386517857142,215.02342570871295L296.9386517857142,210.1218248213993L296.9386517857142,211.64157151791662L296.9386517857142,211.73642284823165L299.99987500000003,213.6322998700609L299.99987500000003,213.79323259535357L303.0610982142857,231.09243556771304L303.0610982142857,236.11323338721482L303.0610982142857,229.03397249562312L303.0610982142857,216.2038251363111L303.0610982142857,214.86792850158085L303.0610982142857,218.38307461884304L303.0610982142857,221.177565113722L306.1223214285714,216.83455993024745L306.1223214285714,206.31236727887355L306.1223214285714,211.57640886344615L306.1223214285714,206.57521478791827L306.1223214285714,210.34024258205088L309.18354464285716,150.75352638955775L309.18354464285716,208.49095777419825L312.24476785714285,200.97476599786756L312.24476785714285,219.27178185672483L312.24476785714285,217.13531494542326L315.30599107142854,218.2924968329949L315.30599107142854,231.21132709169854L315.30599107142854,222.17083293013025L315.30599107142854,224.94587220287497L318.3672142857143,238.63422474628734L318.3672142857143,213.93632076812415L321.4284375,222.0366071031165L321.4284375,214.79020513544535L327.5508839285714,241.8685470902978L327.5508839285714,239.4080512640061L327.5508839285714,237.40969183062083L327.5508839285714,232.7603590360666L330.6121071428571,223.88358122082607L333.67333035714285,251.51818410148647L333.67333035714285,248.05188566950855L336.73455357142853,190.73857625280615L336.73455357142853,216.93079277774774L336.73455357142853,208.89064608119727L336.73455357142853,217.37006373398938L336.73455357142853,217.6591988630084L339.7957767857142,227.06761095136935L339.7957767857142,220.0049919872869L339.7957767857142,245.37304654858605L342.85699999999997,244.6122154208492L342.85699999999997,238.33406316074672L342.85699999999997,233.66651748221358L345.91822321428566,217.00295744783932L345.91822321428566,225.65995361782686L345.91822321428566,227.1356458294273L348.9794464285714,240.43389868272442L348.9794464285714,243.47726265902813L348.9794464285714,240.8964569929089L348.9794464285714,240.45957861842487L348.9794464285714,238.90262610925376L348.9794464285714,239.7923816741057L352.0406696428571,264.84722675503065L352.0406696428571,232.6849582879971L355.1018928571428,231.975588340166L358.16311607142853,217.38811664615378L358.16311607142853,209.803302543504L358.16311607142853,214.87391614360246L361.2243392857142,216.18583164969857L361.2243392857142,229.0837295110224L361.2243392857142,240.69078069891L364.28556249999997,255.13198740863996L364.28556249999997,250.26883043643096L364.28556249999997,252.37343356407735L367.34678571428566,231.76244134625838L367.34678571428566,240.60726431788757L370.4080089285714,257.15769757539056L370.4080089285714,244.34601465505955L370.4080089285714,254.3235310641588L370.4080089285714,255.03834891712174L373.46923214285715,263.68086158721445L373.46923214285715,264.93657475134916L373.46923214285715,251.65726103788518L373.46923214285715,253.25733576518522L379.59167857142853,221.00110863438786L379.59167857142853,260.6998338026313L379.59167857142853,260.489300936764L379.59167857142853,255.72108621829287L382.6529017857143,240.01677084759422L382.6529017857143,237.16784903646234L382.6529017857143,242.12649603918948L382.6529017857143,244.87865237270205L382.6529017857143,244.79415663183798L382.6529017857143,246.97792789517976L385.71412499999997,223.00782940682538L385.71412499999997,229.12726328359932L385.71412499999997,247.7634381704274L388.7753482142857,309.4459687311447L391.8365714285714,255.72108621829287L391.8365714285714,238.7428410466647L391.8365714285714,232.59070152421285L394.8977946428571,219.27178185672483L394.8977946428571,248.56378374255993L394.8977946428571,258.6541045796256L397.95901785714284,260.19748737194936L397.95901785714284,257.72318462878326L401.02024107142853,282.2717923373467L401.02024107142853,268.7511412948412L401.02024107142853,269.6623849118714L401.02024107142853,268.1125602221943L407.14268749999997,123.80902201269325L407.14268749999997,243.7233927648422L407.14268749999997,247.0171762777752L407.14268749999997,253.65011287412736L407.14268749999997,250.48006688088108L407.14268749999997,250.70461965619376L407.14268749999997,263.0854207052357L407.14268749999997,264.04409339057827L410.20391071428566,276.44726828320086L410.20391071428566,276.6957746639863L410.20391071428566,265.11533745000236L410.20391071428566,265.59017480872313L410.20391071428566,266.1966934270912L410.20391071428566,273.0141867232626L413.2651339285714,252.725402828797L413.2651339285714,264.6067817230483L413.2651339285714,263.9960744176629L413.2651339285714,267.73135974655526L416.3263571428571,284.22481818403367L419.3875803571428,279.7772849301021L419.3875803571428,287.26950431783234L419.3875803571428,297.2452668570244L419.3875803571428,281.37119871711366L419.3875803571428,276.81653498914915L425.5100267857142,299.13799570819594L425.5100267857142,286.2979282133234L425.5100267857142,287.27680739926694L425.5100267857142,280.487232889363L425.5100267857142,281.30644080964106L428.57124999999996,284.11604129855806L428.57124999999996,270.303771443813L428.57124999999996,270.73659374642983L431.63247321428565,271.57588372938136L431.63247321428565,249.74134111127793L434.69369642857134,312.6660221071602L434.69369642857134,300.4711181507918L434.69369642857134,301.07112919683556L434.69369642857134,293.98104603482085L434.69369642857134,290.4582674021443L437.75491964285715,254.09002652222958L437.75491964285715,252.75863051836473L437.75491964285715,274.35243419623515L440.81614285714284,291.48557709510396L440.81614285714284,256.418527336913L440.81614285714284,247.60622204829858L440.81614285714284,259.4385240673169L440.81614285714284,265.16350630337536L440.81614285714284,266.59009746370714L443.8773660714286,281.277668029036L443.8773660714286,274.4935729110592L443.8773660714286,281.11225854092675L446.9385892857143,249.89949479602006L446.9385892857143,262.6616748177351L446.9385892857143,278.48294939870607L449.99981249999996,289.47806096602847L453.0610357142857,303.31292885849973L453.0610357142857,297.6591553133932L453.0610357142857,299.59190488161545L453.0610357142857,298.78281274487193L456.1222589285714,284.7183695410927L456.1222589285714,279.73433131211857L459.1834821428571,222.0305352158893L459.1834821428571,205.86304780971938L459.1834821428571,219.45341895739978L459.1834821428571,245.47719996253647L459.1834821428571,268.1264492251773L462.24470535714283,268.9248943866059L462.24470535714283,286.9477929217937L462.24470535714283,286.02811343328017L465.3059285714285,263.1674819769693L465.3059285714285,281.16257851787753L465.3059285714285,289.5295668229594L468.36715178571427,256.5058027767918L468.36715178571427,289.31617710553144L471.42837499999996,274.01388536877926L471.42837499999996,293.988486866024L474.48959821428565,293.12498099659535L474.48959821428565,290.7462018188232L474.48959821428565,297.6215032564573L477.5508214285714,279.94927894986745L477.5508214285714,301.8244622168521L480.6120446428571,282.7193318148867L480.6120446428571,289.11759515146656L480.6120446428571,289.18377693771254L483.6732678571428,292.5826223755093L483.6732678571428,288.51517874313043L483.6732678571428,288.15569934841085L486.7344910714285,314.231758474768L486.7344910714285,311.2243724229631L486.7344910714285,286.21040908113275L489.7957142857142,299.00947130669033L489.7957142857142,286.6336594395775L489.7957142857142,288.8162715960353L489.7957142857142,289.4265405626668L489.7957142857142,296.62907494439014L492.85693749999996,290.6723589378581L492.85693749999996,293.57137194701073L492.85693749999996,288.19235016706324L495.91816071428565,287.3792405876136L495.91816071428565,274.78313341472585L498.97938392857134,297.3054310294641L498.97938392857134,301.4057488209478L502.04060714285714,327.03398475588585L502.04060714285714,327.25468334459373L502.04060714285714,328.91009798428684L502.04060714285714,316.7003827672429L502.04060714285714,314.0425670249355L505.10183035714283,305.9307694461256L505.10183035714283,295.97648068729706L505.10183035714283,307.1888868805253L505.10183035714283,309.6483216468172L508.1630535714286,317.90920081518436L508.1630535714286,297.05728514367553L508.1630535714286,298.2997325184314L511.22427678571427,310.08456594071356L511.22427678571427,301.7635363594018L511.22427678571427,303.32822519795076L511.22427678571427,303.0835391228857L514.2855,300.51667006055817L514.2855,317.45541122874084L514.2855,313.49132520058293L517.3467232142857,275.42660853658543L517.3467232142857,284.04354887413706L520.4079464285713,290.0599713503211L520.4079464285713,293.6383795750702L520.4079464285713,291.10090319353327L520.4079464285713,290.4582674021443L523.4691696428571,328.08143695249464L523.4691696428571,297.07231737235327L523.4691696428571,286.8016536935579L523.4691696428571,290.53945799774766L523.4691696428571,301.32968183229804L526.5303928571428,346.7773996977985L526.5303928571428,298.0283005881808L526.5303928571428,304.0709835115154L526.5303928571428,302.6710018703071L526.5303928571428,303.36648029645903L526.5303928571428,302.12165793842917L529.5916160714285,312.0541904395419L529.5916160714285,292.5529319914099L532.6528392857142,291.1083066306259L532.6528392857142,295.616934058399L532.6528392857142,295.56452558561745L532.6528392857142,296.3363875956119L535.7140625,347.29573506197056L535.7140625,333.5230047496824L535.7140625,332.06162085203573L535.7140625,326.9849671521347L535.7140625,327.28738555285474L538.7752857142857,300.2056116867242L538.7752857142857,299.3573029973873L541.8365089285713,309.1815324078704L544.8977321428571,324.95633507910685L544.8977321428571,328.1961715461798L544.8977321428571,326.1770316819081L544.8977321428571,309.24372975340884L544.8977321428571,308.3971118265857L544.8977321428571,309.5315674516552L547.9589553571428,309.3992934401419L547.9589553571428,311.6468809042014L551.0201785714285,323.73977310392326L551.0201785714285,333.606230241227L551.0201785714285,323.06838446007043L554.0814017857142,321.47984936812577L554.0814017857142,316.39880104257463L554.0814017857142,318.563037826249L554.0814017857142,320.1386966528705L554.0814017857142,321.1018832357867L557.142625,365.58026035692563L557.142625,326.364558603952L557.142625,320.49960394624486L557.142625,324.11241069067427L557.142625,332.592347718285L560.2038482142857,312.4855108242805L560.2038482142857,302.9765285486264L560.2038482142857,296.2463882287177L560.2038482142857,301.81685727001525L563.2650714285713,316.99426105307947L566.3262946428571,327.8602299282883L566.3262946428571,322.1079638111034L566.3262946428571,329.3539201102988L566.3262946428571,328.5980926409227L569.3875178571428,278.79005284338274L569.3875178571428,305.1534087001435L569.3875178571428,314.6420115525351L572.4487410714285,343.2722810077152L572.4487410714285,342.5975334006383L575.5099642857142,353.003626604623L575.5099642857142,352.1964147801637L575.5099642857142,349.3157975554942L578.5711875,343.5973032777571L578.5711875,321.3270188900839L581.6324107142856,325.8429481500492L581.6324107142856,331.1678198890198L581.6324107142856,341.5154656090882L581.6324107142856,340.13990502631924L581.6324107142856,326.1851703152621L584.6936339285713,255.01160523918782L584.6936339285713,287.53292334923276L587.7548571428571,359.04478230077933L587.7548571428571,356.60546764079703L587.7548571428571,348.90739149995494L587.7548571428571,323.78837392500947L587.7548571428571,323.47268252328917L590.8160803571427,306.7098162805609L593.8773035714285,312.85448967479647L593.8773035714285,330.5401503442537L593.8773035714285,332.8912343033598L593.8773035714285,338.5501548820505L593.8773035714285,338.9553790260015L596.9385267857142,353.7686333512021L596.9385267857142,351.3123177789003L596.9385267857142,342.29900059221035L596.9385267857142,340.6572414191963L599.9997500000001,342.52928416836085L599.9997500000001,351.2511193919842L599.9997500000001,341.9922107025936L599.9997500000001,343.7770571807541L603.0609732142856,267.89763850173057L603.0609732142856,296.9746079312234L603.0609732142856,306.2699493966559L603.0609732142856,321.3431019852656L603.0609732142856,345.0033728241665L606.1221964285714,327.28738555285474L606.1221964285714,337.1270442309928L606.1221964285714,343.1269815281946L606.1221964285714,351.55718958045463L612.2446428571428,340.34335872445894L612.2446428571428,336.7574523010542L615.3058660714286,347.62442035500754L615.3058660714286,354.032801604143L615.3058660714286,356.48126464735384L615.3058660714286,358.6787275572831L615.3058660714286,353.06512434958023L615.3058660714286,345.47615966643275L618.3670892857143,305.1072878777455L618.3670892857143,303.0835391228857L618.3670892857143,309.2981728568195L618.3670892857143,320.38727749836283L621.4283125,315.78055956360123L621.4283125,325.74524411470816L621.4283125,324.98882868569075L621.4283125,326.59299399362493L621.4283125,334.53952147285617L624.4895357142857,302.9536181250947L624.4895357142857,330.2267509900252L624.4895357142857,331.86280336919737L627.5507589285714,323.93414342973L627.5507589285714,324.22590836405834L630.6119821428571,354.69409981873287L633.6732053571428,330.8703634118954L633.6732053571428,331.8296819323069L633.6732053571428,321.3270188900839L633.6732053571428,322.2853267716186L636.7344285714286,344.0082651346566L636.7344285714286,333.7893644546897L636.7344285714286,331.72204601528205L639.7956517857143,346.8378147565634L642.856875,361.6716983040779L642.856875,351.8635208084917L645.9180982142857,353.31119447907275L645.9180982142857,353.4166935025825L645.9180982142857,357.48491992483264L648.9793214285714,359.2681852374874L648.9793214285714,362.28411735266775L652.0405446428571,322.0193151636662L652.0405446428571,341.89851665573394L652.0405446428571,343.6828964428525L652.0405446428571,347.6503908320468L652.0405446428571,343.9911344601391L655.1017678571428,361.86972042288306L655.1017678571428,364.96220013534264L655.1017678571428,370.9971829192602L655.1017678571428,365.93521058372045L655.1017678571428,361.6537041435577L655.1017678571428,356.60546764079703L658.1629910714286,332.8414108469611L658.1629910714286,316.9624589937989L658.1629910714286,342.23934411869897L661.2242142857142,373.6016921270651L664.2854375,356.8362216733923L664.2854375,380.9223599846315L664.2854375,377.6900236665872L664.2854375,356.60546764079703L664.2854375,353.2584565854718L664.2854375,353.1705511100331L664.2854375,355.5158083834654L664.2854375,358.6519473278266L664.2854375,361.56374686070757L667.3466607142857,330.7217275011211L667.3466607142857,354.024006866134L670.4078839285713,317.3360918879093L670.4078839285713,372.12566298739193L670.4078839285713,373.2948430555208L670.4078839285713,357.1559884945717L670.4078839285713,357.8764798789639L673.4691071428571,302.87719988404456L673.4691071428571,328.04045698220676L673.4691071428571,330.5401503442537L673.4691071428571,340.3264019530295L676.5303303571428,380.0784038220971L676.5303303571428,366.15381805935436L676.5303303571428,361.3568903814634L676.5303303571428,353.9447326789932L679.5915535714284,324.24212179358386L682.6527767857142,393.36356233337426L682.6527767857142,359.402283068502L682.6527767857142,370.38817510561705L682.6527767857142,368.41142408028765L682.6527767857142,364.2454921714406L685.7139999999999,399.31966458760706L685.7139999999999,355.8963592984494L685.7139999999999,360.3244713679145L688.7752232142857,340.2416301018295L688.7752232142857,366.6370560281791L688.7752232142857,378.37753752003226L688.7752232142857,378.1136875881753L688.7752232142857,376.6002514846078L688.7752232142857,358.2327925408374L688.7752232142857,357.3781928438864L688.7752232142857,364.871383441389L688.7752232142857,374.3559753568065L688.7752232142857,378.36809792640224L704.0813392857142,400.15002935007647L707.1425624999999,368.7049659853528L707.1425624999999,393.12775618109055L719.3874553571427,406.7915721150995L722.4486785714284,264.9709515883136L725.5099017857142,409.86559956518096L725.5099017857142,399.7496045659366L728.5711249999999,361.8517163392452L728.5711249999999,358.9733354742953L728.5711249999999,374.01123243178307L728.5711249999999,376.4783293155931L728.5711249999999,371.69049551930533L728.5711249999999,371.69049551930533L731.6323482142856,411.66063065823766L737.7547946428572,384.5387295962857L740.8160178571428,353.126606438835L743.8772410714286,385.87420281574595L749.9996874999999,385.9512355198264L753.0609107142857,371.69049551930533L753.0609107142857,379.1891739054472L756.1221339285714,364.2636166498101L756.1221339285714,360.18105535246974L756.1221339285714,357.9209830490403L756.1221339285714,357.7874370194428L756.1221339285714,367.88003441588233L756.1221339285714,369.632984606706L759.1833571428571,406.954865478297L765.3058035714286,380.7420299986217L765.3058035714286,371.31133019764223L768.3670267857143,313.05092600980987L768.3670267857143,334.6980798760162L768.3670267857143,352.30158682359274L768.3670267857143,358.4735254942368L768.3670267857143,357.956626713997L768.3670267857143,353.7774480729063L771.4282499999999,387.2050141593533L777.5506964285714,406.49583186038063L777.5506964285714,375.5324779004152L777.5506964285714,380.04052417394274L786.7343660714286,407.2510145394084L789.7955892857142,360.9256035229969L789.7955892857142,381.11229229389454L789.7955892857142,369.4765951777901L789.7955892857142,372.2924637700893L789.7955892857142,380.04052417394274L795.9180357142857,379.73757431724226L795.9180357142857,376.6940551840017L798.9792589285713,418.0254454228205L808.1629285714286,412.58228669818254L811.2241517857142,370.6279865157235L811.2241517857142,384.78815227773083L814.2853749999999,379.3214561775879L814.2853749999999,376.9850444142827L814.2853749999999,374.8970680057447L814.2853749999999,377.0507888141933L817.3465982142857,386.6354424417863L817.3465982142857,366.82869431445596L817.3465982142857,383.5236149542432L829.5914910714284,422.2398804911154L829.5914910714284,366.2358335726455L829.5914910714284,374.8877194405327L829.5914910714284,387.9884446206881L835.7139374999999,402.74349341517456L838.7751607142856,372.5427826341773L838.7751607142856,381.7588031010903L841.8363839285713,385.1049834636713L841.8363839285713,372.07006153232953L841.8363839285713,386.5197224115061L869.3873928571427,397.34649291638243L872.4486160714285,352.8367534744024L872.4486160714285,424.22651192708105L875.5098392857143,404.49307322591346L878.5710624999999,142.90186511978635L878.5710624999999,358.1080521911089L881.6322857142857,465.43508957089955L961.2240892857142,448.3115178849034L964.2853124999999,338.72737475917285L964.2853124999999,445.402734634705" style="fill: none;" fill="none"></path></g></g></g></g></g><g><g opacity="0.00594516"><span fill="rgb(0, 0, 0)" stroke="none" stroke-width="1px">Alt + Scroll to Zoom</span></g></g></g><g transform="translate(41, 377)" clip-path="url(#clip_1)"><clipPath id="clip_1"><rect width="1071" height="23"></rect></clipPath><g><g><line x1="0" y1="0" x2="0" y2="5" style="visibility: inherit;" fill="rgb(0, 0, 0)" stroke="rgb(204, 204, 204)" stroke-width="1px"></line><line x1="153.0611607142857" y1="0" x2="153.0611607142857" y2="5" style="visibility: inherit;" fill="rgb(0, 0, 0)" stroke="rgb(204, 204, 204)" stroke-width="1px"></line><line x1="306.1223214285714" y1="0" x2="306.1223214285714" y2="5" style="visibility: inherit;" fill="rgb(0, 0, 0)" stroke="rgb(204, 204, 204)" stroke-width="1px"></line><line x1="459.1834821428571" y1="0" x2="459.1834821428571" y2="5" style="visibility: inherit;" fill="rgb(0, 0, 0)" stroke="rgb(204, 204, 204)" stroke-width="1px"></line><line x1="612.2446428571428" y1="0" x2="612.2446428571428" y2="5" style="visibility: inherit;" fill="rgb(0, 0, 0)" stroke="rgb(204, 204, 204)" stroke-width="1px"></line><line x1="765.3058035714286" y1="0" x2="765.3058035714286" y2="5" style="visibility: inherit;" fill="rgb(0, 0, 0)" stroke="rgb(204, 204, 204)" stroke-width="1px"></line><line x1="918.3669642857142" y1="0" x2="918.3669642857142" y2="5" style="visibility: inherit;" fill="rgb(0, 0, 0)" stroke="rgb(204, 204, 204)" stroke-width="1px"></line><line x1="1071.428125" y1="0" x2="1071.428125" y2="5" style="visibility: inherit;" fill="rgb(0, 0, 0)" stroke="rgb(204, 204, 204)" stroke-width="1px"></line></g><g transform="translate(0, 8)"><text x="0" y="0" dx="0em" dy="0.95em" style="text-anchor: middle; visibility: hidden; font-family: Roboto, sans-serif; font-size: 12px; font-weight: 200;" fill="rgb(33, 33, 33)" stroke="none" stroke-width="1px">-50</text><text x="153.0611607142857" y="0" dx="0em" dy="0.95em" style="text-anchor: middle; visibility: inherit; font-family: Roboto, sans-serif; font-size: 12px; font-weight: 200;" fill="rgb(33, 33, 33)" stroke="none" stroke-width="1px">0</text><text x="306.1223214285714" y="0" dx="0em" dy="0.95em" style="text-anchor: middle; visibility: inherit; font-family: Roboto, sans-serif; font-size: 12px; font-weight: 200;" fill="rgb(33, 33, 33)" stroke="none" stroke-width="1px">50</text><text x="459.1834821428571" y="0" dx="0em" dy="0.95em" style="text-anchor: middle; visibility: inherit; font-family: Roboto, sans-serif; font-size: 12px; font-weight: 200;" fill="rgb(33, 33, 33)" stroke="none" stroke-width="1px">100</text><text x="612.2446428571428" y="0" dx="0em" dy="0.95em" style="text-anchor: middle; visibility: inherit; font-family: Roboto, sans-serif; font-size: 12px; font-weight: 200;" fill="rgb(33, 33, 33)" stroke="none" stroke-width="1px">150</text><text x="765.3058035714286" y="0" dx="0em" dy="0.95em" style="text-anchor: middle; visibility: inherit; font-family: Roboto, sans-serif; font-size: 12px; font-weight: 200;" fill="rgb(33, 33, 33)" stroke="none" stroke-width="1px">200</text><text x="918.3669642857142" y="0" dx="0em" dy="0.95em" style="text-anchor: middle; visibility: inherit; font-family: Roboto, sans-serif; font-size: 12px; font-weight: 200;" fill="rgb(33, 33, 33)" stroke="none" stroke-width="1px">250</text><text x="1071.428125" y="0" dx="0em" dy="0.95em" style="text-anchor: middle; visibility: hidden; font-family: Roboto, sans-serif; font-size: 12px; font-weight: 200;" fill="rgb(33, 33, 33)" stroke="none" stroke-width="1px">300</text></g><line x1="0" y1="0" x2="1071.428125" y2="0" fill="rgb(0, 0, 0)" stroke="rgb(204, 204, 204)" stroke-width="1px"></line></g></g></g></g></svg>