<svg viewBox="0 0 1112.5999755859375 400" xmlns="http://www.w3.org/2000/svg"><g><g><g><g><g><line x1="41.171875" y1="281.8508682134149" x2="36.171875" y2="281.8508682134149" style="visibility: inherit;" fill="rgb(0, 0, 0)" stroke="rgb(204, 204, 204)" stroke-width="1px"></line><line x1="41.171875" y1="127.72383514086711" x2="36.171875" y2="127.72383514086711" style="visibility: inherit;" fill="rgb(0, 0, 0)" stroke="rgb(204, 204, 204)" stroke-width="1px"></line></g><g transform="translate(31.171875, 0)"><text x="0" y="281.8508682134149" dx="0em" dy="0.3em" style="text-anchor: end; visibility: inherit; font-family: Roboto, sans-serif; font-size: 12px; font-weight: 200;" fill="rgb(33, 33, 33)" stroke="none" stroke-width="1px">0.9</text><text x="0" y="127.72383514086711" dx="0em" dy="0.3em" style="text-anchor: end; visibility: inherit; font-family: Roboto, sans-serif; font-size: 12px; font-weight: 200;" fill="rgb(33, 33, 33)" stroke="none" stroke-width="1px">1</text></g><line x1="41.171875" y1="0" x2="41.171875" y2="377" fill="rgb(0, 0, 0)" stroke="rgb(204, 204, 204)" stroke-width="1px"></line></g></g><g transform="translate(41, 0)" clip-path="url(#clip_0)"><clipPath id="clip_0"><rect width="1071" height="377"></rect></clipPath><g><g><g><line x1="0" y1="0" x2="0" y2="377" fill="rgb(0, 0, 0)" stroke="rgb(66, 66, 66)" stroke-width="1px" opacity="0.25"></line><line x1="153.0611607142857" y1="0" x2="153.0611607142857" y2="377" fill="rgb(0, 0, 0)" stroke="rgb(66, 66, 66)" stroke-width="1px" opacity="0.25"></line><line x1="306.1223214285714" y1="0" x2="306.1223214285714" y2="377" fill="rgb(0, 0, 0)" stroke="rgb(66, 66, 66)" stroke-width="1px" opacity="0.25"></line><line x1="459.1834821428571" y1="0" x2="459.1834821428571" y2="377" fill="rgb(0, 0, 0)" stroke="rgb(66, 66, 66)" stroke-width="1px" opacity="0.25"></line><line x1="612.2446428571428" y1="0" x2="612.2446428571428" y2="377" fill="rgb(0, 0, 0)" stroke="rgb(66, 66, 66)" stroke-width="1px" opacity="0.25"></line><line x1="765.3058035714286" y1="0" x2="765.3058035714286" y2="377" fill="rgb(0, 0, 0)" stroke="rgb(66, 66, 66)" stroke-width="1px" opacity="0.25"></line><line x1="918.3669642857142" y1="0" x2="918.3669642857142" y2="377" fill="rgb(0, 0, 0)" stroke="rgb(66, 66, 66)" stroke-width="1px" opacity="0.25"></line><line x1="1071.428125" y1="0" x2="1071.428125" y2="377" fill="rgb(0, 0, 0)" stroke="rgb(66, 66, 66)" stroke-width="1px" opacity="0.25"></line></g><g><line x1="0" y1="281.8508682134149" x2="1071.428125" y2="281.8508682134149" fill="rgb(0, 0, 0)" stroke="rgb(66, 66, 66)" stroke-width="1px" opacity="0.25"></line><line x1="0" y1="127.72383514086711" x2="1071.428125" y2="127.72383514086711" fill="rgb(0, 0, 0)" stroke="rgb(66, 66, 66)" stroke-width="1px" opacity="0.25"></line></g></g></g><g><g><line x1="153.0611607142857" y1="0" x2="153.0611607142857" y2="377" fill="rgb(0, 0, 0)" stroke="rgb(153, 153, 153)" stroke-width="1.5px"></line></g></g><g><g><g><g><g><path stroke="rgb(255, 112, 67)" stroke-width="2px" d="M189.79583928571427,-3.454818179551399L189.79583928571427,1.3367672961495847L189.79583928571427,5.817141750622245L192.85706249999998,8.456104400782056L192.85706249999998,12.026093828776931L192.85706249999998,15.42158594181784L192.85706249999998,18.18093422744315L192.85706249999998,20.804825567654447L192.85706249999998,23.15142034398199L195.9182857142857,25.736702636441056L198.97950892857142,29.148876316104058L198.97950892857142,31.68282442403091L198.97950892857142,34.90831179674116L198.97950892857142,37.452969325756264L202.04073214285714,38.666895750908594L202.04073214285714,40.48691669838822L202.04073214285714,42.46135660736009L202.04073214285714,44.42954513756357L202.04073214285714,46.38633639203266L202.04073214285714,48.15678188326703L202.04073214285714,50.03875483070205L202.04073214285714,52.03473856244723L205.10195535714283,53.85714285714279L208.16317857142855,56.236053781884536L211.22440178571426,58.470477989830606L211.22440178571426,60.588695544625345L211.22440178571426,62.665178838015166L214.28562499999998,65.00924177711612L214.28562499999998,66.87128818002071L214.28562499999998,69.01231814891976L214.28562499999998,71.08766023855817L214.28562499999998,73.07338775744937L214.28562499999998,74.86428816181612L214.28562499999998,76.69743109206118L214.28562499999998,78.51229490145981L217.34684821428567,80.02692211087887L217.34684821428567,81.53492178447425L220.40807142857142,82.40109779397937L220.40807142857142,83.39708373440617L220.40807142857142,84.58985120759877L220.40807142857142,85.76409416602436L220.40807142857142,86.89873616226171L220.40807142857142,88.17084355169209L223.46929464285714,89.6264230854726L223.46929464285714,91.04390307395643L223.46929464285714,92.44758801113974L226.53051785714285,93.23295215998628L226.53051785714285,94.19446747172573L226.53051785714285,95.17289658205361L229.59174107142854,96.22087135722403L229.59174107142854,97.53695735738059L232.65296428571426,98.29256993798307L232.65296428571426,99.23352597107099L232.65296428571426,100.36954937874232L232.65296428571426,101.51960445428927L235.71418749999998,102.79334972766486L235.71418749999998,104.02723307098697L238.7754107142857,104.81063295932091L238.7754107142857,105.60804847360183L238.7754107142857,106.44779256910712L238.7754107142857,107.36749990020255L241.8366339285714,108.89525288293895L241.8366339285714,110.18099320079563L241.8366339285714,111.30480037603544L244.8978571428571,112.51132971032524L244.8978571428571,113.71831620766024L244.8978571428571,114.94545998759521L244.8978571428571,116.12836722730097L247.95908035714282,117.27899888503279L247.95908035714282,118.53463476086678L247.95908035714282,119.78799343870321L251.02030357142857,120.2104354934529L251.02030357142857,120.83547872595787L251.02030357142857,121.70001857577833L254.0815267857143,122.60035789345716L254.0815267857143,123.61114374499665L254.0815267857143,124.49106984381697L254.0815267857143,125.32891271554371L257.14275,125.8290196449346L257.14275,126.50510480574798L257.14275,127.33128290874905L257.14275,128.22305475611986L257.14275,129.0789335533226L257.14275,129.87812544043396L260.20397321428567,129.24249021349178L260.20397321428567,129.66141013995176L260.20397321428567,130.39363620334197L260.20397321428567,131.2682744957052L263.2651964285714,132.22050480185632L263.2651964285714,132.98116505209074L266.3264196428571,134.07244427513348L266.3264196428571,135.2122011722341L266.3264196428571,136.4079139051284L266.3264196428571,137.59008215481447L266.3264196428571,138.68125527887435L269.38764285714285,139.3070274146805L269.38764285714285,139.9930539069998L272.44886607142854,140.99113533685744L272.44886607142854,142.01747309746318L272.44886607142854,142.7882992934185L272.44886607142854,143.43129399723966L275.51008928571423,144.36003251939138L275.51008928571423,145.32251483218045L275.51008928571423,146.0190792326803L275.51008928571423,146.65552219749154L278.5713125,147.34156842819397L278.5713125,148.1457243314177L278.5713125,148.96915331837L278.5713125,149.78888031196462L278.5713125,150.53482496687684L278.5713125,151.27531614605533L281.63253571428567,151.94526805468254L284.6937589285714,152.94553805061284L284.6937589285714,153.82700459317869L284.6937589285714,154.62901924627914L284.6937589285714,155.26676089789981L284.6937589285714,155.90115361013278L284.6937589285714,156.56004447636448L287.7549821428571,157.23087200390918L287.7549821428571,157.88098510237765L287.7549821428571,158.5587765083264L287.7549821428571,159.22385385418548L287.7549821428571,159.8346512695072L287.7549821428571,160.4376468119765L287.7549821428571,161.0412134457224L290.8162053571428,161.42528838749084L290.8162053571428,161.88903279999926L290.8162053571428,162.51406536780343L290.8162053571428,163.11344268920374L293.87742857142854,163.71314888609612L293.87742857142854,164.33756043687657L293.87742857142854,164.98890281991214L293.87742857142854,165.62969700064426L296.9386517857142,166.02045040267248L296.9386517857142,166.53597160741802L296.9386517857142,167.0329581965323L296.9386517857142,167.5384952515625L299.99987500000003,168.17322291090974L299.99987500000003,168.78456721655473L303.0610982142857,169.274274058088L303.0610982142857,169.8685673230001L303.0610982142857,170.37269505878717L303.0610982142857,170.92081043397874L303.0610982142857,171.4778025134993L303.0610982142857,172.0810127524198L303.0610982142857,172.7063130407495L306.1223214285714,173.23206923954766L306.1223214285714,173.66936960156679L306.1223214285714,174.12463927075177L306.1223214285714,174.5454761409837L306.1223214285714,174.97986990674738L309.18354464285716,175.20460728254508L309.18354464285716,175.63411536265372L312.24476785714285,175.95720391176624L312.24476785714285,176.4346433356401L312.24476785714285,176.96011949733676L315.30599107142854,177.52209290002736L315.30599107142854,177.9883417314539L315.30599107142854,178.45816751800157L315.30599107142854,178.93461569315173L318.3672142857143,179.78522409257755L318.3672142857143,180.14660620062975L321.4284375,180.72636481866L321.4284375,181.19133372599282L327.5508839285714,181.63173486210297L327.5508839285714,182.02304975464023L327.5508839285714,182.41044172850562L327.5508839285714,182.78168584330297L330.6121071428571,183.0790053853059L333.67333035714285,183.68947744670456L333.67333035714285,184.2237186992789L336.73455357142853,184.0912844110581L336.73455357142853,184.33675347049265L336.73455357142853,184.57899333601333L336.73455357142853,184.86422849009713L336.73455357142853,185.14852544911872L339.7957767857142,185.55113907678475L339.7957767857142,185.971843647479L339.7957767857142,186.44858160328172L342.85699999999997,187.1231751621376L342.85699999999997,187.62730613916784L342.85699999999997,188.01392396349183L345.91822321428566,188.37348874989925L345.91822321428566,188.78096877329938L345.91822321428566,189.17661243720994L348.9794464285714,189.54568919203072L348.9794464285714,189.95486661599955L348.9794464285714,190.34943391271682L348.9794464285714,190.75704584463097L348.9794464285714,191.15477936841688L348.9794464285714,191.56069945352448L352.0406696428571,192.08109154874123L352.0406696428571,192.46828602386836L355.1018928571428,192.86513348214356L358.16311607142853,193.00293676608612L358.16311607142853,193.32147685464042L358.16311607142853,193.64657989751223L361.2243392857142,193.95086425315904L361.2243392857142,194.25824567895717L361.2243392857142,194.59901877095194L364.28556249999997,195.16272134972203L364.28556249999997,195.6016929818631L364.28556249999997,196.01491603653207L367.34678571428566,196.31158546933477L367.34678571428566,196.6295017058931L370.4080089285714,197.07305701187235L370.4080089285714,197.47223775514414L370.4080089285714,197.8950548725625L370.4080089285714,198.3080814033824L373.46923214285715,198.90204148603445L373.46923214285715,199.33369751651813L373.46923214285715,199.75409070279767L373.46923214285715,200.1559599982972L379.59167857142853,200.3143094246115L379.59167857142853,200.5574213359698L379.59167857142853,200.9052074727542L379.59167857142853,201.25800583633398L382.6529017857143,201.72684228693942L382.6529017857143,202.16269727336083L382.6529017857143,202.61420670830216L382.6529017857143,202.98559262697543L382.6529017857143,203.34851636289946L382.6529017857143,203.71243860042557L385.71412499999997,203.93592681457534L385.71412499999997,204.1590514367959L385.71412499999997,204.50746509996648L388.7753482142857,205.23873940416846L391.8365714285714,205.7896643316861L391.8365714285714,206.20733898258143L391.8365714285714,206.51587756127594L394.8977946428571,206.54795399007963L394.8977946428571,206.77182889223826L394.8977946428571,207.0256626132524L397.95901785714284,207.3546262692488L397.95901785714284,207.72435480560432L401.02024107142853,208.26966653069843L401.02024107142853,208.73157154296004L401.02024107142853,209.19952683709496L401.02024107142853,209.64357945360942L407.14268749999997,210.1195697346553L407.14268749999997,210.46572947868523L407.14268749999997,210.80886750524184L407.14268749999997,211.14862439341195L407.14268749999997,211.47541298121138L407.14268749999997,211.79720706413806L407.14268749999997,212.14844306369065L407.14268749999997,212.5151083199938L410.20391071428566,212.93541936782185L410.20391071428566,213.33933909995704L410.20391071428566,213.74402324865738L410.20391071428566,214.16686098097102L410.20391071428566,214.5901473587557L410.20391071428566,214.9733943124012L413.2651339285714,215.26182842549227L413.2651339285714,215.58115093805893L413.2651339285714,215.90430921316468L413.2651339285714,216.22694655053252L416.3263571428571,216.62665381863303L419.3875803571428,216.93869281236752L419.3875803571428,217.2257556729278L419.3875803571428,217.56706048480348L419.3875803571428,217.89371837906702L419.3875803571428,218.2240404864646L425.5100267857142,218.55099090389913L425.5100267857142,218.91737195807355L425.5100267857142,219.28921732359962L425.5100267857142,219.63246978702563L425.5100267857142,219.97297974259112L428.57124999999996,220.17455830433184L428.57124999999996,220.44613630098593L428.57124999999996,220.71961204534617L431.63247321428565,220.9908809357329L431.63247321428565,221.26817982024997L434.69369642857134,221.6639681091725L434.69369642857134,222.03241018851477L434.69369642857134,222.38636156203182L434.69369642857134,222.6792375288683L434.69369642857134,222.94484589703248L437.75491964285715,223.21165150487897L437.75491964285715,223.4325904235633L437.75491964285715,223.70651216044593L440.81614285714284,223.86246957043872L440.81614285714284,224.09076284066944L440.81614285714284,224.3078832961743L440.81614285714284,224.53107756532623L440.81614285714284,224.78499490728493L440.81614285714284,225.03062169502496L443.8773660714286,225.2172057173316L443.8773660714286,225.45073097746166L443.8773660714286,225.7401540371591L446.9385892857143,225.96361843097844L446.9385892857143,226.2465917209144L446.9385892857143,226.54151553347637L449.99981249999996,226.7652542459643L453.0610357142857,227.08491950726324L453.0610357142857,227.38535563005658L453.0610357142857,227.68709151469943L453.0610357142857,227.97880323511075L456.1222589285714,228.3013433760295L456.1222589285714,228.58902783360543L459.1834821428571,228.70488403014397L459.1834821428571,228.75158715921646L459.1834821428571,228.8580032676622L459.1834821428571,229.03550084953116L459.1834821428571,229.3103903857581L462.24470535714283,229.4211387976099L462.24470535714283,229.68680886278864L462.24470535714283,229.9624696405415L465.3059285714285,230.23126783023602L465.3059285714285,230.51076110283705L465.3059285714285,230.7858594869427L468.36715178571427,230.9383493532885L468.36715178571427,231.23209385817134L471.42837499999996,231.47256946598299L471.42837499999996,231.73843330240257L474.48959821428565,232.07005943820036L474.48959821428565,232.37457149743747L474.48959821428565,232.67323316303447L477.5508214285714,232.93109424467232L477.5508214285714,233.20798371206814L480.6120446428571,233.39811713005366L480.6120446428571,233.6120899520578L480.6120446428571,233.82422491552893L483.6732678571428,234.08663187233662L483.6732678571428,234.34515081084413L483.6732678571428,234.60144808499717L486.7344910714285,234.89639869324995L486.7344910714285,235.20323687659297L486.7344910714285,235.49366943000578L489.7957142857142,235.7243968006239L489.7957142857142,235.98497360329688L489.7957142857142,236.25642685468978L489.7957142857142,236.52474680182232L489.7957142857142,236.78103514978295L492.85693749999996,237.06870628161766L492.85693749999996,237.33670479383045L492.85693749999996,237.58517464061796L495.91816071428565,237.91055266211012L495.91816071428565,238.18020519914083L498.97938392857134,238.48443897499206L498.97938392857134,238.7481110572693L502.04060714285714,238.9780436472182L502.04060714285714,239.21093315462176L502.04060714285714,239.46977500251054L502.04060714285714,239.74561371473882L502.04060714285714,240.0103973515022L505.10183035714283,240.22506811684843L505.10183035714283,240.45806760318467L505.10183035714283,240.70469012504495L505.10183035714283,240.97066304172827L508.1630535714286,241.17795750711736L508.1630535714286,241.35613267178834L508.1630535714286,241.5648623708977L511.22427678571427,241.79890382019943L511.22427678571427,241.97817988458317L511.22427678571427,242.15727631269624L511.22427678571427,242.35623858268792L514.2855,242.60999748823323L514.2855,242.86577544980148L514.2855,243.12395314248357L517.3467232142857,243.32529264061435L517.3467232142857,243.57256570888023L520.4079464285713,243.81590920424705L520.4079464285713,244.0409475985704L520.4079464285713,244.23635518478503L520.4079464285713,244.42596927933164L523.4691696428571,244.76627647296942L523.4691696428571,245.06087684036999L523.4691696428571,245.32317715815321L523.4691696428571,245.5595220192148L523.4691696428571,245.74430904101794L526.5303928571428,245.81955920674744L526.5303928571428,245.95773063208946L526.5303928571428,246.1069533187577L526.5303928571428,246.26591020298036L526.5303928571428,246.42322780038145L526.5303928571428,246.58310854209338L529.5916160714285,246.821119103762L529.5916160714285,247.0520038103457L532.6528392857142,247.12946307410598L532.6528392857142,247.29370638246243L532.6528392857142,247.45918476093198L532.6528392857142,247.62282914964038L535.7140625,247.705304926997L535.7140625,247.95727251354288L535.7140625,248.20612856110532L535.7140625,248.4138822531738L535.7140625,248.62489898219292L538.7752857142857,248.66987527708702L538.7752857142857,248.84063375505374L541.8365089285713,249.0714792017426L544.8977321428571,249.2220192810026L544.8977321428571,249.38567681992967L544.8977321428571,249.54990414120215L544.8977321428571,249.70087395455707L544.8977321428571,249.85449431090765L544.8977321428571,250.00748894064455L547.9589553571428,250.20386384693577L547.9589553571428,250.41841160555546L551.0201785714285,250.70825602193867L551.0201785714285,250.94023857264946L551.0201785714285,251.1337874493787L554.0814017857142,251.32813112665286L554.0814017857142,251.50085459165172L554.0814017857142,251.67835849462466L554.0814017857142,251.8563643110477L554.0814017857142,252.03825407842956L557.142625,252.41266267721753L557.142625,252.5946351041928L557.142625,252.79603951317313L557.142625,253.0073441327962L557.142625,253.2495719697265L560.2038482142857,253.40546429608267L560.2038482142857,253.57573398025582L560.2038482142857,253.69166909558388L560.2038482142857,253.84976079165745L563.2650714285713,254.0798478643397L566.3262946428571,254.34255589374797L566.3262946428571,254.6061953126604L566.3262946428571,254.87575322921998L566.3262946428571,255.13818570017744L569.3875178571428,255.35998209713276L569.3875178571428,255.5328069802821L569.3875178571428,255.71303755925607L572.4487410714285,255.94291528478905L572.4487410714285,256.1596367062862L575.5099642857142,256.4255220817253L575.5099642857142,256.663578293862L575.5099642857142,256.89956828923454L578.5711875,257.1608943543749L578.5711875,257.3516111132377L581.6324107142856,257.5346613513819L581.6324107142856,257.7720965089221L581.6324107142856,258.0027776540663L581.6324107142856,258.2406339916722L581.6324107142856,258.44780878243466L584.6936339285713,258.53253647741735L584.6936339285713,258.78631497148257L587.7548571428571,259.0435752005796L587.7548571428571,259.2694538947022L587.7548571428571,259.49592525025884L587.7548571428571,259.6744212807851L587.7548571428571,259.8517836249955L590.8160803571427,259.94676270567567L593.8773035714285,260.16383878773007L593.8773035714285,260.3804803785057L593.8773035714285,260.58551022686396L593.8773035714285,260.7977676134894L593.8773035714285,261.0088111738837L596.9385267857142,261.2645193460936L596.9385267857142,261.51093245094995L596.9385267857142,261.7184217980252L596.9385267857142,261.9225006788134L599.9997500000001,262.1337921843444L599.9997500000001,262.3420459691935L599.9997500000001,262.53261040019777L599.9997500000001,262.7246933820847L603.0609732142856,262.7510008191198L603.0609732142856,262.9131032690245L603.0609732142856,263.09207602362386L603.0609732142856,263.27343506499113L603.0609732142856,263.4785402154364L606.1221964285714,263.6112296136666L606.1221964285714,263.7907486119485L606.1221964285714,263.97367063213756L606.1221964285714,264.1673899533059L612.2446428571428,264.28582827347685L612.2446428571428,264.47079603731083L615.3058660714286,264.613002332875L615.3058660714286,264.7608215995057L615.3058660714286,264.9101359039023L615.3058660714286,265.0888604013497L615.3058660714286,265.26541075530264L615.3058660714286,265.45135985053935L618.3670892857143,265.57048130356446L618.3670892857143,265.7032958500632L618.3670892857143,265.82699244364034L618.3670892857143,265.9758606400637L621.4283125,266.0144155492817L621.4283125,266.09756986678804L621.4283125,266.2075960028201L621.4283125,266.33280270816573L621.4283125,266.46222085781494L624.4895357142857,266.58828508312L624.4895357142857,266.7514445703148L624.4895357142857,266.9119725266328L627.5507589285714,267.0964173473439L627.5507589285714,267.2831477777206L630.6119821428571,267.4207418908869L633.6732053571428,267.6057628994284L633.6732053571428,267.77255059165503L633.6732053571428,267.9420752164152L633.6732053571428,268.1077829533325L636.7344285714286,268.27175172579183L636.7344285714286,268.4325281104839L636.7344285714286,268.59498427118535L639.7956517857143,268.676085143837L642.856875,268.9238051562427L642.856875,269.1019498354753L645.9180982142857,269.2775801984808L645.9180982142857,269.4547875538438L645.9180982142857,269.6471551160094L648.9793214285714,269.74755309887706L648.9793214285714,269.9067484906752L652.0405446428571,269.9045585419143L652.0405446428571,270.00996237232357L652.0405446428571,270.13687200656454L652.0405446428571,270.2907363151843L652.0405446428571,270.438559151958L655.1017678571428,270.68216910445574L655.1017678571428,270.92938337035673L655.1017678571428,271.16936196108696L655.1017678571428,271.4099381722817L655.1017678571428,271.62238147508384L655.1017678571428,271.8222690036512L658.1629910714286,271.73370355292417L658.1629910714286,271.77305296619863L658.1629910714286,271.8868167793568L661.2242142857142,272.04134222040005L664.2854375,272.2161566177896L664.2854375,272.41487079837435L664.2854375,272.6407699175879L664.2854375,272.843982746314L664.2854375,273.0554540994321L664.2854375,273.25502988718426L664.2854375,273.4589073764082L664.2854375,273.66080804022744L664.2854375,273.8650604493883L667.3466607142857,273.95726028880057L667.3466607142857,274.12354023017565L670.4078839285713,274.17187722195825L670.4078839285713,274.3258529008163L670.4078839285713,274.5231087812054L670.4078839285713,274.7200844171947L670.4078839285713,274.9024326128032L673.4691071428571,275.00182783444734L673.4691071428571,275.15703556681734L673.4691071428571,275.3183210695013L673.4691071428571,275.46752713271076L676.5303303571428,275.6414849703158L676.5303303571428,275.8140151861542L676.5303303571428,275.98132536030215L676.5303303571428,276.150024540374L679.5915535714284,276.31702255897807L682.6527767857142,276.5851765426177L682.6527767857142,276.76254899564134L682.6527767857142,276.95534369728546L682.6527767857142,277.145219636772L682.6527767857142,277.31689457524317L685.7139999999999,277.61301056689376L685.7139999999999,277.8000844166301L685.7139999999999,277.96807174015726L688.7752232142857,278.07524240025515L688.7752232142857,278.21851843604657L688.7752232142857,278.386289836533L688.7752232142857,278.55561536147735L688.7752232142857,278.7207775413656L688.7752232142857,278.8155765601285L688.7752232142857,278.9210786751567L688.7752232142857,279.0553652228178L688.7752232142857,279.20453471699244L688.7752232142857,279.35563768418916L691.8364464285713,279.62525660852594L691.8364464285713,279.8104582924967L691.8364464285713,280.0058144402025L691.8364464285713,280.1868586803995L694.8976696428571,280.38619315584526L694.8976696428571,280.5702227129716L694.8976696428571,280.76808737516245L694.8976696428571,280.9587313905945L697.9588928571428,281.0842379380393L697.9588928571428,281.2607992424448L697.9588928571428,281.4465932008704L701.0201160714284,281.5056331779776L701.0201160714284,281.67826997081875L701.0201160714284,281.8419164803176L704.0813392857142,282.0375290088976L704.0813392857142,282.23511288239297L707.1425624999999,282.3298888791496L707.1425624999999,282.4825804825234L707.1425624999999,282.6669566226654L710.2037857142856,282.8417247745328L710.2037857142856,283.0131142182744L710.2037857142856,283.184940922336L710.2037857142856,283.35237676684943L710.2037857142856,283.52012009245726L713.2650089285713,283.73477771268796L713.2650089285713,283.9376032281015L713.2650089285713,284.14603449287813L713.2650089285713,284.35944858074004L716.3262321428571,284.5392746551473L716.3262321428571,284.72733270487726L719.3874553571427,284.94210337472254L719.3874553571427,285.14254973330833L719.3874553571427,285.35054380436804L719.3874553571427,285.56430104354024L722.4486785714284,285.4236786439578L725.5099017857142,285.59740950482535L725.5099017857142,285.7834596262675L725.5099017857142,285.9626323548456L725.5099017857142,286.1438214965192L725.5099017857142,286.32590354026814L725.5099017857142,286.5074120663485L728.5711249999999,286.69022864247637L728.5711249999999,286.85269130373615L728.5711249999999,287.01908754207795L728.5711249999999,287.1915526579176L728.5711249999999,287.3663541050948L728.5711249999999,287.5381162519634L731.6323482142856,287.7457631704776L731.6323482142856,287.94889760686294L734.6935714285713,288.1953150053942L734.6935714285713,288.3856935881674L734.6935714285713,288.5692818724954L737.7547946428572,288.7193629797565L737.7547946428572,288.87300032588666L737.7547946428572,289.02770681617227L740.8160178571428,289.1741788014211L743.8772410714286,289.3230080227837L743.8772410714286,289.4579178894882L746.9384642857143,289.75674402184416L746.9384642857143,289.91363309337953L746.9384642857143,290.0685035025812L749.9996874999999,290.1873159374946L753.0609107142857,290.0915450933711L753.0609107142857,290.217611180226L756.1221339285714,290.3659729856247L756.1221339285714,290.493258542035L756.1221339285714,290.6138407562932L756.1221339285714,290.73384995504324L756.1221339285714,290.86727828326065L756.1221339285714,291.00601888364224L759.1833571428571,291.13821859232763L759.1833571428571,291.26052565982445L759.1833571428571,291.40105219770146L759.1833571428571,291.5254449945706L762.2445803571428,291.671047164441L762.2445803571428,291.8401655936663L762.2445803571428,291.992172975259L765.3058035714286,292.12958668302474L765.3058035714286,292.22941580314114L768.3670267857143,292.36527324882945L768.3670267857143,292.44527520041225L768.3670267857143,292.5600230364644L768.3670267857143,292.6802742177828L768.3670267857143,292.79799499845274L768.3670267857143,292.9092927988912L771.4282499999999,293.015192502687L774.4894732142857,293.1265675215733L777.5506964285714,293.3028306164898L777.5506964285714,293.514497096497L777.5506964285714,293.7305279517148L777.5506964285714,293.9197596640307L777.5506964285714,294.07132153850546L777.5506964285714,294.22886160681094L777.5506964285714,294.3803495243394L777.5506964285714,294.5248828791638L780.6119196428571,294.68751668920726L780.6119196428571,294.8651820361977L780.6119196428571,295.0197213029676L780.6119196428571,295.16465590319143L780.6119196428571,295.30982614455047L780.6119196428571,295.45592179547947L783.6731428571428,295.5881610492754L783.6731428571428,295.724379386721L783.6731428571428,295.84574561239316L786.7343660714286,295.95015410131964L786.7343660714286,296.05949338187446L786.7343660714286,296.1737121517233L789.7955892857142,296.37761532374947L789.7955892857142,296.48016639423275L789.7955892857142,296.57642088708093L789.7955892857142,296.6759789702856L789.7955892857142,296.7809110770908L789.7955892857142,296.90872245761267L789.7955892857142,297.0247648089798L792.8568124999999,297.16643828355757L792.8568124999999,297.27771229349537L792.8568124999999,297.41685354661627L795.9180357142857,297.59674172248106L795.9180357142857,297.733689161661L795.9180357142857,297.8663699733858L798.9792589285713,297.9722317889316L798.9792589285713,298.1055004072533L798.9792589285713,298.26336945664826L798.9792589285713,298.4149982772496L798.9792589285713,298.56420589755L802.0404821428571,298.66204189474166L802.0404821428571,298.7647066855915L802.0404821428571,298.853571022825L802.0404821428571,298.9474089079392L802.0404821428571,299.0282321158551L802.0404821428571,299.12210752407844L805.1017053571428,299.18789932415734L805.1017053571428,299.2774001954389L805.1017053571428,299.38171412618334L808.1629285714286,299.51261970565787L808.1629285714286,299.65026646939447L808.1629285714286,299.77673809842787L808.1629285714286,299.90832930307425L808.1629285714286,300.0422571933725L811.2241517857142,300.167874941358L811.2241517857142,300.282768698316L811.2241517857142,300.40622078149534L814.2853749999999,300.55150536515447L814.2853749999999,300.675406267608L814.2853749999999,300.79529717606334L814.2853749999999,300.892107383155L814.2853749999999,300.99104872139475L814.2853749999999,301.09697167153377L814.2853749999999,301.2035166277714L814.2853749999999,301.3341108701388L817.3465982142857,301.46359324152496L817.3465982142857,301.5614716417202L817.3465982142857,301.6674682075729L820.4078214285713,301.7596784482065L820.4078214285713,301.87750754356904L820.4078214285713,301.9935744384423L823.469044642857,302.07998948969885L823.469044642857,302.1763032010809L823.469044642857,302.27372943746235L823.469044642857,302.373451294649L826.5302678571428,302.50298319311565L829.5914910714284,302.6636892011244L829.5914910714284,302.7496604022285L829.5914910714284,302.8220749859376L829.5914910714284,302.90066825498457L832.6527142857142,303.025508234535L832.6527142857142,303.1440824618702L835.7139374999999,303.2574362277664L835.7139374999999,303.3835380869856L835.7139374999999,303.50289059883175L835.7139374999999,303.6060140775957L838.7751607142856,303.7700079815017L838.7751607142856,303.94036911969613L838.7751607142856,304.06933247510335L838.7751607142856,304.19940402455165L841.8363839285713,304.3864214615742L841.8363839285713,304.5395514188572L841.8363839285713,304.6743605799957L841.8363839285713,304.7865415792502L844.897607142857,304.9078011363676L844.897607142857,305.0340852101485L844.897607142857,305.16384278062276L844.897607142857,305.28914993893477L844.897607142857,305.41443453539256L844.897607142857,305.54701513763456L844.897607142857,305.68197233925275L847.9588303571428,305.8505461826567L847.9588303571428,305.99219539934455L847.9588303571428,306.1112206824404L851.0200535714284,306.2071170927081L851.0200535714284,306.3224224252896L851.0200535714284,306.4381884823722L851.0200535714284,306.54939215687017L854.0812767857142,306.7200058404337L854.0812767857142,306.8500061650909L854.0812767857142,306.973566587463L854.0812767857142,307.10008454593736L854.0812767857142,307.2136620826136L857.1424999999999,307.34639771635716L857.1424999999999,307.4818500088959L857.1424999999999,307.6140502897585L860.2037232142856,307.72759090636674L860.2037232142856,307.8436183576556L860.2037232142856,307.9584117701211L863.2649464285713,308.0787924240793L863.2649464285713,308.19072637020093L863.2649464285713,308.29764462531523L866.326169642857,308.5097510306583L866.326169642857,308.63100625156505L866.326169642857,308.75258350167286L866.326169642857,308.86667338157605L869.3873928571427,308.9738103524095L869.3873928571427,309.079804567076L869.3873928571427,309.18798590191375L869.3873928571427,309.30113228794363L869.3873928571427,309.4126151308232L869.3873928571427,309.52031708390166L872.4486160714285,309.524340716154L872.4486160714285,309.6288702317325L872.4486160714285,309.73331405236456L872.4486160714285,309.84891145713357L872.4486160714285,309.95578728064544L875.5098392857143,310.08460068040887L875.5098392857143,310.19295302845336L878.5710624999999,310.20511216550295L878.5710624999999,310.2986206586609L881.6322857142857,310.41706250210007L881.6322857142857,310.5444919311446L881.6322857142857,310.6601931603143L881.6322857142857,310.7876898038428L881.6322857142857,310.9139521953657L884.6935089285714,310.94425355259085L884.6935089285714,311.0229144487818L884.6935089285714,311.09452669141916L884.6935089285714,311.1746941307197L887.7547321428572,311.2975379603754L887.7547321428572,311.41226911649466L887.7547321428572,311.51434830206034L890.8159553571428,311.5875417859836L890.8159553571428,311.6765786524801L890.8159553571428,311.795719975651L890.8159553571428,311.9077849974208L893.8771785714285,312.032838037255L896.9384017857143,312.1447696565094L896.9384017857143,312.24435299048656L896.9384017857143,312.3407921477706L899.9996249999999,312.4088136099381L899.9996249999999,312.526027341692L899.9996249999999,312.63614594563114L899.9996249999999,312.74768921536446L903.0608482142857,312.8210815945488L906.1220714285714,312.8856905449723L906.1220714285714,312.981787040984L906.1220714285714,313.0665827499494L906.1220714285714,313.1469223426753L909.183294642857,313.28054460191885L909.183294642857,313.3845216361105L912.2445178571428,313.4993401361995L912.2445178571428,313.6093246366672L915.3057410714285,313.72255268737365L918.3669642857142,313.7990465071369L918.3669642857142,313.8916602548359L921.4281874999999,314.0167850937258L921.4281874999999,314.1249204046735L921.4281874999999,314.2299338072245L924.4894107142857,314.3272130980663L924.4894107142857,314.4212849509314L924.4894107142857,314.5183899830115L924.4894107142857,314.60197202651915L927.5506339285714,314.6743768112959L927.5506339285714,314.79641131498005L927.5506339285714,314.9191625111139L930.611857142857,315.00666006046634L930.611857142857,315.1068486853535L933.6730803571428,315.2162449990592L933.6730803571428,315.3218803536329L936.7343035714285,315.42170157957275L936.7343035714285,315.52031089222703L936.7343035714285,315.61711078010444L936.7343035714285,315.720205961579L936.7343035714285,315.82165542994375L936.7343035714285,315.91734829584993L939.7955267857142,316.0250969121597L939.7955267857142,316.1112679549192L939.7955267857142,316.20690526055085L939.7955267857142,316.3068209881094L942.8567499999999,316.4154186826421L942.8567499999999,316.5044574919273L942.8567499999999,316.58403905316845L942.8567499999999,316.6797255518215L942.8567499999999,316.78007486349935L945.9179732142857,316.9079909168396L945.9179732142857,317.02964983177463L945.9179732142857,317.16061281215667L945.9179732142857,317.27134519344884L948.9791964285713,317.3184513335652L948.9791964285713,317.4077669970032L952.040419642857,317.52117576647356L952.040419642857,317.63333204257526L955.1016428571428,317.5708426473809L958.1628660714284,317.5951795727124L958.1628660714284,317.7281443260898L958.1628660714284,317.84749369285936L961.2240892857142,317.9581420289249L961.2240892857142,318.0654651385773L961.2240892857142,318.175439976265L964.2853124999999,318.1128207586905L964.2853124999999,318.2227366580427L967.3465357142856,318.34214802352227L967.3465357142856,318.44623783227087L970.4077589285713,318.50763769972417L970.4077589285713,318.59115798619706L970.4077589285713,318.6700303291616L970.4077589285713,318.7495047309603L973.468982142857,318.7910703933528L973.468982142857,318.83967111839434L973.468982142857,318.8885503839023L973.468982142857,318.9568409393342L973.468982142857,319.03678229232275L976.5302053571428,319.11556379002224L976.5302053571428,319.2214599777822L976.5302053571428,319.32884334012175L976.5302053571428,319.43542636781183L979.5914285714284,319.5806760868077L979.5914285714284,319.70087286272116L982.6526517857142,319.81623987524097L982.6526517857142,319.9253182430565L985.7138749999999,320.0458680575371L985.7138749999999,320.1469440871754L985.7138749999999,320.2405813860932L985.7138749999999,320.32982206022507L985.7138749999999,320.4172821902219L988.7750982142855,320.5061227325742L988.7750982142855,320.59827657960847L988.7750982142855,320.69041647089284L988.7750982142855,320.78262553739575L991.8363214285713,320.9072719795909L991.8363214285713,321.0318345598841L991.8363214285713,321.16616224046754L991.8363214285713,321.2845323342997L991.8363214285713,321.40148219204167L991.8363214285713,321.514454689891L994.897544642857,321.5193134393464L997.9587678571427,321.6466156055286L997.9587678571427,321.78631036466555L997.9587678571427,321.92410499430343L1001.0199910714284,321.97548135463956L1001.0199910714284,322.08209553228886L1004.0812142857143,322.19406926575164L1004.0812142857143,322.2892935399064L1007.1424374999998,322.36266357485164L1007.1424374999998,322.42193367610514L1007.1424374999998,322.51191061558524L1010.2036607142857,322.6066112619384L1010.2036607142857,322.70509342672653L1010.2036607142857,322.80032659975865L1010.2036607142857,322.88988958201054L1010.2036607142857,322.98312986940925L1013.2648839285714,323.0498761871652L1013.2648839285714,323.1428571428571L1013.2648839285714,323.24710176741684L1013.2648839285714,323.3489678091922L1013.2648839285714,323.44296547811757L1016.3261071428572,323.51731405596547L1016.3261071428572,323.59731506744174L1016.3261071428572,323.6822742434012L1019.3873303571428,323.77798774100916L1019.3873303571428,323.86185304457877L1019.3873303571428,323.94472159306815L1022.4485535714285,324.0191162212827L1025.5097767857142,324.1237385138764L1025.5097767857142,324.23281754444827L1025.5097767857142,324.34596301693114L1025.5097767857142,324.4657604300272L1025.5097767857142,324.5842733943801L1028.571,324.6805969620173L1028.571,324.7696118380963L1028.571,324.8584340868788L1028.571,324.9514331701333L1031.6322232142857,325.0420752865347L1031.6322232142857,325.1299357720708L1031.6322232142857,325.2232338443214L1031.6322232142857,325.3205022519756L1031.6322232142857,325.41670117365936L1034.6934464285714,325.4746582847204L1034.6934464285714,325.6261697329825L1034.6934464285714,325.758055310769L1034.6934464285714,325.8493505162673L1037.754669642857,325.94409827442115L1037.754669642857,326.030198721152L1037.754669642857,326.1229743475129L1040.8158928571427,326.2115617075496L1040.8158928571427,326.2509523126278L1040.8158928571427,326.2720410681704L1040.8158928571427,326.3292017769217L1040.8158928571427,326.40376781569574L1040.8158928571427,326.50923327333055L1040.8158928571427,326.61167310720737L1040.8158928571427,326.71509674790906L1040.8158928571427,326.8128358735225L1043.8771160714284,326.9704391841589L1043.8771160714284,327.1796617876391L1043.8771160714284,327.3714972042595L1043.8771160714284,327.5647770584781L1046.9383392857142,327.7800089274583L1046.9383392857142,327.9549182004057L1046.9383392857142,328.1375488572823L1046.9383392857142,328.32437589882335L1046.9383392857142,328.5128933734052L1046.9383392857142,328.69585135037613" style="fill: none;" fill="none"></path></g></g></g></g><g opacity="0.2"><g><g><g><path stroke="rgb(255, 112, 67)" stroke-width="2px" d="M159.18360714285714,-65.37495148835528L159.18360714285714,8.896666408338579L159.18360714285714,8.815796043355954L159.18360714285714,-2.0811323981494962L165.30605357142855,34.09075855752555L165.30605357142855,60.60640678765994L165.30605357142855,23.181758723584093L168.36727678571427,-1.5588984151722622L168.36727678571427,-5.490699059830053L171.42849999999999,41.781229273676416L171.42849999999999,23.50862242815747L171.42849999999999,19.03370912616301L171.42849999999999,23.249788418911237L174.4897232142857,67.08999179505435L174.4897232142857,25.11704997770078L174.4897232142857,53.38648173008018L174.4897232142857,37.82778558154613L177.5509464285714,33.089376940935566L180.6121696428571,90.48943311005218L180.6121696428571,92.85864368926315L180.6121696428571,64.63600801790435L183.67339285714283,-3.2050904485224176L183.67339285714283,48.195604476878614L186.73461607142858,90.57494716450934L189.79583928571427,50.13667663589618L189.79583928571427,139.76867310151206L189.79583928571427,145.310251277292L189.79583928571427,144.76251372263562L192.85706249999998,91.34530899590835L192.85706249999998,129.09960081829792L192.85706249999998,130.09557211267006L192.85706249999998,113.50106689881949L192.85706249999998,113.99368594087902L192.85706249999998,108.598264948665L195.9182857142857,122.83143662296493L198.97950892857142,162.34648793784368L198.97950892857142,132.00157574432197L198.97950892857142,167.26781022486114L198.97950892857142,143.4606956826793L202.04073214285714,89.46297464504289L202.04073214285714,119.17657306238866L202.04073214285714,130.03697192840306L202.04073214285714,133.71919245547235L202.04073214285714,137.13091411971823L202.04073214285714,131.79626171180456L202.04073214285714,141.02294900486706L202.04073214285714,150.7539388897114L205.10195535714283,145.56195463160284L208.16317857142855,179.61382123149932L211.22440178571426,176.34360175314757L211.22440178571426,174.25817823321898L211.22440178571426,176.1318792887352L214.28562499999998,196.1980085620772L214.28562499999998,171.97961167915122L214.28562499999998,192.7528936140582L214.28562499999998,192.99766891569834L214.28562499999998,191.5299954135447L214.28562499999998,183.0736439443491L214.28562499999998,189.42273433945562L214.28562499999998,191.9120356009673L217.34684821428567,175.55743566757806L217.34684821428567,178.14434561611034L220.40807142857142,137.9408573278567L220.40807142857142,148.42269385982405L220.40807142857142,163.99510053430706L220.40807142857142,165.0602047136127L220.40807142857142,164.56502079244015L220.40807142857142,176.7973444363558L223.46929464285714,192.95171914429415L223.46929464285714,192.98235216485963L223.46929464285714,194.7577924982333L226.53051785714285,150.33786592321187L226.53051785714285,165.36033000394312L226.53051785714285,168.57602395259457L229.59174107142854,176.01093452836793L229.59174107142854,199.77417137297954L232.65296428571426,156.82968509531867L232.65296428571426,173.41267801579866L232.65296428571426,191.5299954135447L232.65296428571426,194.9721368765555L235.71418749999998,207.92598447670713L235.71418749999998,206.96829545007793L238.7754107142857,170.06598164855296L238.7754107142857,172.82419385649644L238.7754107142857,178.12918359869218L238.7754107142857,186.95291545420002L241.8366339285714,245.14260702211783L241.8366339285714,225.24274050942498L241.8366339285714,212.46079101961388L244.8978571428571,222.58680040922974L244.8978571428571,225.02382167356194L244.8978571428571,229.39235859084403L244.8978571428571,227.44922771399735L247.95908035714282,226.57242774768676L247.95908035714282,239.4630137887813L247.95908035714282,241.72274193018762L251.02030357142857,160.56507452049183L251.02030357142857,181.53999035654962L251.02030357142857,207.18443659059955L254.0815267857143,212.60031072201835L254.0815267857143,226.02474114784525L254.0815267857143,214.07374858929543L254.0815267857143,211.29867479809585L257.14275,176.9940129878394L257.14275,196.74999528941535L257.14275,214.43072910220423L257.14275,223.32065465692855L257.14275,221.04240563326087L257.14275,216.32559891106368L260.20397321428567,63.445604436869566L260.20397321428567,175.10407735226033L260.20397321428567,211.46901396867202L260.20397321428567,229.4864842430026L263.2651964285714,240.39494531182672L263.2651964285714,219.45284981978045L266.3264196428571,260.8558856925491L266.3264196428571,269.0018897616154L266.3264196428571,278.2631570766916L266.3264196428571,278.91187654514073L266.3264196428571,269.67870012590987L269.38764285714285,213.56178765312234L269.38764285714285,222.24345030207806L272.44886607142854,263.2131119203603L272.44886607142854,268.84075399986045L272.44886607142854,237.71147143024345L272.44886607142854,222.77418392863171L275.51008928571423,261.28856679546044L275.51008928571423,267.6007562986374L275.51008928571423,234.12014165805323L275.51008928571423,227.52745230589218L278.5713125,235.3477427814062L278.5713125,252.61168478477722L278.5713125,256.8078788146077L278.5713125,257.8947411989291L278.5713125,249.26964679403375L278.5713125,249.9534066311925L281.63253571428567,241.54874920543855L284.6937589285714,289.80432874654684L284.6937589285714,274.5710068290392L284.6937589285714,264.81878803844745L284.6937589285714,242.7826971048521L284.6937589285714,243.5266612908638L284.6937589285714,248.28451437214608L287.7549821428571,251.28981673727696L287.7549821428571,249.5399851438399L287.7549821428571,254.87575784035218L287.7549821428571,254.28552382096197L287.7549821428571,247.45863593705457L287.7549821428571,247.45863593705457L287.7549821428571,248.69758114928956L290.8162053571428,216.93184951442618L290.8162053571428,229.59622725788148L290.8162053571428,255.09919031345729L290.8162053571428,252.32492230784783L293.87742857142854,253.5201053208583L293.87742857142854,258.53448868883703L293.87742857142854,263.98362033563916L293.87742857142854,263.55014147656556L296.9386517857142,225.2896226631342L296.9386517857142,245.71328387072893L296.9386517857142,243.7325094523769L296.9386517857142,246.04639971201382L299.99987500000003,268.0193143682885L299.99987500000003,265.3811961057876L303.0610982142857,246.56985864673314L303.0610982142857,264.75453480386034L303.0610982142857,250.90788778186513L303.0610982142857,259.1905418172141L303.0610982142857,261.72137591412104L303.0610982142857,270.6139359289438L303.0610982142857,275.5416917328566L306.1223214285714,259.670727600234L306.1223214285714,245.58644755242224L306.1223214285714,249.47630473589103L306.1223214285714,244.4294558467969L306.1223214285714,247.55393128902358L309.18354464285716,212.4917429175938L309.18354464285716,248.12564445688156L312.24476785714285,230.4276998789568L312.24476785714285,258.0866074747873L312.24476785714285,267.5524983618613L315.30599107142854,275.12097609486216L315.30599107142854,258.90248691329333L315.30599107142854,260.4233325296808L315.30599107142854,262.50716091341036L318.3672142857143,333.31149512159516L318.3672142857143,243.7166521681181L321.4284375,284.61666238486015L321.4284375,264.32082747790776L327.5508839285714,260.631572292035L327.5508839285714,252.3407782348695L327.5508839285714,252.3407782348695L327.5508839285714,250.04876984756714L330.6121071428571,236.95467390648307L333.67333035714285,297.09493602922925L333.67333035714285,283.4445950051103L336.73455357142853,160.40056048845676L336.73455357142853,229.50218801975709L336.73455357142853,229.3453447684901L336.73455357142853,237.9637929626536L336.73455357142853,238.3108531680843L339.7957767857142,261.769441868316L339.7957767857142,266.07243429478666L339.7957767857142,277.97132231462217L342.85699999999997,318.9871884621362L342.85699999999997,285.46369673812063L342.85699999999997,262.7798612875905L345.91822321428566,258.0866074747873L345.91822321428566,268.38970666814663L345.91822321428566,266.7478903479095L348.9794464285714,262.0900812318475L348.9794464285714,270.9526750928514L348.9794464285714,268.7118965746692L348.9794464285714,272.1308442417521L348.9794464285714,270.8397853740841L348.9794464285714,273.2776972075319L352.0406696428571,298.14642140517975L352.0406696428571,270.968830381856L355.1018928571428,273.71406861252353L358.16311607142853,220.68380821812445L358.16311607142853,258.3905187248652L358.16311607142853,260.35927206362663L361.2243392857142,256.55219098539345L361.2243392857142,257.766844327468L361.2243392857142,265.46157145512956L364.28556249999997,314.8085120755102L364.28556249999997,288.28534007051064L364.28556249999997,283.4445950051103L367.34678571428566,258.79042789739697L367.34678571428566,263.9514638505706L370.4080089285714,292.2577837443676L370.4080089285714,283.1843061655514L370.4080089285714,289.19983505510845L370.4080089285714,287.7793283910859L373.46923214285715,329.8809506326665L373.46923214285715,293.69905627880723L373.46923214285715,291.9304640899824L373.46923214285715,288.48123430561793L379.59167857142853,234.6079254961837L379.59167857142853,253.74323577800044L379.59167857142853,277.89025669869403L379.59167857142853,279.67444859336126L382.6529017857143,307.28044728441347L382.6529017857143,300.3999099323918L382.6529017857143,304.8842591362795L382.6529017857143,286.8819554933941L382.6529017857143,285.57772070098116L382.6529017857143,286.47429364044996L385.71412499999997,254.381169875218L385.71412499999997,254.70028882734735L385.71412499999997,284.50261624860707L388.7753482142857,379.1595317624319L391.8365714285714,335.31635084742186L391.8365714285714,303.67942413425095L391.8365714285714,278.1334670247379L394.8977946428571,213.8564947258658L394.8977946428571,258.7424597254291L394.8977946428571,266.2975836126086L397.95901785714284,284.9098260204052L397.95901785714284,295.4862176177747L401.02024107142853,340.095187564324L401.02024107142853,319.9878082074511L401.02024107142853,322.3587848001126L401.02024107142853,317.17100294876843L407.14268749999997,326.0899188483532L407.14268749999997,294.1579764727924L407.14268749999997,294.026869637483L407.14268749999997,293.7974121083964L407.14268749999997,291.1450981074712L407.14268749999997,290.4745598178113L407.14268749999997,298.5245219293405L407.14268749999997,303.10210045690087L410.20391071428566,317.60408872949927L410.20391071428566,314.11040235505004L410.20391071428566,315.0412893697592L410.20391071428566,320.5217984868731L410.20391071428566,321.4066084517744L410.20391071428566,311.65327469852014L413.2651339285714,287.6486947000961L413.2651339285714,296.19192993663734L413.2651339285714,297.76851652347324L413.2651339285714,298.21225619025375L416.3263571428571,319.22053230618405L419.3875803571428,296.6515351077617L419.3875803571428,290.6217224453807L419.3875803571428,305.5283531215981L419.3875803571428,302.228289743401L419.3875803571428,303.79487687795813L425.5100267857142,303.4814842026893L425.5100267857142,314.7253792261268L425.5100267857142,316.87140208215186L425.5100267857142,309.7468240736697L425.5100267857142,309.6143126960661L428.57124999999996,272.72842036778803L428.57124999999996,291.91407564219816L428.57124999999996,292.91274046888316L431.63247321428565,292.79814335542574L431.63247321428565,294.9285398352917L434.69369642857134,328.2861924095513L434.69369642857134,321.32309980151405L434.69369642857134,317.92052192388877L434.69369642857134,301.5032620070431L434.69369642857134,294.4530586810081L437.75491964285715,295.2566288577191L437.75491964285715,283.0053117320759L437.75491964285715,298.14642140517975L440.81614285714284,265.89552134124574L440.81614285714284,286.21346520934196L440.81614285714284,283.4934770613423L440.81614285714284,285.57772070098116L440.81614285714284,294.63336170862226L440.81614285714284,292.73264937752117L443.8773660714286,276.49690106176286L443.8773660714286,290.0985339681712L443.8773660714286,306.5199044111758L446.9385892857143,288.105720424663L446.9385892857143,305.6109649359563L446.9385892857143,309.5812360946193L449.99981249999996,289.49391871548636L453.0610357142857,317.803948987265L453.0610357142857,312.7152805318837L453.0610357142857,313.6286463684563L453.0610357142857,311.2054396937551L456.1222589285714,320.855579236749L456.1222589285714,311.0727961287869L459.1834821428571,261.4488727695442L459.1834821428571,241.8966610814697L459.1834821428571,259.06253160906033L459.1834821428571,279.9017013376028L459.1834821428571,309.06780543295343L462.24470535714283,261.1122314080821L462.24470535714283,307.09857878861476L462.24470535714283,310.5754404505295L465.3059285714285,308.98499817496713L465.3059285714285,312.69875651530634L465.3059285714285,311.85232353126827L468.36715178571427,275.42844733330656L468.36715178571427,318.4037929787765L471.42837499999996,302.62385732850015L471.42837499999996,310.8075450755722L474.48959821428565,331.62889561843815L474.48959821428565,323.7630387359217L474.48959821428565,322.4757212859337L477.5508214285714,310.3267766153453L477.5508214285714,316.6882381377587L480.6120446428571,290.34378267509L480.6120446428571,298.01495663775114L480.6120446428571,297.81778163626797L483.6732678571428,313.8612359767994L483.6732678571428,313.0971659436682L483.6732678571428,312.84817207448975L486.7344910714285,325.53712302626633L486.7344910714285,329.8474125983266L486.7344910714285,325.1353115860629L489.7957142857142,306.65213576802165L489.7957142857142,316.5384298599496L489.7957142857142,320.4716633378622L489.7957142857142,319.93779079228096L489.7957142857142,316.5384298599496L492.85693749999996,327.11219785047626L492.85693749999996,321.2395959181665L492.85693749999996,315.3904752134214L495.91816071428565,340.90728555915416L495.91816071428565,323.21122100994165L498.97938392857134,335.0129104864211L498.97938392857134,322.22502650005816L502.04060714285714,311.6698857858368L502.04060714285714,313.030756836601L502.04060714285714,321.94101741360294L502.04060714285714,328.0010042379229L502.04060714285714,324.81721429073724L505.10183035714283,308.75318252251685L505.10183035714283,315.1576423526027L505.10183035714283,320.0712406637004L505.10183035714283,326.94453268094134L508.1630535714286,307.89255896755185L508.1630535714286,298.6396665322164L508.1630535714286,309.0512238665082L511.22427678571427,317.8538934947624L511.22427678571427,300.0049431827652L511.22427678571427,300.25176037729534L511.22427678571427,307.1812793285197L514.2855,325.98936774669033L514.2855,327.11219785047626L514.2855,328.37009951471646L517.3467232142857,309.5148876742551L517.3467232142857,325.47014678797814L520.4079464285713,324.5494595240227L520.4079464285713,318.70370788448105L520.4079464285713,308.98499817496713L520.4079464285713,307.34659585145454L523.4691696428571,359.95130052996063L523.4691696428571,344.44865074492185L523.4691696428571,333.66506997443736L523.4691696428571,325.08501807515876L523.4691696428571,307.67748216812623L526.5303928571428,270.77517098857635L526.5303928571428,292.20870551931745L526.5303928571428,296.2247051702597L526.5303928571428,299.8238788299699L526.5303928571428,299.5277113556632L526.5303928571428,300.6797671156575L529.5916160714285,328.2693915651465L529.5916160714285,326.1569234693451L532.6528392857142,273.24543208447847L532.6528392857142,303.3494408111306L532.6528392857142,304.0589576549948L532.6528392857142,303.69594492222933L535.7140625,275.7520949346158L535.7140625,335.56919890190557L535.7140625,334.87809062879944L535.7140625,320.55512339567366L535.7140625,322.07465016431917L538.7752857142857,264.0478397173663L538.7752857142857,308.22347017050566L541.8365089285713,330.0993170536674L544.8977321428571,301.65153836779933L544.8977321428571,306.58601859550447L544.8977321428571,307.06546045557013L544.8977321428571,302.5909384094725L544.8977321428571,303.79487687795813L544.8977321428571,303.82792124838096L547.9589553571428,319.7876493807264L547.9589553571428,326.76020310839726L551.0201785714285,355.0217072234966L551.0201785714285,333.9850972756198L551.0201785714285,320.2214111862352L554.0814017857142,320.83886351591076L554.0814017857142,313.22999320280036L554.0814017857142,315.2740045907069L554.0814017857142,315.75640198366096L554.0814017857142,317.4874417352146L557.142625,390.75765795317733L557.142625,318.32045556690923L557.142625,325.8553769211745L557.142625,329.8977699960974L557.142625,341.9061599589525L560.2038482142857,309.9457124088346L560.2038482142857,315.5568212542464L560.2038482142857,295.6831763832122L560.2038482142857,311.5205905219542L563.2650714285713,338.9455285705828L566.3262946428571,351.8298477159738L566.3262946428571,352.6314052079299L566.3262946428571,355.36355621397036L566.3262946428571,353.05792943785957L569.3875178571428,337.8304931691551L569.3875178571428,319.50411306457596L569.3875178571428,322.60940289339436L572.4487410714285,341.97389297509676L572.4487410714285,337.2732437144043L575.5099642857142,356.76570775001943L575.5099642857142,346.3328578847053L575.5099642857142,345.9252943536908L578.5711875,356.252574536353L578.5711875,329.12538005228765L581.6324107142856,326.47531224934414L581.6324107142856,347.9985085288087L581.6324107142856,345.73845643963097L581.6324107142856,348.9511176380638L581.6324107142856,337.2732437144043L584.6936339285713,290.3110414946431L584.6936339285713,356.2867234509348L587.7548571428571,358.10071750408866L587.7548571428571,346.02712397865537L587.7548571428571,346.6386557019676L587.7548571428571,328.0344999669071L587.7548571428571,327.8835252807793L590.8160803571427,296.04420590810116L593.8773035714285,344.1602944901485L593.8773035714285,344.34682982518837L593.8773035714285,340.0614145371168L593.8773035714285,343.29546557502454L593.8773035714285,343.15988024913906L596.9385267857142,361.58097485077957L596.9385267857142,358.2206484825869L596.9385267857142,342.85480870215724L596.9385267857142,341.8214728649729L599.9997500000001,345.0764164517683L599.9997500000001,344.1941622823343L599.9997500000001,337.37457345356046L599.9997500000001,338.30337061709326L603.0609732142856,272.8899849556253L603.0609732142856,326.64282375134474L603.0609732142856,333.7324224759172L603.0609732142856,334.99603220835377L603.0609732142856,344.9915456325661L606.1221964285714,315.90613019268085L606.1221964285714,335.1139832976332L606.1221964285714,336.8006990910165L606.1221964285714,341.53363396117913L612.2446428571428,311.1723270961554L612.2446428571428,338.48926125968575L615.3058660714286,321.27293718313064L615.3058660714286,323.7965372644549L615.3058660714286,324.64981193975933L615.3058660714286,337.0031995242967L615.3058660714286,336.3956817389232L615.3058660714286,340.5858413248436L618.3670892857143,313.3296710567656L618.3670892857143,319.1372477358738L618.3670892857143,315.60668909827893L618.3670892857143,326.1903769995683L621.4283125,281.39583089902465L621.4283125,299.5277113556632L621.4283125,310.67493758296524L621.4283125,317.1210817505657L621.4283125,319.0704644893257L624.4895357142857,317.8872569785927L624.4895357142857,333.59772057384873L624.4895357142857,332.75596412033667L627.5507589285714,343.125935368508L627.5507589285714,344.3976888425953L630.6119821428571,323.93033963354986L633.6732053571428,344.2281319600424L633.6732053571428,336.76690145042147L633.6732053571428,338.20207720910423L633.6732053571428,336.8512964232014L636.7344285714286,336.3787874991127L636.7344285714286,335.2825874832838L636.7344285714286,336.2607343876618L639.7956517857143,302.1129605683258L642.856875,373.71484087032866L642.856875,343.8040730355424L645.9180982142857,343.0073365229868L645.9180982142857,343.9736818542448L645.9180982142857,350.8412383606726L648.9793214285714,311.62015196246205L648.9793214285714,336.96939720488035L652.0405446428571,269.0018897616154L652.0405446428571,314.1935002621269L652.0405446428571,323.5791095925467L652.0405446428571,335.4343277681223L652.0405446428571,333.05893663455333L655.1017678571428,375.5159877657027L655.1017678571428,377.5274398079294L655.1017678571428,374.68445332442195L655.1017678571428,375.3426823186335L655.1017678571428,363.14374316115465L655.1017678571428,357.8952756213334L658.1629910714286,235.11154231362588L658.1629910714286,288.3668864953853L658.1629910714286,320.4550514750134L661.2242142857142,338.5061798907155L664.2854375,347.74340181169515L664.2854375,358.7001644255554L664.2854375,371.27662459369367L664.2854375,361.3921267610549L664.2854375,365.448100620202L664.2854375,360.4142100853816L664.2854375,362.6798668106263L664.2854375,362.11317474522065L664.2854375,363.50460345484714L667.3466607142857,313.7947921750081L667.3466607142857,346.8765539052102L670.4078839285713,294.9777093962311L670.4078839285713,341.7537469056493L670.4078839285713,361.59816266954175L670.4078839285713,361.7869350389471L670.4078839285713,355.4319152236244L673.4691071428571,318.4037929787765L673.4691071428571,343.60062904243364L673.4691071428571,346.60473126854794L673.4691071428571,341.3812597139675L676.5303303571428,352.88736584318247L676.5303303571428,352.51203324195495L676.5303303571428,350.3983029398399L676.5303303571428,351.30137519993707L679.5915535714284,350.79015483028337L682.6527767857142,398.25371210327637L682.6527767857142,356.20119976069316L682.6527767857142,363.6249783044702L682.6527767857142,362.57687140192587L682.6527767857142,354.44086938561753L685.7139999999999,413.48649174037365L685.7139999999999,362.2677239665906L685.7139999999999,353.6895031610656L688.7752232142857,325.98936774669033L688.7752232142857,342.71926421072794L688.7752232142857,354.3042471456565L688.7752232142857,355.2952003985765L688.7752232142857,353.62122552377787L688.7752232142857,321.38988643329196L688.7752232142857,326.4417523228776L688.7752232142857,339.89225868931135L688.7752232142857,347.02950166147104L688.7752232142857,348.16860439245806L691.8364464285713,404.93945946340955L691.8364464285713,364.828656698406L691.8364464285713,369.94672496418707L691.8364464285713,363.4530758021697L694.8976696428571,372.4519858357126L694.8976696428571,365.4652313563213L694.8976696428571,372.36551185315466L694.8976696428571,369.2219092297918L697.9588928571428,338.65825494149243L697.9588928571428,363.0235103118916L697.9588928571428,367.7215732980079L701.0201160714284,308.4055772359795L701.0201160714284,361.8727859252066L701.0201160714284,357.8439451701695L704.0813392857142,373.4726412853366L704.0813392857142,374.73637812148104L707.1425624999999,326.02291729630326L707.1425624999999,353.62122552377787L707.1425624999999,369.11834936284396L710.2037857142856,364.7598571769947L710.2037857142856,363.4015499644414L710.2037857142856,363.8827674709564L710.2037857142856,362.02730975045415L710.2037857142856,362.4393848564757L713.2650089285713,385.6361734130652L713.2650089285713,386.02010294085085L716.3262321428571,369.82593169467515L716.3262321428571,374.147661015776L719.3874553571427,387.64420617439924L719.3874553571427,388.1335704704768L722.4486785714284,221.6038489090515L725.5099017857142,368.60086556926814L725.5099017857142,374.96154453978204L725.5099017857142,371.846878305496L725.5099017857142,373.1265346502768L725.5099017857142,373.85339128627237L725.5099017857142,373.85339128627237L728.5711249999999,374.78830476170464L728.5711249999999,364.9662654491266L728.5711249999999,367.17007585873085L728.5711249999999,370.4474957762607L728.5711249999999,371.8814962364296L728.5711249999999,370.6374136335388L731.6323482142856,388.93776253084025L734.6935714285713,378.08285658430736L737.7547946428572,361.5637872339634L737.7547946428572,363.5733439643187L737.7547946428572,364.34702548316034L740.8160178571428,360.4657330359651L743.8772410714286,361.8727859252066L743.8772410714286,355.14138602679145L746.9384642857143,439.6124310177186L746.9384642857143,366.75656351310437L746.9384642857143,365.98170952935436L749.9996874999999,348.1345430887365L753.0609107142857,244.95233640020726L753.0609107142857,351.9151162152962L756.1221339285714,363.3328175270247L756.1221339285714,352.9385226629514L756.1221339285714,349.76814825922713L756.1221339285714,349.6660578964456L756.1221339285714,356.61173868951937L756.1221339285714,359.50549633806787L759.1833571428571,356.40650579657023L759.1833571428571,351.60821352070013L759.1833571428571,361.0317871379742L759.1833571428571,353.05792943785957L762.2445803571428,364.0375037712621L762.2445803571428,376.33063314976914L762.2445803571428,367.7905122563654L765.3058035714286,360.5515064172279L765.3058035714286,341.66906863440545L768.3670267857143,360.1398604877352L768.3670267857143,332.01565097875465L768.3670267857143,349.7171021872448L768.3670267857143,352.69963666062426L768.3670267857143,351.59114267840636L768.3670267857143,348.49171935664094L771.4282499999999,345.9082896994597L774.4894732142857,348.866021727754L777.5506964285714,382.6206684723208L777.5506964285714,390.3375292441025L777.5506964285714,370.8619499628894L777.5506964285714,374.216903485498L777.5506964285714,371.2938237212474L777.5506964285714,367.89387541070886L780.6119196428571,377.5968424442642L780.6119196428571,385.7757535805222L780.6119196428571,373.85339128627237L780.6119196428571,369.0493478014404L780.6119196428571,369.3943881605097L780.6119196428571,370.10210405720005L783.6731428571428,363.0578176556741L783.6731428571428,365.3448075589054L783.6731428571428,357.77537131422673L786.7343660714286,349.12132431050804L786.7343660714286,351.84692134409096L786.7343660714286,354.5603988589493L789.7955892857142,402.41323070395856L789.7955892857142,348.90010006778925L789.7955892857142,345.77246199753677L789.7955892857142,347.6414526502503L789.7955892857142,350.6026945744029L789.7955892857142,362.8001738109202L789.7955892857142,356.78283908442666L792.8568124999999,370.53375351378753L792.8568124999999,354.64582667305365L792.8568124999999,369.58427220547026L795.9180357142857,391.68600039408847L795.9180357142857,368.8768067264108L795.9180357142857,366.8083103356575L798.9792589285713,352.76787129596636L798.9792589285713,367.49751843739614L798.9792589285713,380.91514899942257L798.9792589285713,377.7877942595712L798.9792589285713,376.71212784994873L802.0404821428571,349.4787416256085L802.0404821428571,352.18792749544L802.0404821428571,345.0255338319839L802.0404821428571,347.79448040511187L802.0404821428571,341.0426622532056L802.0404821428571,348.0835539883595L805.1017053571428,333.36197191058426L805.1017053571428,346.0102193653328L805.1017053571428,354.048038495359L808.1629285714286,368.5146189326858L808.1629285714286,372.36551185315466L808.1629285714286,366.5155131554151L808.1629285714286,369.48068668347713L808.1629285714286,370.94833510811856L811.2241517857142,366.6360333691981L811.2241517857142,361.014605972521L811.2241517857142,365.8267674509572L814.2853749999999,377.92662753320246L814.2853749999999,366.4637766890161L814.2853749999999,364.46746967655764L814.2853749999999,352.1367969172141L814.2853749999999,353.43340214684986L814.2853749999999,357.36460774999216L814.2853749999999,357.8609870884231L814.2853749999999,371.1556184843741L817.3465982142857,370.7410810993296L817.3465982142857,353.6724080139193L817.3465982142857,358.2376947899401L820.4078214285713,350.8923236749847L820.4078214285713,365.01784643100603L820.4078214285713,364.22669369877127L823.469044642857,348.20256511282156L823.469044642857,353.72359229490206L823.469044642857,354.47497603337166L823.469044642857,355.8763776219203L826.5302678571428,372.4519858357126L829.5914910714284,390.0399849824385L829.5914910714284,348.8830607985364L829.5914910714284,341.61830439283244L829.5914910714284,345.0934114387465L832.6527142857142,370.68919497469614L832.6527142857142,367.39408056907695L835.7139374999999,364.6738366941065L835.7139374999999,371.9333216344894L835.7139374999999,368.35940835625786L835.7139374999999,359.5226597881181L838.7751607142856,393.8076755894675L838.7751607142856,397.6730729949442L838.7751607142856,374.5285867735374L838.7751607142856,375.3426823186335L841.8363839285713,407.89513714369707L841.8363839285713,378.67315983888597L841.8363839285713,366.15380682212157L844.897607142857,371.4148412638076L844.897607142857,374.4246505619027L844.897607142857,376.57340978605276L844.897607142857,374.2514743505478L844.897607142857,374.4246505619027L844.897607142857,378.7426168545613L847.9588303571428,384.5373668117319L847.9588303571428,371.8814962364296L851.0200535714284,359.00855876155873L851.0200535714284,370.10210405720005L851.0200535714284,370.53375351378753L851.0200535714284,368.11799099136044L854.0812767857142,402.3603141674818L854.0812767857142,379.21161565089477L854.0812767857142,375.72391942652456L854.0812767857142,377.5968424442642L854.0812767857142,370.39562006360825L857.1424999999999,381.5240200414537L857.1424999999999,381.6110371272481L860.2037232142856,371.1038206306592L860.2037232142856,372.69411956734086L860.2037232142856,372.158056978743L863.2649464285713,375.53334009736295L863.2649464285713,370.8619499628894L863.2649464285713,368.15252079079454L866.326169642857,429.8504314686569L866.326169642857,376.81622672046996L866.326169642857,377.18047600803317L866.326169642857,373.04002078495876L869.3873928571427,369.20463160243764L869.3873928571427,368.7043888071487L869.3873928571427,370.11939228783086L869.3873928571427,373.1438586612784L869.3873928571427,372.3481970573063L869.3873928571427,370.3265582295531L872.4486160714285,311.7528451701945L872.4486160714285,368.7043888071487L872.4486160714285,368.80781655715725L872.4486160714285,375.4293324757139L872.4486160714285,370.53375351378753L875.5098392857143,383.4740706032064L875.5098392857143,371.72592803781333L878.5710624999999,316.9879007260377L878.5710624999999,363.3328175270247L881.6322857142857,377.9786675426841L881.6322857142857,383.4218347344099L881.6322857142857,376.7294943760764L881.6322857142857,383.8226344047486L881.6322857142857,383.2824789779902L884.6935089285714,328.0010042379229L884.6935089285714,355.7566386749433L884.6935089285714,351.7957010575501L884.6935089285714,356.85126445076037L887.7547321428572,381.9416247778215L887.7547321428572,377.33662538812865L887.7547321428572,370.06763111196926L890.8159553571428,353.36513646156544L890.8159553571428,362.6970675457597L890.8159553571428,380.5325567692136L890.8159553571428,376.52141974274895L893.8771785714285,384.3804469494916L896.9384017857143,376.7814918150411L896.9384017857143,369.65329900400883L896.9384017857143,367.9456624807576L899.9996249999999,351.43771726330533L899.9996249999999,380.4977335098145L899.9996249999999,376.4519647548878L899.9996249999999,377.45804046412957L903.0608482142857,355.107161982146L906.1220714285714,350.074665115479L906.1220714285714,368.6871172910619L906.1220714285714,362.14746074589624L906.1220714285714,359.64270740495544L909.183294642857,391.51087318403506L909.183294642857,373.9399532695049L912.2445178571428,380.5672772132505L915.3057410714285,379.9415028695203L918.3669642857142,358.2376947899401L918.3669642857142,367.9111375636887L921.4281874999999,387.5393339375697L921.4281874999999,377.49279143785395L921.4281874999999,375.7758811337693L924.4894107142857,371.2938237212474L924.4894107142857,369.5152486639037L924.4894107142857,371.4666501317463L924.4894107142857,363.52181389030704L927.5506339285714,356.988124786019L927.5506339285714,386.8930828228375L927.5506339285714,387.50444762063876L930.611857142857,366.41214469858306L930.611857142857,374.1649971238748L933.6730803571428,379.8719889081707L933.6730803571428,377.75303627725367L936.7343035714285,374.39007560407543L936.7343035714285,373.80139465521245L936.7343035714285,372.8497907685142L936.7343035714285,376.7988591646597L936.7343035714285,375.94923791288534L936.7343035714285,372.6076312707197L939.7955267857142,380.0631343487665L939.7955267857142,367.13556924126954L939.7955267857142,372.9881561650663L939.7955267857142,375.72391942652456L942.8567499999999,381.15868774331256L942.8567499999999,369.4116680292191L942.8567499999999,363.8140124202649L942.8567499999999,373.69761325488906L942.8567499999999,376.67749878530554L945.9179732142857,393.7549648436568L945.9179732142857,383.70058607989085L948.9791964285713,345.229176101731L948.9791964285713,370.82745910703676L952.040419642857,385.7409092958288L952.040419642857,385.13028092893296L955.1016428571428,281.24959342637135L958.1628660714284,331.99890750693305L958.1628660714284,398.27133625787377L961.2240892857142,384.6593810387976L964.2853124999999,281.5420829920974L964.2853124999999,384.764047007042L967.3465357142856,381.4718537578099L970.4077589285713,355.3805692605661L970.4077589285713,369.0147968266948L970.4077589285713,366.2743998750552L970.4077589285713,366.75656351310437L973.468982142857,343.71927600002977L973.468982142857,348.0494946648834L973.468982142857,348.28762243671633L973.468982142857,360.22561476326365L973.468982142857,367.49751843739614L976.5302053571428,366.89435374760865L976.5302053571428,383.85743302670795L985.7138749999999,377.5968424442642L985.7138749999999,374.9788902958593L985.7138749999999,373.9918516463819L988.7750982142855,374.9788902958593L988.7750982142855,377.18047600803317L991.8363214285713,391.5633987030665L994.897544642857,324.4657712728562L997.9587678571427,400.9314499834149L997.9587678571427,408.05459994021254L1001.0199910714284,353.5187641699672L1001.0199910714284,388.3608086534418L1004.0812142857143,381.41958562962765L1007.1424374999998,367.738730678463L1007.1424374999998,358.9914013422855L1007.1424374999998,378.4301379978463L1010.2036607142857,381.15868774331256L1013.2648839285714,364.4845889327883L1013.2648839285714,381.228262876194L1013.2648839285714,382.28982358117173L1016.3261071428572,369.8949698974649L1016.3261071428572,373.59373606531545L1016.3261071428572,376.86822724249987L1019.3873303571428,383.8748845875942L1019.3873303571428,376.4173418482741L1019.3873303571428,375.89727004761727L1022.4485535714285,370.60292807128724L1025.5097767857142,390.10998381576843L1031.6322232142857,386.47395832485404L1034.6934464285714,361.97583410687946L1034.6934464285714,423.10379421807653L1040.8158928571427,382.6206684723208L1040.8158928571427,351.07982105200443L1040.8158928571427,339.5202451276173L1040.8158928571427,362.54247296035766L1040.8158928571427,373.85339128627237L1040.8158928571427,394.12356151901514" style="fill: none;" fill="none"></path></g></g></g></g></g></g><g transform="translate(41, 377)" clip-path="url(#clip_1)"><clipPath id="clip_1"><rect width="1071" height="23"></rect></clipPath><g><g><line x1="0" y1="0" x2="0" y2="5" style="visibility: inherit;" fill="rgb(0, 0, 0)" stroke="rgb(204, 204, 204)" stroke-width="1px"></line><line x1="153.0611607142857" y1="0" x2="153.0611607142857" y2="5" style="visibility: inherit;" fill="rgb(0, 0, 0)" stroke="rgb(204, 204, 204)" stroke-width="1px"></line><line x1="306.1223214285714" y1="0" x2="306.1223214285714" y2="5" style="visibility: inherit;" fill="rgb(0, 0, 0)" stroke="rgb(204, 204, 204)" stroke-width="1px"></line><line x1="459.1834821428571" y1="0" x2="459.1834821428571" y2="5" style="visibility: inherit;" fill="rgb(0, 0, 0)" stroke="rgb(204, 204, 204)" stroke-width="1px"></line><line x1="612.2446428571428" y1="0" x2="612.2446428571428" y2="5" style="visibility: inherit;" fill="rgb(0, 0, 0)" stroke="rgb(204, 204, 204)" stroke-width="1px"></line><line x1="765.3058035714286" y1="0" x2="765.3058035714286" y2="5" style="visibility: inherit;" fill="rgb(0, 0, 0)" stroke="rgb(204, 204, 204)" stroke-width="1px"></line><line x1="918.3669642857142" y1="0" x2="918.3669642857142" y2="5" style="visibility: inherit;" fill="rgb(0, 0, 0)" stroke="rgb(204, 204, 204)" stroke-width="1px"></line><line x1="1071.428125" y1="0" x2="1071.428125" y2="5" style="visibility: inherit;" fill="rgb(0, 0, 0)" stroke="rgb(204, 204, 204)" stroke-width="1px"></line></g><g transform="translate(0, 8)"><text x="0" y="0" dx="0em" dy="0.95em" style="text-anchor: middle; visibility: hidden; font-family: Roboto, sans-serif; font-size: 12px; font-weight: 200;" fill="rgb(33, 33, 33)" stroke="none" stroke-width="1px">-50</text><text x="153.0611607142857" y="0" dx="0em" dy="0.95em" style="text-anchor: middle; visibility: inherit; font-family: Roboto, sans-serif; font-size: 12px; font-weight: 200;" fill="rgb(33, 33, 33)" stroke="none" stroke-width="1px">0</text><text x="306.1223214285714" y="0" dx="0em" dy="0.95em" style="text-anchor: middle; visibility: inherit; font-family: Roboto, sans-serif; font-size: 12px; font-weight: 200;" fill="rgb(33, 33, 33)" stroke="none" stroke-width="1px">50</text><text x="459.1834821428571" y="0" dx="0em" dy="0.95em" style="text-anchor: middle; visibility: inherit; font-family: Roboto, sans-serif; font-size: 12px; font-weight: 200;" fill="rgb(33, 33, 33)" stroke="none" stroke-width="1px">100</text><text x="612.2446428571428" y="0" dx="0em" dy="0.95em" style="text-anchor: middle; visibility: inherit; font-family: Roboto, sans-serif; font-size: 12px; font-weight: 200;" fill="rgb(33, 33, 33)" stroke="none" stroke-width="1px">150</text><text x="765.3058035714286" y="0" dx="0em" dy="0.95em" style="text-anchor: middle; visibility: inherit; font-family: Roboto, sans-serif; font-size: 12px; font-weight: 200;" fill="rgb(33, 33, 33)" stroke="none" stroke-width="1px">200</text><text x="918.3669642857142" y="0" dx="0em" dy="0.95em" style="text-anchor: middle; visibility: inherit; font-family: Roboto, sans-serif; font-size: 12px; font-weight: 200;" fill="rgb(33, 33, 33)" stroke="none" stroke-width="1px">250</text><text x="1071.428125" y="0" dx="0em" dy="0.95em" style="text-anchor: middle; visibility: hidden; font-family: Roboto, sans-serif; font-size: 12px; font-weight: 200;" fill="rgb(33, 33, 33)" stroke="none" stroke-width="1px">300</text></g><line x1="0" y1="0" x2="1071.428125" y2="0" fill="rgb(0, 0, 0)" stroke="rgb(204, 204, 204)" stroke-width="1px"></line></g></g></g></g></svg>